<svg width="222" height="161" viewBox="0 0 222 161" fill="none" xmlns="http://www.w3.org/2000/svg">
<path d="M4.752 65.192C3.93067 65.192 3.216 65.0427 2.608 64.744C2 64.4453 1.53067 64.0293 1.2 63.496C0.869333 62.9627 0.704 62.344 0.704 61.64H2.112C2.112 62.0773 2.21333 62.4827 2.416 62.856C2.61867 63.2187 2.912 63.512 3.296 63.736C3.69067 63.9493 4.176 64.056 4.752 64.056C5.50933 64.056 6.096 63.8747 6.512 63.512C6.928 63.1493 7.136 62.696 7.136 62.152C7.136 61.704 7.04 61.3467 6.848 61.08C6.656 60.8027 6.39467 60.5787 6.064 60.408C5.744 60.2373 5.37067 60.088 4.944 59.96C4.528 59.832 4.09067 59.688 3.632 59.528C2.768 59.2293 2.128 58.8613 1.712 58.424C1.296 57.976 1.088 57.3947 1.088 56.68C1.07733 56.0827 1.216 55.5547 1.504 55.096C1.792 54.6267 2.19733 54.264 2.72 54.008C3.25333 53.7413 3.88267 53.608 4.608 53.608C5.32267 53.608 5.94133 53.7413 6.464 54.008C6.99733 54.2747 7.408 54.6427 7.696 55.112C7.99467 55.5813 8.14933 56.1147 8.16 56.712H6.752C6.752 56.4027 6.672 56.0987 6.512 55.8C6.352 55.4907 6.10667 55.24 5.776 55.048C5.456 54.856 5.05067 54.76 4.56 54.76C3.952 54.7493 3.45067 54.904 3.056 55.224C2.672 55.544 2.48 55.9867 2.48 56.552C2.48 57.032 2.61333 57.4 2.88 57.656C3.15733 57.912 3.54133 58.1253 4.032 58.296C4.52267 58.456 5.088 58.6427 5.728 58.856C6.26133 59.048 6.74133 59.272 7.168 59.528C7.59467 59.784 7.92533 60.1147 8.16 60.52C8.40533 60.9253 8.528 61.4427 8.528 62.072C8.528 62.6053 8.38933 63.112 8.112 63.592C7.83467 64.0613 7.41333 64.4453 6.848 64.744C6.29333 65.0427 5.59467 65.192 4.752 65.192ZM10.434 65V53.8H11.778V58.744H17.586V53.8H18.93V65H17.586V59.848H11.778V65H10.434ZM26.3814 65.192C25.2827 65.192 24.3174 64.952 23.4854 64.472C22.664 63.9813 22.0187 63.2987 21.5494 62.424C21.0907 61.5493 20.8614 60.5413 20.8614 59.4C20.8614 58.2587 21.0907 57.256 21.5494 56.392C22.0187 55.5173 22.664 54.8347 23.4854 54.344C24.3174 53.8533 25.2827 53.608 26.3814 53.608C27.4907 53.608 28.456 53.8533 29.2774 54.344C30.1094 54.8347 30.7547 55.5173 31.2134 56.392C31.672 57.256 31.9014 58.2587 31.9014 59.4C31.9014 60.5413 31.672 61.5493 31.2134 62.424C30.7547 63.2987 30.1094 63.9813 29.2774 64.472C28.456 64.952 27.4907 65.192 26.3814 65.192ZM26.3814 64.008C27.2027 64.008 27.9227 63.8267 28.5414 63.464C29.1707 63.0907 29.656 62.5627 29.9974 61.88C30.3494 61.1867 30.5254 60.36 30.5254 59.4C30.5254 58.44 30.3494 57.6187 29.9974 56.936C29.656 56.2533 29.1707 55.7307 28.5414 55.368C27.9227 54.9947 27.2027 54.808 26.3814 54.808C25.56 54.808 24.8347 54.9947 24.2054 55.368C23.5867 55.7307 23.1014 56.2533 22.7494 56.936C22.408 57.6187 22.2374 58.44 22.2374 59.4C22.2374 60.36 22.408 61.1867 22.7494 61.88C23.1014 62.5627 23.5867 63.0907 24.2054 63.464C24.8347 63.8267 25.56 64.008 26.3814 64.008ZM33.8403 65V53.8H37.5203C38.3949 53.8 39.1149 53.944 39.6803 54.232C40.2456 54.52 40.6616 54.9093 40.9283 55.4C41.2056 55.8907 41.3443 56.4453 41.3443 57.064C41.3443 57.672 41.2109 58.2213 40.9443 58.712C40.6776 59.2027 40.2616 59.5973 39.6963 59.896C39.1309 60.184 38.4056 60.328 37.5203 60.328H35.1843V65H33.8403ZM35.1843 59.192H37.4883C38.3843 59.192 39.0189 59.0053 39.3923 58.632C39.7763 58.248 39.9683 57.7253 39.9683 57.064C39.9683 56.392 39.7763 55.8693 39.3923 55.496C39.0189 55.112 38.3843 54.92 37.4883 54.92H35.1843V59.192Z" fill="#111010"/>
<path d="M6.096 145.192C4.99733 145.192 4.048 144.952 3.248 144.472C2.45867 143.981 1.84533 143.304 1.408 142.44C0.970667 141.565 0.752 140.552 0.752 139.4C0.752 138.259 0.970667 137.256 1.408 136.392C1.84533 135.517 2.45867 134.835 3.248 134.344C4.048 133.853 4.99733 133.608 6.096 133.608C7.376 133.608 8.416 133.917 9.216 134.536C10.0267 135.144 10.544 135.997 10.768 137.096H9.28C9.10933 136.403 8.75733 135.848 8.224 135.432C7.70133 135.005 6.992 134.792 6.096 134.792C5.296 134.792 4.59733 134.979 4 135.352C3.40267 135.715 2.93867 136.243 2.608 136.936C2.288 137.619 2.128 138.44 2.128 139.4C2.128 140.36 2.288 141.187 2.608 141.88C2.93867 142.563 3.40267 143.091 4 143.464C4.59733 143.827 5.296 144.008 6.096 144.008C6.992 144.008 7.70133 143.805 8.224 143.4C8.75733 142.984 9.10933 142.435 9.28 141.752H10.768C10.544 142.829 10.0267 143.672 9.216 144.28C8.416 144.888 7.376 145.192 6.096 145.192ZM17.7876 145.192C16.689 145.192 15.7236 144.952 14.8916 144.472C14.0703 143.981 13.425 143.299 12.9556 142.424C12.497 141.549 12.2676 140.541 12.2676 139.4C12.2676 138.259 12.497 137.256 12.9556 136.392C13.425 135.517 14.0703 134.835 14.8916 134.344C15.7236 133.853 16.689 133.608 17.7876 133.608C18.897 133.608 19.8623 133.853 20.6836 134.344C21.5156 134.835 22.161 135.517 22.6196 136.392C23.0783 137.256 23.3076 138.259 23.3076 139.4C23.3076 140.541 23.0783 141.549 22.6196 142.424C22.161 143.299 21.5156 143.981 20.6836 144.472C19.8623 144.952 18.897 145.192 17.7876 145.192ZM17.7876 144.008C18.609 144.008 19.329 143.827 19.9476 143.464C20.577 143.091 21.0623 142.563 21.4036 141.88C21.7556 141.187 21.9316 140.36 21.9316 139.4C21.9316 138.44 21.7556 137.619 21.4036 136.936C21.0623 136.253 20.577 135.731 19.9476 135.368C19.329 134.995 18.609 134.808 17.7876 134.808C16.9663 134.808 16.241 134.995 15.6116 135.368C14.993 135.731 14.5076 136.253 14.1556 136.936C13.8143 137.619 13.6436 138.44 13.6436 139.4C13.6436 140.36 13.8143 141.187 14.1556 141.88C14.5076 142.563 14.993 143.091 15.6116 143.464C16.241 143.827 16.9663 144.008 17.7876 144.008ZM25.2465 145V133.8H26.5905L32.5585 142.776V133.8H33.9025V145H32.5585L26.5905 136.024V145H25.2465ZM38.9018 145V134.904H35.5578V133.8H43.5898V134.904H40.2458V145H38.9018ZM43.2613 145L47.3893 133.8H48.8133L52.9253 145H51.5013L50.4773 142.12H45.7093L44.6693 145H43.2613ZM46.1093 141.032H50.0773L48.0933 135.496L46.1093 141.032ZM58.8616 145.192C57.763 145.192 56.8136 144.952 56.0136 144.472C55.2243 143.981 54.611 143.304 54.1736 142.44C53.7363 141.565 53.5176 140.552 53.5176 139.4C53.5176 138.259 53.7363 137.256 54.1736 136.392C54.611 135.517 55.2243 134.835 56.0136 134.344C56.8136 133.853 57.763 133.608 58.8616 133.608C60.1416 133.608 61.1816 133.917 61.9816 134.536C62.7923 135.144 63.3096 135.997 63.5336 137.096H62.0456C61.875 136.403 61.523 135.848 60.9896 135.432C60.467 135.005 59.7576 134.792 58.8616 134.792C58.0616 134.792 57.363 134.979 56.7656 135.352C56.1683 135.715 55.7043 136.243 55.3736 136.936C55.0536 137.619 54.8936 138.44 54.8936 139.4C54.8936 140.36 55.0536 141.187 55.3736 141.88C55.7043 142.563 56.1683 143.091 56.7656 143.464C57.363 143.827 58.0616 144.008 58.8616 144.008C59.7576 144.008 60.467 143.805 60.9896 143.4C61.523 142.984 61.875 142.435 62.0456 141.752H63.5336C63.3096 142.829 62.7923 143.672 61.9816 144.28C61.1816 144.888 60.1416 145.192 58.8616 145.192ZM67.8236 145V134.904H64.4796V133.8H72.5116V134.904H69.1676V145H67.8236Z" fill="#111010"/>
<path d="M1.184 25V13.8H2.528V18.744H8.336V13.8H9.68V25H8.336V19.848H2.528V25H1.184ZM17.1314 25.192C16.0327 25.192 15.0674 24.952 14.2354 24.472C13.414 23.9813 12.7687 23.2987 12.2994 22.424C11.8407 21.5493 11.6114 20.5413 11.6114 19.4C11.6114 18.2587 11.8407 17.256 12.2994 16.392C12.7687 15.5173 13.414 14.8347 14.2354 14.344C15.0674 13.8533 16.0327 13.608 17.1314 13.608C18.2407 13.608 19.206 13.8533 20.0274 14.344C20.8594 14.8347 21.5047 15.5173 21.9634 16.392C22.422 17.256 22.6514 18.2587 22.6514 19.4C22.6514 20.5413 22.422 21.5493 21.9634 22.424C21.5047 23.2987 20.8594 23.9813 20.0274 24.472C19.206 24.952 18.2407 25.192 17.1314 25.192ZM17.1314 24.008C17.9527 24.008 18.6727 23.8267 19.2914 23.464C19.9207 23.0907 20.406 22.5627 20.7474 21.88C21.0994 21.1867 21.2754 20.36 21.2754 19.4C21.2754 18.44 21.0994 17.6187 20.7474 16.936C20.406 16.2533 19.9207 15.7307 19.2914 15.368C18.6727 14.9947 17.9527 14.808 17.1314 14.808C16.31 14.808 15.5847 14.9947 14.9554 15.368C14.3367 15.7307 13.8514 16.2533 13.4994 16.936C13.158 17.6187 12.9874 18.44 12.9874 19.4C12.9874 20.36 13.158 21.1867 13.4994 21.88C13.8514 22.5627 14.3367 23.0907 14.9554 23.464C15.5847 23.8267 16.31 24.008 17.1314 24.008ZM24.5903 25V13.8H26.1583L30.1903 21.608L34.1903 13.8H35.7743V25H34.4303V16.2L30.6863 23.4H29.6783L25.9343 16.216V25H24.5903ZM38.1371 25V13.8H45.0651V14.904H39.4811V18.808H44.5851V19.896H39.4811V23.896H45.0651V25H38.1371Z" fill="#111010"/>
<path d="M3.68 105.192C2.66667 105.192 1.872 104.909 1.296 104.344C0.72 103.779 0.432 102.995 0.432 101.992H1.792C1.792 102.557 1.93067 103.032 2.208 103.416C2.48533 103.8 2.97067 103.992 3.664 103.992C4.336 103.992 4.8 103.805 5.056 103.432C5.32267 103.059 5.456 102.595 5.456 102.04V93.8H6.8V102.04C6.8 103.032 6.52267 103.805 5.968 104.36C5.424 104.915 4.66133 105.192 3.68 105.192ZM14.2564 105.192C13.1577 105.192 12.1924 104.952 11.3604 104.472C10.539 103.981 9.89371 103.299 9.42438 102.424C8.96571 101.549 8.73638 100.541 8.73638 99.4C8.73638 98.2587 8.96571 97.256 9.42438 96.392C9.89371 95.5173 10.539 94.8347 11.3604 94.344C12.1924 93.8533 13.1577 93.608 14.2564 93.608C15.3657 93.608 16.331 93.8533 17.1524 94.344C17.9844 94.8347 18.6297 95.5173 19.0884 96.392C19.547 97.256 19.7764 98.2587 19.7764 99.4C19.7764 100.541 19.547 101.549 19.0884 102.424C18.6297 103.299 17.9844 103.981 17.1524 104.472C16.331 104.952 15.3657 105.192 14.2564 105.192ZM14.2564 104.008C15.0777 104.008 15.7977 103.827 16.4164 103.464C17.0457 103.091 17.531 102.563 17.8724 101.88C18.2244 101.187 18.4004 100.36 18.4004 99.4C18.4004 98.44 18.2244 97.6187 17.8724 96.936C17.531 96.2533 17.0457 95.7307 16.4164 95.368C15.7977 94.9947 15.0777 94.808 14.2564 94.808C13.435 94.808 12.7097 94.9947 12.0804 95.368C11.4617 95.7307 10.9764 96.2533 10.6244 96.936C10.283 97.6187 10.1124 98.44 10.1124 99.4C10.1124 100.36 10.283 101.187 10.6244 101.88C10.9764 102.563 11.4617 103.091 12.0804 103.464C12.7097 103.827 13.435 104.008 14.2564 104.008ZM25.7633 105.192C24.9953 105.192 24.2966 105.043 23.6673 104.744C23.0486 104.435 22.5526 103.96 22.1793 103.32C21.8059 102.68 21.6193 101.864 21.6193 100.872V93.8H22.9633V100.888C22.9633 101.976 23.2246 102.765 23.7473 103.256C24.2699 103.747 24.9526 103.992 25.7953 103.992C26.6379 103.992 27.3153 103.747 27.8273 103.256C28.3393 102.765 28.5953 101.976 28.5953 100.888V93.8H29.9392V100.872C29.9392 101.864 29.7526 102.68 29.3793 103.32C29.0059 103.96 28.5046 104.435 27.8753 104.744C27.2459 105.043 26.5419 105.192 25.7633 105.192ZM32.2153 105V93.8H35.8313C36.7059 93.8 37.4206 93.944 37.9753 94.232C38.5299 94.52 38.9406 94.9147 39.2073 95.416C39.4739 95.9173 39.6073 96.472 39.6073 97.08C39.6073 97.784 39.4153 98.4187 39.0312 98.984C38.6579 99.5493 38.0713 99.9493 37.2713 100.184L39.7193 105H38.1353L35.8633 100.376H35.7673H33.5593V105H32.2153ZM33.5593 99.32H35.7352C36.5993 99.32 37.2286 99.112 37.6233 98.696C38.0179 98.28 38.2153 97.7467 38.2153 97.096C38.2153 96.4347 38.0179 95.912 37.6233 95.528C37.2393 95.1333 36.6046 94.936 35.7193 94.936H33.5593V99.32ZM41.6996 105V93.8H43.0436L49.0116 102.776V93.8H50.3556V105H49.0116L43.0436 96.024V105H41.6996ZM52.0269 105L56.1549 93.8H57.5789L61.6909 105H60.2669L59.2429 102.12H54.4749L53.4349 105H52.0269ZM54.8749 101.032H58.8429L56.8589 95.496L54.8749 101.032ZM63.3559 105V93.8H64.6999V103.928H69.9159V105H63.3559Z" fill="#111010"/>
</svg>
