<svg width="222" height="121" viewBox="0 0 222 121" fill="none" xmlns="http://www.w3.org/2000/svg">
<path d="M3.808 65V54.904H0.464V53.8H8.496V54.904H5.152V65H3.808ZM10.1371 65V53.8H17.0651V54.904H11.4811V58.808H16.5851V59.896H11.4811V63.896H17.0651V65H10.1371ZM19.1684 65V53.8H22.7844C23.659 53.8 24.3737 53.944 24.9284 54.232C25.483 54.52 25.8937 54.9147 26.1604 55.416C26.427 55.9173 26.5604 56.472 26.5604 57.08C26.5604 57.784 26.3684 58.4187 25.9844 58.984C25.611 59.5493 25.0244 59.9493 24.2244 60.184L26.6724 65H25.0884L22.8164 60.376H22.7204H20.5124V65H19.1684ZM20.5124 59.32H22.6884C23.5524 59.32 24.1817 59.112 24.5764 58.696C24.971 58.28 25.1684 57.7467 25.1684 57.096C25.1684 56.4347 24.971 55.912 24.5764 55.528C24.1924 55.1333 23.5577 54.936 22.6724 54.936H20.5124V59.32ZM28.6528 65V53.8H30.2208L34.2528 61.608L38.2528 53.8H39.8368V65H38.4928V56.2L34.7488 63.4H33.7408L29.9968 56.216V65H28.6528ZM45.7676 65.192C44.9463 65.192 44.2316 65.0427 43.6236 64.744C43.0156 64.4453 42.5463 64.0293 42.2156 63.496C41.885 62.9627 41.7196 62.344 41.7196 61.64H43.1276C43.1276 62.0773 43.229 62.4827 43.4316 62.856C43.6343 63.2187 43.9276 63.512 44.3116 63.736C44.7063 63.9493 45.1916 64.056 45.7676 64.056C46.525 64.056 47.1116 63.8747 47.5276 63.512C47.9436 63.1493 48.1516 62.696 48.1516 62.152C48.1516 61.704 48.0556 61.3467 47.8636 61.08C47.6716 60.8027 47.4103 60.5787 47.0796 60.408C46.7596 60.2373 46.3863 60.088 45.9596 59.96C45.5436 59.832 45.1063 59.688 44.6476 59.528C43.7836 59.2293 43.1436 58.8613 42.7276 58.424C42.3116 57.976 42.1036 57.3947 42.1036 56.68C42.093 56.0827 42.2316 55.5547 42.5196 55.096C42.8076 54.6267 43.213 54.264 43.7356 54.008C44.269 53.7413 44.8983 53.608 45.6236 53.608C46.3383 53.608 46.957 53.7413 47.4796 54.008C48.013 54.2747 48.4236 54.6427 48.7116 55.112C49.0103 55.5813 49.165 56.1147 49.1756 56.712H47.7676C47.7676 56.4027 47.6876 56.0987 47.5276 55.8C47.3676 55.4907 47.1223 55.24 46.7916 55.048C46.4716 54.856 46.0663 54.76 45.5756 54.76C44.9676 54.7493 44.4663 54.904 44.0716 55.224C43.6876 55.544 43.4956 55.9867 43.4956 56.552C43.4956 57.032 43.629 57.4 43.8956 57.656C44.173 57.912 44.557 58.1253 45.0476 58.296C45.5383 58.456 46.1036 58.6427 46.7436 58.856C47.277 59.048 47.757 59.272 48.1836 59.528C48.6103 59.784 48.941 60.1147 49.1756 60.52C49.421 60.9253 49.5436 61.4427 49.5436 62.072C49.5436 62.6053 49.405 63.112 49.1276 63.592C48.8503 64.0613 48.429 64.4453 47.8636 64.744C47.309 65.0427 46.6103 65.192 45.7676 65.192ZM54.98 65L59.108 53.8H60.532L64.644 65H63.22L62.196 62.12H57.428L56.388 65H54.98ZM57.828 61.032H61.796L59.812 55.496L57.828 61.032ZM66.309 65V53.8H67.653L73.621 62.776V53.8H74.965V65H73.621L67.653 56.024V65H66.309ZM77.3403 65V53.8H80.7803C82.7536 53.8 84.2043 54.3013 85.1323 55.304C86.0709 56.3067 86.5403 57.6827 86.5403 59.432C86.5403 61.1493 86.0709 62.5093 85.1323 63.512C84.2043 64.504 82.7536 65 80.7803 65H77.3403ZM78.6843 63.88H80.7483C81.8363 63.88 82.7003 63.704 83.3403 63.352C83.9909 62.9893 84.4549 62.4773 84.7323 61.816C85.0096 61.144 85.1483 60.3493 85.1483 59.432C85.1483 58.4933 85.0096 57.688 84.7323 57.016C84.4549 56.344 83.9909 55.8267 83.3403 55.464C82.7003 55.1013 81.8363 54.92 80.7483 54.92H78.6843V63.88ZM97.6273 65.192C96.5286 65.192 95.5793 64.952 94.7793 64.472C93.9899 63.9813 93.3766 63.304 92.9393 62.44C92.5019 61.5653 92.2833 60.552 92.2833 59.4C92.2833 58.2587 92.5019 57.256 92.9393 56.392C93.3766 55.5173 93.9899 54.8347 94.7793 54.344C95.5793 53.8533 96.5286 53.608 97.6273 53.608C98.9073 53.608 99.9473 53.9173 100.747 54.536C101.558 55.144 102.075 55.9973 102.299 57.096H100.811C100.641 56.4027 100.289 55.848 99.7552 55.432C99.2326 55.0053 98.5233 54.792 97.6273 54.792C96.8273 54.792 96.1286 54.9787 95.5312 55.352C94.9339 55.7147 94.4699 56.2427 94.1393 56.936C93.8193 57.6187 93.6593 58.44 93.6593 59.4C93.6593 60.36 93.8193 61.1867 94.1393 61.88C94.4699 62.5627 94.9339 63.0907 95.5312 63.464C96.1286 63.8267 96.8273 64.008 97.6273 64.008C98.5233 64.008 99.2326 63.8053 99.7552 63.4C100.289 62.984 100.641 62.4347 100.811 61.752H102.299C102.075 62.8293 101.558 63.672 100.747 64.28C99.9473 64.888 98.9073 65.192 97.6273 65.192ZM109.319 65.192C108.22 65.192 107.255 64.952 106.423 64.472C105.602 63.9813 104.956 63.2987 104.487 62.424C104.028 61.5493 103.799 60.5413 103.799 59.4C103.799 58.2587 104.028 57.256 104.487 56.392C104.956 55.5173 105.602 54.8347 106.423 54.344C107.255 53.8533 108.22 53.608 109.319 53.608C110.428 53.608 111.394 53.8533 112.215 54.344C113.047 54.8347 113.692 55.5173 114.151 56.392C114.61 57.256 114.839 58.2587 114.839 59.4C114.839 60.5413 114.61 61.5493 114.151 62.424C113.692 63.2987 113.047 63.9813 112.215 64.472C111.394 64.952 110.428 65.192 109.319 65.192ZM109.319 64.008C110.14 64.008 110.86 63.8267 111.479 63.464C112.108 63.0907 112.594 62.5627 112.935 61.88C113.287 61.1867 113.463 60.36 113.463 59.4C113.463 58.44 113.287 57.6187 112.935 56.936C112.594 56.2533 112.108 55.7307 111.479 55.368C110.86 54.9947 110.14 54.808 109.319 54.808C108.498 54.808 107.772 54.9947 107.143 55.368C106.524 55.7307 106.039 56.2533 105.687 56.936C105.346 57.6187 105.175 58.44 105.175 59.4C105.175 60.36 105.346 61.1867 105.687 61.88C106.039 62.5627 106.524 63.0907 107.143 63.464C107.772 63.8267 108.498 64.008 109.319 64.008ZM116.778 65V53.8H118.122L124.09 62.776V53.8H125.434V65H124.09L118.122 56.024V65H116.778ZM127.809 65V53.8H131.249C133.222 53.8 134.673 54.3013 135.601 55.304C136.54 56.3067 137.009 57.6827 137.009 59.432C137.009 61.1493 136.54 62.5093 135.601 63.512C134.673 64.504 133.222 65 131.249 65H127.809ZM129.153 63.88H131.217C132.305 63.88 133.169 63.704 133.809 63.352C134.46 62.9893 134.924 62.4773 135.201 61.816C135.478 61.144 135.617 60.3493 135.617 59.432C135.617 58.4933 135.478 57.688 135.201 57.016C134.924 56.344 134.46 55.8267 133.809 55.464C133.169 55.1013 132.305 54.92 131.217 54.92H129.153V63.88ZM138.95 65V53.8H140.294V65H138.95ZM145.292 65V54.904H141.948V53.8H149.98V54.904H146.636V65H145.292ZM151.622 65V53.8H152.966V65H151.622ZM160.428 65.192C159.33 65.192 158.364 64.952 157.532 64.472C156.711 63.9813 156.066 63.2987 155.596 62.424C155.138 61.5493 154.908 60.5413 154.908 59.4C154.908 58.2587 155.138 57.256 155.596 56.392C156.066 55.5173 156.711 54.8347 157.532 54.344C158.364 53.8533 159.33 53.608 160.428 53.608C161.538 53.608 162.503 53.8533 163.324 54.344C164.156 54.8347 164.802 55.5173 165.26 56.392C165.719 57.256 165.948 58.2587 165.948 59.4C165.948 60.5413 165.719 61.5493 165.26 62.424C164.802 63.2987 164.156 63.9813 163.324 64.472C162.503 64.952 161.538 65.192 160.428 65.192ZM160.428 64.008C161.25 64.008 161.97 63.8267 162.588 63.464C163.218 63.0907 163.703 62.5627 164.044 61.88C164.396 61.1867 164.572 60.36 164.572 59.4C164.572 58.44 164.396 57.6187 164.044 56.936C163.703 56.2533 163.218 55.7307 162.588 55.368C161.97 54.9947 161.25 54.808 160.428 54.808C159.607 54.808 158.882 54.9947 158.252 55.368C157.634 55.7307 157.148 56.2533 156.796 56.936C156.455 57.6187 156.284 58.44 156.284 59.4C156.284 60.36 156.455 61.1867 156.796 61.88C157.148 62.5627 157.634 63.0907 158.252 63.464C158.882 63.8267 159.607 64.008 160.428 64.008ZM167.887 65V53.8H169.231L175.199 62.776V53.8H176.543V65H175.199L169.231 56.024V65H167.887ZM182.486 65.192C181.665 65.192 180.95 65.0427 180.342 64.744C179.734 64.4453 179.265 64.0293 178.934 63.496C178.604 62.9627 178.438 62.344 178.438 61.64H179.846C179.846 62.0773 179.948 62.4827 180.15 62.856C180.353 63.2187 180.646 63.512 181.03 63.736C181.425 63.9493 181.91 64.056 182.486 64.056C183.244 64.056 183.83 63.8747 184.246 63.512C184.662 63.1493 184.87 62.696 184.87 62.152C184.87 61.704 184.774 61.3467 184.582 61.08C184.39 60.8027 184.129 60.5787 183.798 60.408C183.478 60.2373 183.105 60.088 182.678 59.96C182.262 59.832 181.825 59.688 181.366 59.528C180.502 59.2293 179.862 58.8613 179.446 58.424C179.03 57.976 178.822 57.3947 178.822 56.68C178.812 56.0827 178.95 55.5547 179.238 55.096C179.526 54.6267 179.932 54.264 180.454 54.008C180.988 53.7413 181.617 53.608 182.342 53.608C183.057 53.608 183.676 53.7413 184.198 54.008C184.732 54.2747 185.142 54.6427 185.43 55.112C185.729 55.5813 185.884 56.1147 185.894 56.712H184.486C184.486 56.4027 184.406 56.0987 184.246 55.8C184.086 55.4907 183.841 55.24 183.51 55.048C183.19 54.856 182.785 54.76 182.294 54.76C181.686 54.7493 181.185 54.904 180.79 55.224C180.406 55.544 180.214 55.9867 180.214 56.552C180.214 57.032 180.348 57.4 180.614 57.656C180.892 57.912 181.276 58.1253 181.766 58.296C182.257 58.456 182.822 58.6427 183.462 58.856C183.996 59.048 184.476 59.272 184.902 59.528C185.329 59.784 185.66 60.1147 185.894 60.52C186.14 60.9253 186.262 61.4427 186.262 62.072C186.262 62.6053 186.124 63.112 185.846 63.592C185.569 64.0613 185.148 64.4453 184.582 64.744C184.028 65.0427 183.329 65.192 182.486 65.192Z" fill="#111010"/>
<path d="M0.48 25L4.608 13.8H6.032L10.144 25H8.72L7.696 22.12H2.928L1.888 25H0.48ZM3.328 21.032H7.296L5.312 15.496L3.328 21.032ZM11.809 25V13.8H15.745C16.5343 13.8 17.185 13.928 17.697 14.184C18.2197 14.4293 18.609 14.7707 18.865 15.208C19.121 15.6347 19.249 16.1147 19.249 16.648C19.249 17.3733 19.0517 17.944 18.657 18.36C18.273 18.776 17.809 19.064 17.265 19.224C17.681 19.2987 18.0597 19.464 18.401 19.72C18.7423 19.976 19.009 20.296 19.201 20.68C19.4037 21.064 19.505 21.4853 19.505 21.944C19.505 22.5093 19.3663 23.0267 19.089 23.496C18.8117 23.9547 18.401 24.3227 17.857 24.6C17.313 24.8667 16.6517 25 15.873 25H11.809ZM13.153 18.696H15.649C16.3637 18.696 16.913 18.5307 17.297 18.2C17.681 17.8587 17.873 17.3893 17.873 16.792C17.873 16.2267 17.681 15.7733 17.297 15.432C16.9237 15.0907 16.3583 14.92 15.601 14.92H13.153V18.696ZM13.153 23.88H15.729C16.497 23.88 17.089 23.704 17.505 23.352C17.921 22.9893 18.129 22.488 18.129 21.848C18.129 21.2187 17.9103 20.7173 17.473 20.344C17.0357 19.96 16.4437 19.768 15.697 19.768H13.153V23.88ZM26.522 25.192C25.4233 25.192 24.458 24.952 23.626 24.472C22.8047 23.9813 22.1593 23.2987 21.69 22.424C21.2313 21.5493 21.002 20.5413 21.002 19.4C21.002 18.2587 21.2313 17.256 21.69 16.392C22.1593 15.5173 22.8047 14.8347 23.626 14.344C24.458 13.8533 25.4233 13.608 26.522 13.608C27.6313 13.608 28.5967 13.8533 29.418 14.344C30.25 14.8347 30.8953 15.5173 31.354 16.392C31.8127 17.256 32.042 18.2587 32.042 19.4C32.042 20.5413 31.8127 21.5493 31.354 22.424C30.8953 23.2987 30.25 23.9813 29.418 24.472C28.5967 24.952 27.6313 25.192 26.522 25.192ZM26.522 24.008C27.3433 24.008 28.0633 23.8267 28.682 23.464C29.3113 23.0907 29.7967 22.5627 30.138 21.88C30.49 21.1867 30.666 20.36 30.666 19.4C30.666 18.44 30.49 17.6187 30.138 16.936C29.7967 16.2533 29.3113 15.7307 28.682 15.368C28.0633 14.9947 27.3433 14.808 26.522 14.808C25.7007 14.808 24.9753 14.9947 24.346 15.368C23.7273 15.7307 23.242 16.2533 22.89 16.936C22.5487 17.6187 22.378 18.44 22.378 19.4C22.378 20.36 22.5487 21.1867 22.89 21.88C23.242 22.5627 23.7273 23.0907 24.346 23.464C24.9753 23.8267 25.7007 24.008 26.522 24.008ZM38.0289 25.192C37.2609 25.192 36.5622 25.0427 35.9329 24.744C35.3142 24.4347 34.8182 23.96 34.4449 23.32C34.0715 22.68 33.8849 21.864 33.8849 20.872V13.8H35.2289V20.888C35.2289 21.976 35.4902 22.7653 36.0129 23.256C36.5355 23.7467 37.2182 23.992 38.0609 23.992C38.9035 23.992 39.5809 23.7467 40.0929 23.256C40.6049 22.7653 40.8609 21.976 40.8609 20.888V13.8H42.2049V20.872C42.2049 21.864 42.0182 22.68 41.6449 23.32C41.2715 23.96 40.7702 24.4347 40.1409 24.744C39.5115 25.0427 38.8075 25.192 38.0289 25.192ZM47.1049 25V14.904H43.7609V13.8H51.7929V14.904H48.4489V25H47.1049Z" fill="#111010"/>
<path d="M1.184 105V93.8H4.864C5.73867 93.8 6.45867 93.944 7.024 94.232C7.58933 94.52 8.00533 94.9093 8.272 95.4C8.54933 95.8907 8.688 96.4453 8.688 97.064C8.688 97.672 8.55467 98.2213 8.288 98.712C8.02133 99.2027 7.60533 99.5973 7.04 99.896C6.47467 100.184 5.74933 100.328 4.864 100.328H2.528V105H1.184ZM2.528 99.192H4.832C5.728 99.192 6.36267 99.0053 6.736 98.632C7.12 98.248 7.312 97.7253 7.312 97.064C7.312 96.392 7.12 95.8693 6.736 95.496C6.36267 95.112 5.728 94.92 4.832 94.92H2.528V99.192ZM10.4496 105V93.8H14.0656C14.9403 93.8 15.655 93.944 16.2096 94.232C16.7643 94.52 17.175 94.9147 17.4416 95.416C17.7083 95.9173 17.8416 96.472 17.8416 97.08C17.8416 97.784 17.6496 98.4187 17.2656 98.984C16.8923 99.5493 16.3056 99.9493 15.5056 100.184L17.9536 105H16.3696L14.0976 100.376H14.0016H11.7936V105H10.4496ZM11.7936 99.32H13.9696C14.8336 99.32 15.463 99.112 15.8576 98.696C16.2523 98.28 16.4496 97.7467 16.4496 97.096C16.4496 96.4347 16.2523 95.912 15.8576 95.528C15.4736 95.1333 14.839 94.936 13.9536 94.936H11.7936V99.32ZM19.934 105V93.8H21.278V105H19.934ZM27.0288 105L22.8208 93.8H24.2768L27.8128 103.576L31.3808 93.8H32.8048L28.5968 105H27.0288ZM32.0894 105L36.2174 93.8H37.6414L41.7534 105H40.3294L39.3054 102.12H34.5374L33.4974 105H32.0894ZM34.9374 101.032H38.9054L36.9214 95.496L34.9374 101.032ZM47.6898 105.192C46.5911 105.192 45.6418 104.952 44.8418 104.472C44.0524 103.981 43.4391 103.304 43.0018 102.44C42.5644 101.565 42.3458 100.552 42.3458 99.4C42.3458 98.2587 42.5644 97.256 43.0018 96.392C43.4391 95.5173 44.0524 94.8347 44.8418 94.344C45.6418 93.8533 46.5911 93.608 47.6898 93.608C48.9698 93.608 50.0098 93.9173 50.8098 94.536C51.6204 95.144 52.1378 95.9973 52.3618 97.096H50.8738C50.7031 96.4027 50.3511 95.848 49.8177 95.432C49.2951 95.0053 48.5858 94.792 47.6898 94.792C46.8898 94.792 46.1911 94.9787 45.5938 95.352C44.9964 95.7147 44.5324 96.2427 44.2018 96.936C43.8818 97.6187 43.7218 98.44 43.7218 99.4C43.7218 100.36 43.8818 101.187 44.2018 101.88C44.5324 102.563 44.9964 103.091 45.5938 103.464C46.1911 103.827 46.8898 104.008 47.6898 104.008C48.5858 104.008 49.2951 103.805 49.8177 103.4C50.3511 102.984 50.7031 102.435 50.8738 101.752H52.3618C52.1378 102.829 51.6204 103.672 50.8098 104.28C50.0098 104.888 48.9698 105.192 47.6898 105.192ZM56.5774 105V100.744L52.9294 93.8H54.4494L57.2494 99.464L60.0494 93.8H61.5534L57.9214 100.744V105H56.5774ZM67.2934 105V93.8H70.9734C71.848 93.8 72.568 93.944 73.1334 94.232C73.6987 94.52 74.1147 94.9093 74.3814 95.4C74.6587 95.8907 74.7974 96.4453 74.7974 97.064C74.7974 97.672 74.664 98.2213 74.3974 98.712C74.1307 99.2027 73.7147 99.5973 73.1494 99.896C72.584 100.184 71.8587 100.328 70.9734 100.328H68.6374V105H67.2934ZM68.6374 99.192H70.9414C71.8374 99.192 72.472 99.0053 72.8454 98.632C73.2294 98.248 73.4214 97.7253 73.4214 97.064C73.4214 96.392 73.2294 95.8693 72.8454 95.496C72.472 95.112 71.8374 94.92 70.9414 94.92H68.6374V99.192ZM81.647 105.192C80.5483 105.192 79.583 104.952 78.751 104.472C77.9297 103.981 77.2843 103.299 76.815 102.424C76.3563 101.549 76.127 100.541 76.127 99.4C76.127 98.2587 76.3563 97.256 76.815 96.392C77.2843 95.5173 77.9297 94.8347 78.751 94.344C79.583 93.8533 80.5483 93.608 81.647 93.608C82.7563 93.608 83.7217 93.8533 84.543 94.344C85.375 94.8347 86.0203 95.5173 86.479 96.392C86.9377 97.256 87.167 98.2587 87.167 99.4C87.167 100.541 86.9377 101.549 86.479 102.424C86.0203 103.299 85.375 103.981 84.543 104.472C83.7217 104.952 82.7563 105.192 81.647 105.192ZM81.647 104.008C82.4683 104.008 83.1883 103.827 83.807 103.464C84.4363 103.091 84.9217 102.563 85.263 101.88C85.615 101.187 85.791 100.36 85.791 99.4C85.791 98.44 85.615 97.6187 85.263 96.936C84.9217 96.2533 84.4363 95.7307 83.807 95.368C83.1883 94.9947 82.4683 94.808 81.647 94.808C80.8257 94.808 80.1003 94.9947 79.471 95.368C78.8523 95.7307 78.367 96.2533 78.015 96.936C77.6737 97.6187 77.503 98.44 77.503 99.4C77.503 100.36 77.6737 101.187 78.015 101.88C78.367 102.563 78.8523 103.091 79.471 103.464C80.1003 103.827 80.8257 104.008 81.647 104.008ZM89.1059 105V93.8H90.4499V103.928H95.6659V105H89.1059ZM97.5121 105V93.8H98.8561V105H97.5121ZM106.143 105.192C105.044 105.192 104.095 104.952 103.295 104.472C102.506 103.981 101.892 103.304 101.455 102.44C101.018 101.565 100.799 100.552 100.799 99.4C100.799 98.2587 101.018 97.256 101.455 96.392C101.892 95.5173 102.506 94.8347 103.295 94.344C104.095 93.8533 105.044 93.608 106.143 93.608C107.423 93.608 108.463 93.9173 109.263 94.536C110.074 95.144 110.591 95.9973 110.815 97.096H109.327C109.156 96.4027 108.804 95.848 108.271 95.432C107.748 95.0053 107.039 94.792 106.143 94.792C105.343 94.792 104.644 94.9787 104.047 95.352C103.45 95.7147 102.986 96.2427 102.655 96.936C102.335 97.6187 102.175 98.44 102.175 99.4C102.175 100.36 102.335 101.187 102.655 101.88C102.986 102.563 103.45 103.091 104.047 103.464C104.644 103.827 105.343 104.008 106.143 104.008C107.039 104.008 107.748 103.805 108.271 103.4C108.804 102.984 109.156 102.435 109.327 101.752H110.815C110.591 102.829 110.074 103.672 109.263 104.28C108.463 104.888 107.423 105.192 106.143 105.192ZM115.031 105V100.744L111.383 93.8H112.903L115.703 99.464L118.503 93.8H120.007L116.375 100.744V105H115.031Z" fill="#111010"/>
</svg>
