<svg width="222" height="121" viewBox="0 0 222 121" fill="none" xmlns="http://www.w3.org/2000/svg">
<path d="M5.455 25.18C4.685 25.18 4.015 25.04 3.445 24.76C2.875 24.48 2.435 24.09 2.125 23.59C1.815 23.09 1.66 22.51 1.66 21.85H2.98C2.98 22.26 3.075 22.64 3.265 22.99C3.455 23.33 3.73 23.605 4.09 23.815C4.46 24.015 4.915 24.115 5.455 24.115C6.165 24.115 6.715 23.945 7.105 23.605C7.495 23.265 7.69 22.84 7.69 22.33C7.69 21.91 7.6 21.575 7.42 21.325C7.24 21.065 6.995 20.855 6.685 20.695C6.385 20.535 6.035 20.395 5.635 20.275C5.245 20.155 4.835 20.02 4.405 19.87C3.595 19.59 2.995 19.245 2.605 18.835C2.215 18.415 2.02 17.87 2.02 17.2C2.01 16.64 2.14 16.145 2.41 15.715C2.68 15.275 3.06 14.935 3.55 14.695C4.05 14.445 4.64 14.32 5.32 14.32C5.99 14.32 6.57 14.445 7.06 14.695C7.56 14.945 7.945 15.29 8.215 15.73C8.495 16.17 8.64 16.67 8.65 17.23H7.33C7.33 16.94 7.255 16.655 7.105 16.375C6.955 16.085 6.725 15.85 6.415 15.67C6.115 15.49 5.735 15.4 5.275 15.4C4.705 15.39 4.235 15.535 3.865 15.835C3.505 16.135 3.325 16.55 3.325 17.08C3.325 17.53 3.45 17.875 3.7 18.115C3.96 18.355 4.32 18.555 4.78 18.715C5.24 18.865 5.77 19.04 6.37 19.24C6.87 19.42 7.32 19.63 7.72 19.87C8.12 20.11 8.43 20.42 8.65 20.8C8.88 21.18 8.995 21.665 8.995 22.255C8.995 22.755 8.865 23.23 8.605 23.68C8.345 24.12 7.95 24.48 7.42 24.76C6.9 25.04 6.245 25.18 5.455 25.18ZM12.9929 25V15.535H9.85785V14.5H17.3879V15.535H14.2529V25H12.9929ZM21.5364 25V21.01L18.1164 14.5H19.5414L22.1664 19.81L24.7914 14.5H26.2014L22.7964 21.01V25H21.5364ZM27.6129 25V14.5H28.8729V23.995H33.7629V25H27.6129ZM35.4938 25V14.5H41.9888V15.535H36.7538V19.195H41.5388V20.215H36.7538V23.965H41.9888V25H35.4938ZM52.4453 25.18C51.4653 25.18 50.6053 24.955 49.8653 24.505C49.1253 24.045 48.5503 23.41 48.1403 22.6C47.7303 21.78 47.5253 20.835 47.5253 19.765C47.5253 18.695 47.7303 17.75 48.1403 16.93C48.5603 16.11 49.1503 15.47 49.9103 15.01C50.6803 14.55 51.5853 14.32 52.6253 14.32C53.8053 14.32 54.7853 14.605 55.5653 15.175C56.3553 15.745 56.8653 16.53 57.0953 17.53H55.6403C55.5003 16.9 55.1653 16.4 54.6353 16.03C54.1153 15.66 53.4453 15.475 52.6253 15.475C51.8553 15.475 51.1853 15.65 50.6153 16C50.0453 16.34 49.6003 16.83 49.2803 17.47C48.9703 18.11 48.8153 18.875 48.8153 19.765C48.8153 20.655 48.9703 21.42 49.2803 22.06C49.5903 22.7 50.0203 23.195 50.5703 23.545C51.1203 23.885 51.7603 24.055 52.4903 24.055C53.6103 24.055 54.4553 23.73 55.0253 23.08C55.5953 22.42 55.9203 21.52 56.0003 20.38H52.9703V19.39H57.2903V25H56.1353L56.0303 23.275C55.6503 23.885 55.1853 24.355 54.6353 24.685C54.0853 25.015 53.3553 25.18 52.4453 25.18ZM63.0779 25.18C62.3579 25.18 61.7029 25.04 61.1129 24.76C60.5329 24.47 60.0679 24.025 59.7179 23.425C59.3679 22.825 59.1929 22.06 59.1929 21.13V14.5H60.4529V21.145C60.4529 22.165 60.6979 22.905 61.1879 23.365C61.6779 23.825 62.3179 24.055 63.1079 24.055C63.8979 24.055 64.5329 23.825 65.0129 23.365C65.4929 22.905 65.7329 22.165 65.7329 21.145V14.5H66.9929V21.13C66.9929 22.06 66.8179 22.825 66.4679 23.425C66.1179 24.025 65.6479 24.47 65.0579 24.76C64.4679 25.04 63.8079 25.18 63.0779 25.18ZM69.1266 25V14.5H70.3866V25H69.1266ZM72.6129 25V14.5H75.8379C77.6879 14.5 79.0479 14.97 79.9179 15.91C80.7979 16.85 81.2379 18.14 81.2379 19.78C81.2379 21.39 80.7979 22.665 79.9179 23.605C79.0479 24.535 77.6879 25 75.8379 25H72.6129ZM73.8729 23.95H75.8079C76.8279 23.95 77.6379 23.785 78.2379 23.455C78.8479 23.115 79.2829 22.635 79.5429 22.015C79.8029 21.385 79.9329 20.64 79.9329 19.78C79.9329 18.9 79.8029 18.145 79.5429 17.515C79.2829 16.885 78.8479 16.4 78.2379 16.06C77.6379 15.72 76.8279 15.55 75.8079 15.55H73.8729V23.95ZM83.0573 25V14.5H89.5523V15.535H84.3173V19.195H89.1023V20.215H84.3173V23.965H89.5523V25H83.0573Z" fill="#111010"/>
<path d="M7.096 105.192C5.99733 105.192 5.048 104.952 4.248 104.472C3.45867 103.981 2.84533 103.304 2.408 102.44C1.97067 101.565 1.752 100.552 1.752 99.4C1.752 98.2587 1.97067 97.256 2.408 96.392C2.84533 95.5173 3.45867 94.8347 4.248 94.344C5.048 93.8533 5.99733 93.608 7.096 93.608C8.376 93.608 9.416 93.9173 10.216 94.536C11.0267 95.144 11.544 95.9973 11.768 97.096H10.28C10.1093 96.4027 9.75733 95.848 9.224 95.432C8.70133 95.0053 7.992 94.792 7.096 94.792C6.296 94.792 5.59733 94.9787 5 95.352C4.40267 95.7147 3.93867 96.2427 3.608 96.936C3.288 97.6187 3.128 98.44 3.128 99.4C3.128 100.36 3.288 101.187 3.608 101.88C3.93867 102.563 4.40267 103.091 5 103.464C5.59733 103.827 6.296 104.008 7.096 104.008C7.992 104.008 8.70133 103.805 9.224 103.4C9.75733 102.984 10.1093 102.435 10.28 101.752H11.768C11.544 102.829 11.0267 103.672 10.216 104.28C9.416 104.888 8.376 105.192 7.096 105.192ZM13.6996 105V93.8H15.0436V98.744H20.8516V93.8H22.1956V105H20.8516V99.848H15.0436V105H13.6996ZM23.855 105L27.983 93.8H29.407L33.519 105H32.095L31.071 102.12H26.303L25.263 105H23.855ZM26.703 101.032H30.671L28.687 95.496L26.703 101.032ZM35.184 105V93.8H36.528L42.496 102.776V93.8H43.84V105H42.496L36.528 96.024V105H35.184ZM51.0313 105.192C49.9859 105.192 49.0686 104.952 48.2793 104.472C47.4899 103.981 46.8766 103.304 46.4393 102.44C46.0019 101.565 45.7833 100.557 45.7833 99.416C45.7833 98.2747 46.0019 97.2667 46.4393 96.392C46.8873 95.5173 47.5166 94.8347 48.3273 94.344C49.1486 93.8533 50.1139 93.608 51.2233 93.608C52.4819 93.608 53.5272 93.912 54.3593 94.52C55.2019 95.128 55.7459 95.9653 55.9913 97.032H54.4392C54.2899 96.36 53.9326 95.8267 53.3673 95.432C52.8126 95.0373 52.0979 94.84 51.2233 94.84C50.4019 94.84 49.6873 95.0267 49.0793 95.4C48.4713 95.7627 47.9966 96.2853 47.6553 96.968C47.3246 97.6507 47.1593 98.4667 47.1593 99.416C47.1593 100.365 47.3246 101.181 47.6553 101.864C47.9859 102.547 48.4446 103.075 49.0312 103.448C49.6179 103.811 50.3006 103.992 51.0793 103.992C52.2739 103.992 53.1753 103.645 53.7833 102.952C54.3913 102.248 54.7379 101.288 54.8233 100.072H51.5913V99.016H56.1993V105H54.9673L54.8553 103.16C54.4499 103.811 53.9539 104.312 53.3673 104.664C52.7806 105.016 52.0019 105.192 51.0313 105.192ZM58.3246 105V93.8H65.2526V94.904H59.6686V98.808H64.7726V99.896H59.6686V103.896H65.2526V105H58.3246ZM67.3559 105V93.8H68.6999V103.928H73.9159V105H67.3559ZM79.8033 105.192C78.7046 105.192 77.7393 104.952 76.9073 104.472C76.0859 103.981 75.4406 103.299 74.9713 102.424C74.5126 101.549 74.2833 100.541 74.2833 99.4C74.2833 98.2587 74.5126 97.256 74.9713 96.392C75.4406 95.5173 76.0859 94.8347 76.9073 94.344C77.7393 93.8533 78.7046 93.608 79.8033 93.608C80.9126 93.608 81.8779 93.8533 82.6993 94.344C83.5313 94.8347 84.1766 95.5173 84.6353 96.392C85.0939 97.256 85.3233 98.2587 85.3233 99.4C85.3233 100.541 85.0939 101.549 84.6353 102.424C84.1766 103.299 83.5313 103.981 82.6993 104.472C81.8779 104.952 80.9126 105.192 79.8033 105.192ZM79.8033 104.008C80.6246 104.008 81.3446 103.827 81.9633 103.464C82.5926 103.091 83.0779 102.563 83.4193 101.88C83.7713 101.187 83.9473 100.36 83.9473 99.4C83.9473 98.44 83.7713 97.6187 83.4193 96.936C83.0779 96.2533 82.5926 95.7307 81.9633 95.368C81.3446 94.9947 80.6246 94.808 79.8033 94.808C78.9819 94.808 78.2566 94.9947 77.6273 95.368C77.0086 95.7307 76.5233 96.2533 76.1713 96.936C75.8299 97.6187 75.6593 98.44 75.6593 99.4C75.6593 100.36 75.8299 101.187 76.1713 101.88C76.5233 102.563 77.0086 103.091 77.6273 103.464C78.2566 103.827 78.9819 104.008 79.8033 104.008ZM92.0781 105.192C91.0328 105.192 90.1155 104.952 89.3261 104.472C88.5368 103.981 87.9235 103.304 87.4861 102.44C87.0488 101.565 86.8301 100.557 86.8301 99.416C86.8301 98.2747 87.0488 97.2667 87.4861 96.392C87.9341 95.5173 88.5635 94.8347 89.3741 94.344C90.1955 93.8533 91.1608 93.608 92.2701 93.608C93.5288 93.608 94.5741 93.912 95.4061 94.52C96.2488 95.128 96.7928 95.9653 97.0381 97.032H95.4861C95.3368 96.36 94.9795 95.8267 94.4141 95.432C93.8595 95.0373 93.1448 94.84 92.2701 94.84C91.4488 94.84 90.7341 95.0267 90.1261 95.4C89.5181 95.7627 89.0435 96.2853 88.7021 96.968C88.3715 97.6507 88.2061 98.4667 88.2061 99.416C88.2061 100.365 88.3715 101.181 88.7021 101.864C89.0328 102.547 89.4915 103.075 90.0781 103.448C90.6648 103.811 91.3475 103.992 92.1261 103.992C93.3208 103.992 94.2221 103.645 94.8301 102.952C95.4381 102.248 95.7848 101.288 95.8701 100.072H92.6381V99.016H97.2461V105H96.0141L95.9021 103.16C95.4968 103.811 95.0008 104.312 94.4141 104.664C93.8275 105.016 93.0488 105.192 92.0781 105.192Z" fill="#111010"/>
<path d="M2.184 65V53.8H3.528V63.928H8.744V65H2.184ZM10.5903 65V53.8H11.9343V65H10.5903ZM19.221 65.192C18.1223 65.192 17.173 64.952 16.373 64.472C15.5837 63.9813 14.9703 63.304 14.533 62.44C14.0957 61.5653 13.877 60.552 13.877 59.4C13.877 58.2587 14.0957 57.256 14.533 56.392C14.9703 55.5173 15.5837 54.8347 16.373 54.344C17.173 53.8533 18.1223 53.608 19.221 53.608C20.501 53.608 21.541 53.9173 22.341 54.536C23.1517 55.144 23.669 55.9973 23.893 57.096H22.405C22.2343 56.4027 21.8823 55.848 21.349 55.432C20.8263 55.0053 20.117 54.792 19.221 54.792C18.421 54.792 17.7223 54.9787 17.125 55.352C16.5277 55.7147 16.0637 56.2427 15.733 56.936C15.413 57.6187 15.253 58.44 15.253 59.4C15.253 60.36 15.413 61.1867 15.733 61.88C16.0637 62.5627 16.5277 63.0907 17.125 63.464C17.7223 63.8267 18.421 64.008 19.221 64.008C20.117 64.008 20.8263 63.8053 21.349 63.4C21.8823 62.984 22.2343 62.4347 22.405 61.752H23.893C23.669 62.8293 23.1517 63.672 22.341 64.28C21.541 64.888 20.501 65.192 19.221 65.192ZM25.8246 65V53.8H32.7526V54.904H27.1686V58.808H32.2726V59.896H27.1686V63.896H32.7526V65H25.8246ZM34.8559 65V53.8H36.1999L42.1679 62.776V53.8H43.5119V65H42.1679L36.1999 56.024V65H34.8559ZM49.4551 65.192C48.6338 65.192 47.9191 65.0427 47.3111 64.744C46.7031 64.4453 46.2338 64.0293 45.9031 63.496C45.5725 62.9627 45.4071 62.344 45.4071 61.64H46.8151C46.8151 62.0773 46.9165 62.4827 47.1191 62.856C47.3218 63.2187 47.6151 63.512 47.9991 63.736C48.3938 63.9493 48.8791 64.056 49.4551 64.056C50.2125 64.056 50.7991 63.8747 51.2151 63.512C51.6311 63.1493 51.8391 62.696 51.8391 62.152C51.8391 61.704 51.7431 61.3467 51.5511 61.08C51.3591 60.8027 51.0978 60.5787 50.7671 60.408C50.4471 60.2373 50.0738 60.088 49.6471 59.96C49.2311 59.832 48.7938 59.688 48.3351 59.528C47.4711 59.2293 46.8311 58.8613 46.4151 58.424C45.9991 57.976 45.7911 57.3947 45.7911 56.68C45.7805 56.0827 45.9191 55.5547 46.2071 55.096C46.4951 54.6267 46.9005 54.264 47.4231 54.008C47.9565 53.7413 48.5858 53.608 49.3111 53.608C50.0258 53.608 50.6445 53.7413 51.1671 54.008C51.7005 54.2747 52.1111 54.6427 52.3991 55.112C52.6978 55.5813 52.8525 56.1147 52.8631 56.712H51.4551C51.4551 56.4027 51.3751 56.0987 51.2151 55.8C51.0551 55.4907 50.8098 55.24 50.4791 55.048C50.1591 54.856 49.7538 54.76 49.2631 54.76C48.6551 54.7493 48.1538 54.904 47.7591 55.224C47.3751 55.544 47.1831 55.9867 47.1831 56.552C47.1831 57.032 47.3165 57.4 47.5831 57.656C47.8605 57.912 48.2445 58.1253 48.7351 58.296C49.2258 58.456 49.7911 58.6427 50.4311 58.856C50.9645 59.048 51.4445 59.272 51.8711 59.528C52.2978 59.784 52.6285 60.1147 52.8631 60.52C53.1085 60.9253 53.2311 61.4427 53.2311 62.072C53.2311 62.6053 53.0925 63.112 52.8151 63.592C52.5378 64.0613 52.1165 64.4453 51.5511 64.744C50.9965 65.0427 50.2978 65.192 49.4551 65.192ZM55.1371 65V53.8H56.4811V65H55.1371ZM58.8559 65V53.8H60.1999L66.1679 62.776V53.8H67.5119V65H66.1679L60.1999 56.024V65H58.8559ZM74.7031 65.192C73.6578 65.192 72.7405 64.952 71.9511 64.472C71.1618 63.9813 70.5485 63.304 70.1111 62.44C69.6738 61.5653 69.4551 60.5573 69.4551 59.416C69.4551 58.2747 69.6738 57.2667 70.1111 56.392C70.5591 55.5173 71.1885 54.8347 71.9991 54.344C72.8205 53.8533 73.7858 53.608 74.8951 53.608C76.1538 53.608 77.1991 53.912 78.0311 54.52C78.8738 55.128 79.4178 55.9653 79.6631 57.032H78.1111C77.9618 56.36 77.6045 55.8267 77.0391 55.432C76.4845 55.0373 75.7698 54.84 74.8951 54.84C74.0738 54.84 73.3591 55.0267 72.7511 55.4C72.1431 55.7627 71.6685 56.2853 71.3271 56.968C70.9965 57.6507 70.8311 58.4667 70.8311 59.416C70.8311 60.3653 70.9965 61.1813 71.3271 61.864C71.6578 62.5467 72.1165 63.0747 72.7031 63.448C73.2898 63.8107 73.9725 63.992 74.7511 63.992C75.9458 63.992 76.8471 63.6453 77.4551 62.952C78.0631 62.248 78.4098 61.288 78.4951 60.072H75.2631V59.016H79.8711V65H78.6391L78.5271 63.16C78.1218 63.8107 77.6258 64.312 77.0391 64.664C76.4525 65.016 75.6738 65.192 74.7031 65.192Z" fill="#111010"/>
</svg>
