<svg width="1376" height="465" viewBox="0 0 1376 465" fill="none" xmlns="http://www.w3.org/2000/svg">
<rect x="688" y="0.28125" width="1" height="464" fill="#111010"/>
<path d="M842.5 290C842.5 279.23 851.23 270.5 862 270.5H1126C1136.77 270.5 1145.5 279.23 1145.5 290V314C1145.5 324.77 1136.77 333.5 1126 333.5H862C851.23 333.5 842.5 324.77 842.5 314V290Z" fill="white" stroke="#111010"/>
<path d="M1110.5 302C1110.5 281.842 1126.84 265.5 1147 265.5H1185C1205.16 265.5 1221.5 281.842 1221.5 302C1221.5 322.158 1205.16 338.5 1185 338.5H1147C1126.84 338.5 1110.5 322.158 1110.5 302Z" fill="#FFDB5B" stroke="#111010"/>
<path d="M876.069 308V295.4H883.863V296.642H877.581V301.034H883.323V302.258H877.581V306.758H883.863V308H876.069ZM886.139 308V299.072H887.507L887.597 300.674C887.885 300.11 888.299 299.666 888.839 299.342C889.379 299.018 889.991 298.856 890.675 298.856C891.731 298.856 892.571 299.18 893.195 299.828C893.831 300.464 894.149 301.448 894.149 302.78V308H892.637V302.942C892.637 301.082 891.869 300.152 890.333 300.152C889.565 300.152 888.923 300.434 888.407 300.998C887.903 301.55 887.651 302.342 887.651 303.374V308H886.139ZM899.968 308C899.152 308 898.51 307.802 898.042 307.406C897.574 307.01 897.34 306.296 897.34 305.264V300.35H895.792V299.072H897.34L897.538 296.93H898.852V299.072H901.48V300.35H898.852V305.264C898.852 305.828 898.966 306.212 899.194 306.416C899.422 306.608 899.824 306.704 900.4 306.704H901.336V308H899.968ZM907.169 308.216C906.317 308.216 905.561 308.024 904.901 307.64C904.241 307.244 903.719 306.698 903.335 306.002C902.963 305.306 902.777 304.484 902.777 303.536C902.777 302.6 902.963 301.784 903.335 301.088C903.707 300.38 904.223 299.834 904.883 299.45C905.555 299.054 906.329 298.856 907.205 298.856C908.069 298.856 908.813 299.054 909.437 299.45C910.073 299.834 910.559 300.344 910.895 300.98C911.231 301.616 911.399 302.3 911.399 303.032C911.399 303.164 911.393 303.296 911.381 303.428C911.381 303.56 911.381 303.71 911.381 303.878H904.271C904.307 304.562 904.463 305.132 904.739 305.588C905.027 306.032 905.381 306.368 905.801 306.596C906.233 306.824 906.689 306.938 907.169 306.938C907.793 306.938 908.315 306.794 908.735 306.506C909.155 306.218 909.461 305.828 909.653 305.336H911.147C910.907 306.164 910.445 306.854 909.761 307.406C909.089 307.946 908.225 308.216 907.169 308.216ZM907.169 300.134C906.449 300.134 905.807 300.356 905.243 300.8C904.691 301.232 904.373 301.868 904.289 302.708H909.905C909.869 301.904 909.593 301.274 909.077 300.818C908.561 300.362 907.925 300.134 907.169 300.134ZM913.403 308V299.072H914.771L914.897 300.782C915.173 300.194 915.593 299.726 916.157 299.378C916.721 299.03 917.417 298.856 918.245 298.856V300.44H917.831C917.303 300.44 916.817 300.536 916.373 300.728C915.929 300.908 915.575 301.22 915.311 301.664C915.047 302.108 914.915 302.72 914.915 303.5V308H913.403ZM925.678 311.96L927.892 307.136H927.37L923.824 299.072H925.462L928.414 306.02L931.546 299.072H933.112L927.262 311.96H925.678ZM937.932 308.216C937.092 308.216 936.336 308.024 935.664 307.64C934.992 307.256 934.458 306.716 934.062 306.02C933.678 305.312 933.486 304.484 933.486 303.536C933.486 302.588 933.684 301.766 934.08 301.07C934.476 300.362 935.01 299.816 935.682 299.432C936.366 299.048 937.128 298.856 937.968 298.856C938.808 298.856 939.564 299.048 940.236 299.432C940.908 299.816 941.436 300.362 941.82 301.07C942.216 301.766 942.414 302.588 942.414 303.536C942.414 304.484 942.216 305.312 941.82 306.02C941.424 306.716 940.884 307.256 940.2 307.64C939.528 308.024 938.772 308.216 937.932 308.216ZM937.932 306.92C938.448 306.92 938.928 306.794 939.372 306.542C939.816 306.29 940.176 305.912 940.452 305.408C940.728 304.904 940.866 304.28 940.866 303.536C940.866 302.792 940.728 302.168 940.452 301.664C940.188 301.16 939.834 300.782 939.39 300.53C938.946 300.278 938.472 300.152 937.968 300.152C937.452 300.152 936.972 300.278 936.528 300.53C936.084 300.782 935.724 301.16 935.448 301.664C935.172 302.168 935.034 302.792 935.034 303.536C935.034 304.28 935.172 304.904 935.448 305.408C935.724 305.912 936.078 306.29 936.51 306.542C936.954 306.794 937.428 306.92 937.932 306.92ZM947.774 308.216C946.718 308.216 945.878 307.898 945.254 307.262C944.63 306.614 944.318 305.624 944.318 304.292V299.072H945.83V304.13C945.83 305.99 946.592 306.92 948.116 306.92C948.896 306.92 949.538 306.644 950.042 306.092C950.558 305.528 950.816 304.73 950.816 303.698V299.072H952.328V308H950.96L950.852 306.398C950.576 306.962 950.162 307.406 949.61 307.73C949.07 308.054 948.458 308.216 947.774 308.216ZM954.817 308V299.072H956.185L956.311 300.782C956.587 300.194 957.007 299.726 957.571 299.378C958.135 299.03 958.831 298.856 959.659 298.856V300.44H959.245C958.717 300.44 958.231 300.536 957.787 300.728C957.343 300.908 956.989 301.22 956.725 301.664C956.461 302.108 956.329 302.72 956.329 303.5V308H954.817ZM970.134 308.216C969.282 308.216 968.526 308.024 967.866 307.64C967.206 307.244 966.684 306.698 966.3 306.002C965.928 305.306 965.742 304.484 965.742 303.536C965.742 302.6 965.928 301.784 966.3 301.088C966.672 300.38 967.188 299.834 967.848 299.45C968.52 299.054 969.294 298.856 970.17 298.856C971.034 298.856 971.778 299.054 972.402 299.45C973.038 299.834 973.524 300.344 973.86 300.98C974.196 301.616 974.364 302.3 974.364 303.032C974.364 303.164 974.358 303.296 974.346 303.428C974.346 303.56 974.346 303.71 974.346 303.878H967.236C967.272 304.562 967.428 305.132 967.704 305.588C967.992 306.032 968.346 306.368 968.766 306.596C969.198 306.824 969.654 306.938 970.134 306.938C970.758 306.938 971.28 306.794 971.7 306.506C972.12 306.218 972.426 305.828 972.618 305.336H974.112C973.872 306.164 973.41 306.854 972.726 307.406C972.054 307.946 971.19 308.216 970.134 308.216ZM970.134 300.134C969.414 300.134 968.772 300.356 968.208 300.8C967.656 301.232 967.338 301.868 967.254 302.708H972.87C972.834 301.904 972.558 301.274 972.042 300.818C971.526 300.362 970.89 300.134 970.134 300.134ZM976.368 308V299.072H977.736L977.844 300.368C978.132 299.888 978.516 299.516 978.996 299.252C979.476 298.988 980.016 298.856 980.616 298.856C981.324 298.856 981.93 299 982.434 299.288C982.95 299.576 983.346 300.014 983.622 300.602C983.934 300.062 984.36 299.636 984.9 299.324C985.452 299.012 986.046 298.856 986.682 298.856C987.75 298.856 988.602 299.18 989.238 299.828C989.874 300.464 990.192 301.448 990.192 302.78V308H988.698V302.942C988.698 302.018 988.512 301.322 988.14 300.854C987.768 300.386 987.234 300.152 986.538 300.152C985.818 300.152 985.218 300.434 984.738 300.998C984.27 301.55 984.036 302.342 984.036 303.374V308H982.524V302.942C982.524 302.018 982.338 301.322 981.966 300.854C981.594 300.386 981.06 300.152 980.364 300.152C979.656 300.152 979.062 300.434 978.582 300.998C978.114 301.55 977.88 302.342 977.88 303.374V308H976.368ZM995.44 308.216C994.696 308.216 994.078 308.09 993.586 307.838C993.094 307.586 992.728 307.25 992.488 306.83C992.248 306.41 992.128 305.954 992.128 305.462C992.128 304.55 992.476 303.848 993.172 303.356C993.868 302.864 994.816 302.618 996.016 302.618H998.428V302.51C998.428 301.73 998.224 301.142 997.816 300.746C997.408 300.338 996.862 300.134 996.178 300.134C995.59 300.134 995.08 300.284 994.648 300.584C994.228 300.872 993.964 301.298 993.856 301.862H992.308C992.368 301.214 992.584 300.668 992.956 300.224C993.34 299.78 993.814 299.444 994.378 299.216C994.942 298.976 995.542 298.856 996.178 298.856C997.426 298.856 998.362 299.192 998.986 299.864C999.622 300.524 999.94 301.406 999.94 302.51V308H998.59L998.5 306.398C998.248 306.902 997.876 307.334 997.384 307.694C996.904 308.042 996.256 308.216 995.44 308.216ZM995.674 306.938C996.25 306.938 996.742 306.788 997.15 306.488C997.57 306.188 997.888 305.798 998.104 305.318C998.32 304.838 998.428 304.334 998.428 303.806V303.788H996.142C995.254 303.788 994.624 303.944 994.252 304.256C993.892 304.556 993.712 304.934 993.712 305.39C993.712 305.858 993.88 306.236 994.216 306.524C994.564 306.8 995.05 306.938 995.674 306.938ZM1003.13 297.092C1002.83 297.092 1002.57 296.996 1002.37 296.804C1002.18 296.6 1002.08 296.348 1002.08 296.048C1002.08 295.76 1002.18 295.52 1002.37 295.328C1002.57 295.136 1002.83 295.04 1003.13 295.04C1003.41 295.04 1003.66 295.136 1003.86 295.328C1004.07 295.52 1004.17 295.76 1004.17 296.048C1004.17 296.348 1004.07 296.6 1003.86 296.804C1003.66 296.996 1003.41 297.092 1003.13 297.092ZM1002.37 308V299.072H1003.88V308H1002.37ZM1006.51 308V295.04H1008.03V308H1006.51Z" fill="black"/>
<path d="M1149.72 308.216C1148.79 308.216 1147.99 308.048 1147.31 307.712C1146.62 307.376 1146.09 306.908 1145.72 306.308C1145.35 305.708 1145.16 305.012 1145.16 304.22H1146.75C1146.75 304.712 1146.86 305.168 1147.09 305.588C1147.32 305.996 1147.65 306.326 1148.08 306.578C1148.52 306.818 1149.07 306.938 1149.72 306.938C1150.57 306.938 1151.23 306.734 1151.7 306.326C1152.17 305.918 1152.4 305.408 1152.4 304.796C1152.4 304.292 1152.29 303.89 1152.08 303.59C1151.86 303.278 1151.57 303.026 1151.19 302.834C1150.83 302.642 1150.41 302.474 1149.93 302.33C1149.47 302.186 1148.97 302.024 1148.46 301.844C1147.49 301.508 1146.77 301.094 1146.3 300.602C1145.83 300.098 1145.6 299.444 1145.6 298.64C1145.58 297.968 1145.74 297.374 1146.06 296.858C1146.39 296.33 1146.84 295.922 1147.43 295.634C1148.03 295.334 1148.74 295.184 1149.56 295.184C1150.36 295.184 1151.06 295.334 1151.64 295.634C1152.24 295.934 1152.71 296.348 1153.03 296.876C1153.37 297.404 1153.54 298.004 1153.55 298.676H1151.97C1151.97 298.328 1151.88 297.986 1151.7 297.65C1151.52 297.302 1151.24 297.02 1150.87 296.804C1150.51 296.588 1150.05 296.48 1149.5 296.48C1148.82 296.468 1148.25 296.642 1147.81 297.002C1147.38 297.362 1147.16 297.86 1147.16 298.496C1147.16 299.036 1147.31 299.45 1147.61 299.738C1147.92 300.026 1148.36 300.266 1148.91 300.458C1149.46 300.638 1150.1 300.848 1150.82 301.088C1151.42 301.304 1151.96 301.556 1152.44 301.844C1152.92 302.132 1153.29 302.504 1153.55 302.96C1153.83 303.416 1153.97 303.998 1153.97 304.706C1153.97 305.306 1153.81 305.876 1153.5 306.416C1153.19 306.944 1152.71 307.376 1152.08 307.712C1151.45 308.048 1150.67 308.216 1149.72 308.216ZM1160.03 308.216C1159.18 308.216 1158.43 308.024 1157.77 307.64C1157.11 307.244 1156.58 306.698 1156.2 306.002C1155.83 305.306 1155.64 304.484 1155.64 303.536C1155.64 302.6 1155.83 301.784 1156.2 301.088C1156.57 300.38 1157.09 299.834 1157.75 299.45C1158.42 299.054 1159.19 298.856 1160.07 298.856C1160.93 298.856 1161.68 299.054 1162.3 299.45C1162.94 299.834 1163.42 300.344 1163.76 300.98C1164.1 301.616 1164.26 302.3 1164.26 303.032C1164.26 303.164 1164.26 303.296 1164.25 303.428C1164.25 303.56 1164.25 303.71 1164.25 303.878H1157.14C1157.17 304.562 1157.33 305.132 1157.6 305.588C1157.89 306.032 1158.25 306.368 1158.67 306.596C1159.1 306.824 1159.55 306.938 1160.03 306.938C1160.66 306.938 1161.18 306.794 1161.6 306.506C1162.02 306.218 1162.33 305.828 1162.52 305.336H1164.01C1163.77 306.164 1163.31 306.854 1162.63 307.406C1161.95 307.946 1161.09 308.216 1160.03 308.216ZM1160.03 300.134C1159.31 300.134 1158.67 300.356 1158.11 300.8C1157.56 301.232 1157.24 301.868 1157.15 302.708H1162.77C1162.73 301.904 1162.46 301.274 1161.94 300.818C1161.43 300.362 1160.79 300.134 1160.03 300.134ZM1166.27 308V299.072H1167.64L1167.73 300.674C1168.01 300.11 1168.43 299.666 1168.97 299.342C1169.51 299.018 1170.12 298.856 1170.8 298.856C1171.86 298.856 1172.7 299.18 1173.32 299.828C1173.96 300.464 1174.28 301.448 1174.28 302.78V308H1172.77V302.942C1172.77 301.082 1172 300.152 1170.46 300.152C1169.69 300.152 1169.05 300.434 1168.54 300.998C1168.03 301.55 1167.78 302.342 1167.78 303.374V308H1166.27ZM1180.62 308.216C1179.73 308.216 1178.95 308.012 1178.28 307.604C1177.62 307.196 1177.1 306.638 1176.73 305.93C1176.37 305.222 1176.19 304.418 1176.19 303.518C1176.19 302.618 1176.38 301.82 1176.75 301.124C1177.12 300.416 1177.64 299.864 1178.3 299.468C1178.96 299.06 1179.74 298.856 1180.64 298.856C1181.37 298.856 1182.02 299.006 1182.58 299.306C1183.14 299.606 1183.58 300.026 1183.89 300.566V295.04H1185.41V308H1184.04L1183.89 306.524C1183.61 306.956 1183.19 307.346 1182.65 307.694C1182.11 308.042 1181.43 308.216 1180.62 308.216ZM1180.78 306.902C1181.38 306.902 1181.91 306.764 1182.36 306.488C1182.83 306.2 1183.19 305.804 1183.44 305.3C1183.71 304.796 1183.84 304.208 1183.84 303.536C1183.84 302.864 1183.71 302.276 1183.44 301.772C1183.19 301.268 1182.83 300.878 1182.36 300.602C1181.91 300.314 1181.38 300.17 1180.78 300.17C1180.19 300.17 1179.66 300.314 1179.2 300.602C1178.74 300.878 1178.38 301.268 1178.12 301.772C1177.86 302.276 1177.74 302.864 1177.74 303.536C1177.74 304.208 1177.86 304.796 1178.12 305.3C1178.38 305.804 1178.74 306.2 1179.2 306.488C1179.66 306.764 1180.19 306.902 1180.78 306.902Z" fill="black"/>
<path d="M865.068 148V114.4H869.1V129.616L883.116 114.4H888.204L875.724 127.792L888.396 148H883.5L872.844 130.912L869.1 134.896V148H865.068ZM893.005 148V114.4H913.789V117.712H897.037V129.424H912.349V132.688H897.037V144.688H913.789V148H893.005ZM920.099 148V114.4H940.883V117.712H924.131V129.424H939.443V132.688H924.131V144.688H940.883V148H920.099ZM947.193 148V114.4H958.233C960.857 114.4 963.017 114.832 964.713 115.696C966.409 116.56 967.657 117.728 968.457 119.2C969.289 120.672 969.705 122.336 969.705 124.192C969.705 126.016 969.305 127.664 968.505 129.136C967.705 130.608 966.457 131.792 964.761 132.688C963.065 133.552 960.889 133.984 958.233 133.984H951.225V148H947.193ZM951.225 130.576H958.137C960.825 130.576 962.729 130.016 963.849 128.896C965.001 127.744 965.577 126.176 965.577 124.192C965.577 122.176 965.001 120.608 963.849 119.488C962.729 118.336 960.825 117.76 958.137 117.76H951.225V130.576ZM987.693 148V114.4H991.725V148H987.693ZM998.849 148V114.4H1002.88L1020.78 141.328V114.4H1024.82V148H1020.78L1002.88 121.072V148H998.849ZM1052.52 148V117.712H1042.49V114.4H1066.58V117.712H1056.55V148H1052.52ZM1085.03 148.576C1081.74 148.576 1078.84 147.856 1076.35 146.416C1073.88 144.944 1071.95 142.896 1070.54 140.272C1069.16 137.648 1068.47 134.624 1068.47 131.2C1068.47 127.776 1069.16 124.768 1070.54 122.176C1071.95 119.552 1073.88 117.504 1076.35 116.032C1078.84 114.56 1081.74 113.824 1085.03 113.824C1088.36 113.824 1091.26 114.56 1093.72 116.032C1096.22 117.504 1098.15 119.552 1099.53 122.176C1100.91 124.768 1101.59 127.776 1101.59 131.2C1101.59 134.624 1100.91 137.648 1099.53 140.272C1098.15 142.896 1096.22 144.944 1093.72 146.416C1091.26 147.856 1088.36 148.576 1085.03 148.576ZM1085.03 145.024C1087.5 145.024 1089.66 144.48 1091.51 143.392C1093.4 142.272 1094.86 140.688 1095.88 138.64C1096.94 136.56 1097.47 134.08 1097.47 131.2C1097.47 128.32 1096.94 125.856 1095.88 123.808C1094.86 121.76 1093.4 120.192 1091.51 119.104C1089.66 117.984 1087.5 117.424 1085.03 117.424C1082.57 117.424 1080.39 117.984 1078.51 119.104C1076.65 120.192 1075.19 121.76 1074.14 123.808C1073.11 125.856 1072.6 128.32 1072.6 131.2C1072.6 134.08 1073.11 136.56 1074.14 138.64C1075.19 140.688 1076.65 142.272 1078.51 143.392C1080.39 144.48 1082.57 145.024 1085.03 145.024ZM1119.56 148.576C1117.25 148.576 1115.16 148.128 1113.27 147.232C1111.41 146.304 1109.92 144.88 1108.8 142.96C1107.68 141.04 1107.12 138.592 1107.12 135.616V114.4H1111.16V135.664C1111.16 138.928 1111.94 141.296 1113.51 142.768C1115.08 144.24 1117.12 144.976 1119.65 144.976C1122.18 144.976 1124.21 144.24 1125.75 142.768C1127.28 141.296 1128.05 138.928 1128.05 135.664V114.4H1132.08V135.616C1132.08 138.592 1131.52 141.04 1130.4 142.96C1129.28 144.88 1127.78 146.304 1125.89 147.232C1124 148.128 1121.89 148.576 1119.56 148.576ZM1153.65 148.576C1150.35 148.576 1147.5 147.856 1145.1 146.416C1142.74 144.944 1140.9 142.912 1139.58 140.32C1138.27 137.696 1137.62 134.656 1137.62 131.2C1137.62 127.776 1138.27 124.768 1139.58 122.176C1140.9 119.552 1142.74 117.504 1145.1 116.032C1147.5 114.56 1150.35 113.824 1153.65 113.824C1157.49 113.824 1160.61 114.752 1163.01 116.608C1165.44 118.432 1166.99 120.992 1167.66 124.288H1163.2C1162.69 122.208 1161.63 120.544 1160.03 119.296C1158.46 118.016 1156.34 117.376 1153.65 117.376C1151.25 117.376 1149.15 117.936 1147.36 119.056C1145.57 120.144 1144.18 121.728 1143.18 123.808C1142.22 125.856 1141.74 128.32 1141.74 131.2C1141.74 134.08 1142.22 136.56 1143.18 138.64C1144.18 140.688 1145.57 142.272 1147.36 143.392C1149.15 144.48 1151.25 145.024 1153.65 145.024C1156.34 145.024 1158.46 144.416 1160.03 143.2C1161.63 141.952 1162.69 140.304 1163.2 138.256H1167.66C1166.99 141.488 1165.44 144.016 1163.01 145.84C1160.61 147.664 1157.49 148.576 1153.65 148.576ZM1173.46 148V114.4H1177.49V129.232H1194.91V114.4H1198.95V148H1194.91V132.544H1177.49V148H1173.46Z" fill="#111010"/>
<path d="M917.018 202V189.4H918.53V200.794H924.398V202H917.018ZM930.066 202.216C929.226 202.216 928.47 202.024 927.798 201.64C927.126 201.256 926.592 200.716 926.196 200.02C925.812 199.312 925.62 198.484 925.62 197.536C925.62 196.588 925.818 195.766 926.214 195.07C926.61 194.362 927.144 193.816 927.816 193.432C928.5 193.048 929.262 192.856 930.102 192.856C930.942 192.856 931.698 193.048 932.37 193.432C933.042 193.816 933.57 194.362 933.954 195.07C934.35 195.766 934.548 196.588 934.548 197.536C934.548 198.484 934.35 199.312 933.954 200.02C933.558 200.716 933.018 201.256 932.334 201.64C931.662 202.024 930.906 202.216 930.066 202.216ZM930.066 200.92C930.582 200.92 931.062 200.794 931.506 200.542C931.95 200.29 932.31 199.912 932.586 199.408C932.862 198.904 933 198.28 933 197.536C933 196.792 932.862 196.168 932.586 195.664C932.322 195.16 931.968 194.782 931.524 194.53C931.08 194.278 930.606 194.152 930.102 194.152C929.586 194.152 929.106 194.278 928.662 194.53C928.218 194.782 927.858 195.16 927.582 195.664C927.306 196.168 927.168 196.792 927.168 197.536C927.168 198.28 927.306 198.904 927.582 199.408C927.858 199.912 928.212 200.29 928.644 200.542C929.088 200.794 929.562 200.92 930.066 200.92ZM936.65 202V193.072H938.018L938.144 194.782C938.42 194.194 938.84 193.726 939.404 193.378C939.968 193.03 940.664 192.856 941.492 192.856V194.44H941.078C940.55 194.44 940.064 194.536 939.62 194.728C939.176 194.908 938.822 195.22 938.558 195.664C938.294 196.108 938.162 196.72 938.162 197.5V202H936.65ZM946.869 202.216C946.017 202.216 945.261 202.024 944.601 201.64C943.941 201.244 943.419 200.698 943.035 200.002C942.663 199.306 942.477 198.484 942.477 197.536C942.477 196.6 942.663 195.784 943.035 195.088C943.407 194.38 943.923 193.834 944.583 193.45C945.255 193.054 946.029 192.856 946.905 192.856C947.769 192.856 948.513 193.054 949.137 193.45C949.773 193.834 950.259 194.344 950.595 194.98C950.931 195.616 951.099 196.3 951.099 197.032C951.099 197.164 951.093 197.296 951.081 197.428C951.081 197.56 951.081 197.71 951.081 197.878H943.971C944.007 198.562 944.163 199.132 944.439 199.588C944.727 200.032 945.081 200.368 945.501 200.596C945.933 200.824 946.389 200.938 946.869 200.938C947.493 200.938 948.015 200.794 948.435 200.506C948.855 200.218 949.161 199.828 949.353 199.336H950.847C950.607 200.164 950.145 200.854 949.461 201.406C948.789 201.946 947.925 202.216 946.869 202.216ZM946.869 194.134C946.149 194.134 945.507 194.356 944.943 194.8C944.391 195.232 944.073 195.868 943.989 196.708H949.605C949.569 195.904 949.293 195.274 948.777 194.818C948.261 194.362 947.625 194.134 946.869 194.134ZM953.103 202V193.072H954.471L954.579 194.368C954.867 193.888 955.251 193.516 955.731 193.252C956.211 192.988 956.751 192.856 957.351 192.856C958.059 192.856 958.665 193 959.169 193.288C959.685 193.576 960.081 194.014 960.357 194.602C960.669 194.062 961.095 193.636 961.635 193.324C962.187 193.012 962.781 192.856 963.417 192.856C964.485 192.856 965.337 193.18 965.973 193.828C966.609 194.464 966.927 195.448 966.927 196.78V202H965.433V196.942C965.433 196.018 965.247 195.322 964.875 194.854C964.503 194.386 963.969 194.152 963.273 194.152C962.553 194.152 961.953 194.434 961.473 194.998C961.005 195.55 960.771 196.342 960.771 197.374V202H959.259V196.942C959.259 196.018 959.073 195.322 958.701 194.854C958.329 194.386 957.795 194.152 957.099 194.152C956.391 194.152 955.797 194.434 955.317 194.998C954.849 195.55 954.615 196.342 954.615 197.374V202H953.103ZM974.887 191.092C974.587 191.092 974.335 190.996 974.131 190.804C973.939 190.6 973.843 190.348 973.843 190.048C973.843 189.76 973.939 189.52 974.131 189.328C974.335 189.136 974.587 189.04 974.887 189.04C975.175 189.04 975.421 189.136 975.625 189.328C975.829 189.52 975.931 189.76 975.931 190.048C975.931 190.348 975.829 190.6 975.625 190.804C975.421 190.996 975.175 191.092 974.887 191.092ZM974.131 202V193.072H975.643V202H974.131ZM978.275 205.96V193.072H979.643L979.787 194.548C980.075 194.116 980.483 193.726 981.011 193.378C981.551 193.03 982.235 192.856 983.063 192.856C983.951 192.856 984.725 193.06 985.385 193.468C986.045 193.876 986.555 194.434 986.915 195.142C987.287 195.85 987.473 196.654 987.473 197.554C987.473 198.454 987.287 199.258 986.915 199.966C986.555 200.662 986.039 201.214 985.367 201.622C984.707 202.018 983.933 202.216 983.045 202.216C982.313 202.216 981.659 202.066 981.083 201.766C980.519 201.466 980.087 201.046 979.787 200.506V205.96H978.275ZM982.883 200.902C983.483 200.902 984.011 200.764 984.467 200.488C984.923 200.2 985.283 199.804 985.547 199.3C985.811 198.796 985.943 198.208 985.943 197.536C985.943 196.864 985.811 196.276 985.547 195.772C985.283 195.268 984.923 194.878 984.467 194.602C984.011 194.314 983.483 194.17 982.883 194.17C982.283 194.17 981.755 194.314 981.299 194.602C980.843 194.878 980.483 195.268 980.219 195.772C979.955 196.276 979.823 196.864 979.823 197.536C979.823 198.208 979.955 198.796 980.219 199.3C980.483 199.804 980.843 200.2 981.299 200.488C981.755 200.764 982.283 200.902 982.883 200.902ZM992.998 202.216C991.93 202.216 991.042 201.946 990.334 201.406C989.626 200.866 989.212 200.134 989.092 199.21H990.64C990.736 199.678 990.982 200.086 991.378 200.434C991.786 200.77 992.332 200.938 993.016 200.938C993.652 200.938 994.12 200.806 994.42 200.542C994.72 200.266 994.87 199.942 994.87 199.57C994.87 199.03 994.672 198.67 994.276 198.49C993.892 198.31 993.346 198.148 992.638 198.004C992.158 197.908 991.678 197.77 991.198 197.59C990.718 197.41 990.316 197.158 989.992 196.834C989.668 196.498 989.506 196.06 989.506 195.52C989.506 194.74 989.794 194.104 990.37 193.612C990.958 193.108 991.75 192.856 992.746 192.856C993.694 192.856 994.468 193.096 995.068 193.576C995.68 194.044 996.034 194.716 996.13 195.592H994.636C994.576 195.136 994.378 194.782 994.042 194.53C993.718 194.266 993.28 194.134 992.728 194.134C992.188 194.134 991.768 194.248 991.468 194.476C991.18 194.704 991.036 195.004 991.036 195.376C991.036 195.736 991.222 196.018 991.594 196.222C991.978 196.426 992.494 196.6 993.142 196.744C993.694 196.864 994.216 197.014 994.708 197.194C995.212 197.362 995.62 197.62 995.932 197.968C996.256 198.304 996.418 198.796 996.418 199.444C996.43 200.248 996.124 200.914 995.5 201.442C994.888 201.958 994.054 202.216 992.998 202.216ZM1001.84 202.216C1000.78 202.216 999.94 201.898 999.316 201.262C998.692 200.614 998.38 199.624 998.38 198.292V193.072H999.892V198.13C999.892 199.99 1000.65 200.92 1002.18 200.92C1002.96 200.92 1003.6 200.644 1004.1 200.092C1004.62 199.528 1004.88 198.73 1004.88 197.698V193.072H1006.39V202H1005.02L1004.91 200.398C1004.64 200.962 1004.22 201.406 1003.67 201.73C1003.13 202.054 1002.52 202.216 1001.84 202.216ZM1008.88 202V193.072H1010.25L1010.35 194.368C1010.64 193.888 1011.03 193.516 1011.51 193.252C1011.99 192.988 1012.53 192.856 1013.13 192.856C1013.83 192.856 1014.44 193 1014.94 193.288C1015.46 193.576 1015.86 194.014 1016.13 194.602C1016.44 194.062 1016.87 193.636 1017.41 193.324C1017.96 193.012 1018.56 192.856 1019.19 192.856C1020.26 192.856 1021.11 193.18 1021.75 193.828C1022.38 194.464 1022.7 195.448 1022.7 196.78V202H1021.21V196.942C1021.21 196.018 1021.02 195.322 1020.65 194.854C1020.28 194.386 1019.74 194.152 1019.05 194.152C1018.33 194.152 1017.73 194.434 1017.25 194.998C1016.78 195.55 1016.55 196.342 1016.55 197.374V202H1015.03V196.942C1015.03 196.018 1014.85 195.322 1014.48 194.854C1014.1 194.386 1013.57 194.152 1012.87 194.152C1012.17 194.152 1011.57 194.434 1011.09 194.998C1010.62 195.55 1010.39 196.342 1010.39 197.374V202H1008.88ZM1033.79 202.216C1032.91 202.216 1032.13 202.012 1031.45 201.604C1030.79 201.196 1030.28 200.638 1029.91 199.93C1029.55 199.222 1029.37 198.418 1029.37 197.518C1029.37 196.618 1029.55 195.82 1029.92 195.124C1030.3 194.416 1030.81 193.864 1031.47 193.468C1032.13 193.06 1032.91 192.856 1033.81 192.856C1034.54 192.856 1035.19 193.006 1035.76 193.306C1036.32 193.606 1036.76 194.026 1037.07 194.566V189.04H1038.58V202H1037.21L1037.07 200.524C1036.78 200.956 1036.37 201.346 1035.83 201.694C1035.29 202.042 1034.61 202.216 1033.79 202.216ZM1033.96 200.902C1034.56 200.902 1035.08 200.764 1035.54 200.488C1036.01 200.2 1036.37 199.804 1036.62 199.3C1036.88 198.796 1037.02 198.208 1037.02 197.536C1037.02 196.864 1036.88 196.276 1036.62 195.772C1036.37 195.268 1036.01 194.878 1035.54 194.602C1035.08 194.314 1034.56 194.17 1033.96 194.17C1033.37 194.17 1032.84 194.314 1032.37 194.602C1031.92 194.878 1031.56 195.268 1031.29 195.772C1031.04 196.276 1030.91 196.864 1030.91 197.536C1030.91 198.208 1031.04 198.796 1031.29 199.3C1031.56 199.804 1031.92 200.2 1032.37 200.488C1032.84 200.764 1033.37 200.902 1033.96 200.902ZM1045.11 202.216C1044.27 202.216 1043.52 202.024 1042.85 201.64C1042.17 201.256 1041.64 200.716 1041.24 200.02C1040.86 199.312 1040.67 198.484 1040.67 197.536C1040.67 196.588 1040.87 195.766 1041.26 195.07C1041.66 194.362 1042.19 193.816 1042.86 193.432C1043.55 193.048 1044.31 192.856 1045.15 192.856C1045.99 192.856 1046.75 193.048 1047.42 193.432C1048.09 193.816 1048.62 194.362 1049 195.07C1049.4 195.766 1049.6 196.588 1049.6 197.536C1049.6 198.484 1049.4 199.312 1049 200.02C1048.61 200.716 1048.07 201.256 1047.38 201.64C1046.71 202.024 1045.95 202.216 1045.11 202.216ZM1045.11 200.92C1045.63 200.92 1046.11 200.794 1046.55 200.542C1047 200.29 1047.36 199.912 1047.63 199.408C1047.91 198.904 1048.05 198.28 1048.05 197.536C1048.05 196.792 1047.91 196.168 1047.63 195.664C1047.37 195.16 1047.02 194.782 1046.57 194.53C1046.13 194.278 1045.65 194.152 1045.15 194.152C1044.63 194.152 1044.15 194.278 1043.71 194.53C1043.27 194.782 1042.91 195.16 1042.63 195.664C1042.35 196.168 1042.22 196.792 1042.22 197.536C1042.22 198.28 1042.35 198.904 1042.63 199.408C1042.91 199.912 1043.26 200.29 1043.69 200.542C1044.14 200.794 1044.61 200.92 1045.11 200.92ZM1051.7 202V189.04H1053.21V202H1051.7ZM1059.76 202.216C1058.92 202.216 1058.16 202.024 1057.49 201.64C1056.82 201.256 1056.28 200.716 1055.89 200.02C1055.5 199.312 1055.31 198.484 1055.31 197.536C1055.31 196.588 1055.51 195.766 1055.91 195.07C1056.3 194.362 1056.84 193.816 1057.51 193.432C1058.19 193.048 1058.95 192.856 1059.79 192.856C1060.63 192.856 1061.39 193.048 1062.06 193.432C1062.73 193.816 1063.26 194.362 1063.65 195.07C1064.04 195.766 1064.24 196.588 1064.24 197.536C1064.24 198.484 1064.04 199.312 1063.65 200.02C1063.25 200.716 1062.71 201.256 1062.03 201.64C1061.35 202.024 1060.6 202.216 1059.76 202.216ZM1059.76 200.92C1060.27 200.92 1060.75 200.794 1061.2 200.542C1061.64 200.29 1062 199.912 1062.28 199.408C1062.55 198.904 1062.69 198.28 1062.69 197.536C1062.69 196.792 1062.55 196.168 1062.28 195.664C1062.01 195.16 1061.66 194.782 1061.22 194.53C1060.77 194.278 1060.3 194.152 1059.79 194.152C1059.28 194.152 1058.8 194.278 1058.35 194.53C1057.91 194.782 1057.55 195.16 1057.27 195.664C1057 196.168 1056.86 196.792 1056.86 197.536C1056.86 198.28 1057 198.904 1057.27 199.408C1057.55 199.912 1057.9 200.29 1058.34 200.542C1058.78 200.794 1059.25 200.92 1059.76 200.92ZM1066.34 202V193.072H1067.71L1067.84 194.782C1068.11 194.194 1068.53 193.726 1069.1 193.378C1069.66 193.03 1070.36 192.856 1071.18 192.856V194.44H1070.77C1070.24 194.44 1069.76 194.536 1069.31 194.728C1068.87 194.908 1068.51 195.22 1068.25 195.664C1067.99 196.108 1067.85 196.72 1067.85 197.5V202H1066.34ZM1081.06 202.216C1080 202.216 1079.11 201.946 1078.4 201.406C1077.69 200.866 1077.28 200.134 1077.16 199.21H1078.71C1078.8 199.678 1079.05 200.086 1079.44 200.434C1079.85 200.77 1080.4 200.938 1081.08 200.938C1081.72 200.938 1082.19 200.806 1082.49 200.542C1082.79 200.266 1082.94 199.942 1082.94 199.57C1082.94 199.03 1082.74 198.67 1082.34 198.49C1081.96 198.31 1081.41 198.148 1080.7 198.004C1080.22 197.908 1079.74 197.77 1079.26 197.59C1078.78 197.41 1078.38 197.158 1078.06 196.834C1077.73 196.498 1077.57 196.06 1077.57 195.52C1077.57 194.74 1077.86 194.104 1078.44 193.612C1079.02 193.108 1079.82 192.856 1080.81 192.856C1081.76 192.856 1082.53 193.096 1083.13 193.576C1083.75 194.044 1084.1 194.716 1084.2 195.592H1082.7C1082.64 195.136 1082.44 194.782 1082.11 194.53C1081.78 194.266 1081.35 194.134 1080.79 194.134C1080.25 194.134 1079.83 194.248 1079.53 194.476C1079.25 194.704 1079.1 195.004 1079.1 195.376C1079.1 195.736 1079.29 196.018 1079.66 196.222C1080.04 196.426 1080.56 196.6 1081.21 196.744C1081.76 196.864 1082.28 197.014 1082.77 197.194C1083.28 197.362 1083.69 197.62 1084 197.968C1084.32 198.304 1084.48 198.796 1084.48 199.444C1084.5 200.248 1084.19 200.914 1083.57 201.442C1082.95 201.958 1082.12 202.216 1081.06 202.216ZM1087.56 191.092C1087.26 191.092 1087.01 190.996 1086.81 190.804C1086.61 190.6 1086.52 190.348 1086.52 190.048C1086.52 189.76 1086.61 189.52 1086.81 189.328C1087.01 189.136 1087.26 189.04 1087.56 189.04C1087.85 189.04 1088.1 189.136 1088.3 189.328C1088.5 189.52 1088.61 189.76 1088.61 190.048C1088.61 190.348 1088.5 190.6 1088.3 190.804C1088.1 190.996 1087.85 191.092 1087.56 191.092ZM1086.81 202V193.072H1088.32V202H1086.81ZM1094.48 202C1093.66 202 1093.02 201.802 1092.55 201.406C1092.08 201.01 1091.85 200.296 1091.85 199.264V194.35H1090.3V193.072H1091.85L1092.05 190.93H1093.36V193.072H1095.99V194.35H1093.36V199.264C1093.36 199.828 1093.48 200.212 1093.7 200.416C1093.93 200.608 1094.33 200.704 1094.91 200.704H1095.85V202H1094.48ZM1105.65 202.216C1104.9 202.216 1104.28 202.09 1103.79 201.838C1103.3 201.586 1102.93 201.25 1102.69 200.83C1102.45 200.41 1102.33 199.954 1102.33 199.462C1102.33 198.55 1102.68 197.848 1103.38 197.356C1104.07 196.864 1105.02 196.618 1106.22 196.618H1108.63V196.51C1108.63 195.73 1108.43 195.142 1108.02 194.746C1107.61 194.338 1107.07 194.134 1106.38 194.134C1105.8 194.134 1105.29 194.284 1104.85 194.584C1104.43 194.872 1104.17 195.298 1104.06 195.862H1102.51C1102.57 195.214 1102.79 194.668 1103.16 194.224C1103.55 193.78 1104.02 193.444 1104.58 193.216C1105.15 192.976 1105.75 192.856 1106.38 192.856C1107.63 192.856 1108.57 193.192 1109.19 193.864C1109.83 194.524 1110.15 195.406 1110.15 196.51V202H1108.8L1108.71 200.398C1108.45 200.902 1108.08 201.334 1107.59 201.694C1107.11 202.042 1106.46 202.216 1105.65 202.216ZM1105.88 200.938C1106.46 200.938 1106.95 200.788 1107.36 200.488C1107.78 200.188 1108.09 199.798 1108.31 199.318C1108.53 198.838 1108.63 198.334 1108.63 197.806V197.788H1106.35C1105.46 197.788 1104.83 197.944 1104.46 198.256C1104.1 198.556 1103.92 198.934 1103.92 199.39C1103.92 199.858 1104.09 200.236 1104.42 200.524C1104.77 200.8 1105.26 200.938 1105.88 200.938ZM1112.41 202V193.072H1113.78L1113.89 194.368C1114.18 193.888 1114.56 193.516 1115.04 193.252C1115.52 192.988 1116.06 192.856 1116.66 192.856C1117.37 192.856 1117.98 193 1118.48 193.288C1119 193.576 1119.39 194.014 1119.67 194.602C1119.98 194.062 1120.41 193.636 1120.95 193.324C1121.5 193.012 1122.09 192.856 1122.73 192.856C1123.8 192.856 1124.65 193.18 1125.28 193.828C1125.92 194.464 1126.24 195.448 1126.24 196.78V202H1124.74V196.942C1124.74 196.018 1124.56 195.322 1124.19 194.854C1123.81 194.386 1123.28 194.152 1122.58 194.152C1121.86 194.152 1121.26 194.434 1120.78 194.998C1120.32 195.55 1120.08 196.342 1120.08 197.374V202H1118.57V196.942C1118.57 196.018 1118.38 195.322 1118.01 194.854C1117.64 194.386 1117.11 194.152 1116.41 194.152C1115.7 194.152 1115.11 194.434 1114.63 194.998C1114.16 195.55 1113.93 196.342 1113.93 197.374V202H1112.41ZM1132.53 202.216C1131.68 202.216 1130.92 202.024 1130.26 201.64C1129.6 201.244 1129.08 200.698 1128.7 200.002C1128.32 199.306 1128.14 198.484 1128.14 197.536C1128.14 196.6 1128.32 195.784 1128.7 195.088C1129.07 194.38 1129.58 193.834 1130.24 193.45C1130.92 193.054 1131.69 192.856 1132.57 192.856C1133.43 192.856 1134.17 193.054 1134.8 193.45C1135.43 193.834 1135.92 194.344 1136.26 194.98C1136.59 195.616 1136.76 196.3 1136.76 197.032C1136.76 197.164 1136.75 197.296 1136.74 197.428C1136.74 197.56 1136.74 197.71 1136.74 197.878H1129.63C1129.67 198.562 1129.82 199.132 1130.1 199.588C1130.39 200.032 1130.74 200.368 1131.16 200.596C1131.59 200.824 1132.05 200.938 1132.53 200.938C1133.15 200.938 1133.68 200.794 1134.1 200.506C1134.52 200.218 1134.82 199.828 1135.01 199.336H1136.51C1136.27 200.164 1135.81 200.854 1135.12 201.406C1134.45 201.946 1133.59 202.216 1132.53 202.216ZM1132.53 194.134C1131.81 194.134 1131.17 194.356 1130.6 194.8C1130.05 195.232 1129.73 195.868 1129.65 196.708H1135.27C1135.23 195.904 1134.95 195.274 1134.44 194.818C1133.92 194.362 1133.29 194.134 1132.53 194.134ZM1141.99 202C1141.18 202 1140.53 201.802 1140.07 201.406C1139.6 201.01 1139.36 200.296 1139.36 199.264V194.35H1137.82V193.072H1139.36L1139.56 190.93H1140.88V193.072H1143.5V194.35H1140.88V199.264C1140.88 199.828 1140.99 200.212 1141.22 200.416C1141.45 200.608 1141.85 200.704 1142.42 200.704H1143.36V202H1141.99ZM1145.15 204.142L1146.2 200.164H1147.76L1146.2 204.142H1145.15ZM925.215 227.216C924.363 227.216 923.595 227.024 922.911 226.64C922.239 226.244 921.705 225.698 921.309 225.002C920.925 224.294 920.733 223.472 920.733 222.536C920.733 221.6 920.925 220.784 921.309 220.088C921.705 219.38 922.239 218.834 922.911 218.45C923.595 218.054 924.363 217.856 925.215 217.856C926.271 217.856 927.159 218.132 927.879 218.684C928.611 219.236 929.073 219.974 929.265 220.898H927.717C927.597 220.346 927.303 219.92 926.835 219.62C926.367 219.308 925.821 219.152 925.197 219.152C924.693 219.152 924.219 219.278 923.775 219.53C923.331 219.782 922.971 220.16 922.695 220.664C922.419 221.168 922.281 221.792 922.281 222.536C922.281 223.28 922.419 223.904 922.695 224.408C922.971 224.912 923.331 225.296 923.775 225.56C924.219 225.812 924.693 225.938 925.197 225.938C925.821 225.938 926.367 225.788 926.835 225.488C927.303 225.176 927.597 224.738 927.717 224.174H929.265C929.085 225.074 928.629 225.806 927.897 226.37C927.165 226.934 926.271 227.216 925.215 227.216ZM935.445 227.216C934.605 227.216 933.849 227.024 933.177 226.64C932.505 226.256 931.971 225.716 931.575 225.02C931.191 224.312 930.999 223.484 930.999 222.536C930.999 221.588 931.197 220.766 931.593 220.07C931.989 219.362 932.523 218.816 933.195 218.432C933.879 218.048 934.641 217.856 935.481 217.856C936.321 217.856 937.077 218.048 937.749 218.432C938.421 218.816 938.949 219.362 939.333 220.07C939.729 220.766 939.927 221.588 939.927 222.536C939.927 223.484 939.729 224.312 939.333 225.02C938.937 225.716 938.397 226.256 937.713 226.64C937.041 227.024 936.285 227.216 935.445 227.216ZM935.445 225.92C935.961 225.92 936.441 225.794 936.885 225.542C937.329 225.29 937.689 224.912 937.965 224.408C938.241 223.904 938.379 223.28 938.379 222.536C938.379 221.792 938.241 221.168 937.965 220.664C937.701 220.16 937.347 219.782 936.903 219.53C936.459 219.278 935.985 219.152 935.481 219.152C934.965 219.152 934.485 219.278 934.041 219.53C933.597 219.782 933.237 220.16 932.961 220.664C932.685 221.168 932.547 221.792 932.547 222.536C932.547 223.28 932.685 223.904 932.961 224.408C933.237 224.912 933.591 225.29 934.023 225.542C934.467 225.794 934.941 225.92 935.445 225.92ZM942.029 227V218.072H943.397L943.487 219.674C943.775 219.11 944.189 218.666 944.729 218.342C945.269 218.018 945.881 217.856 946.565 217.856C947.621 217.856 948.461 218.18 949.085 218.828C949.721 219.464 950.039 220.448 950.039 221.78V227H948.527V221.942C948.527 220.082 947.759 219.152 946.223 219.152C945.455 219.152 944.813 219.434 944.297 219.998C943.793 220.55 943.541 221.342 943.541 222.374V227H942.029ZM955.75 227.216C954.682 227.216 953.794 226.946 953.086 226.406C952.378 225.866 951.964 225.134 951.844 224.21H953.392C953.488 224.678 953.734 225.086 954.13 225.434C954.538 225.77 955.084 225.938 955.768 225.938C956.404 225.938 956.872 225.806 957.172 225.542C957.472 225.266 957.622 224.942 957.622 224.57C957.622 224.03 957.424 223.67 957.028 223.49C956.644 223.31 956.098 223.148 955.39 223.004C954.91 222.908 954.43 222.77 953.95 222.59C953.47 222.41 953.068 222.158 952.744 221.834C952.42 221.498 952.258 221.06 952.258 220.52C952.258 219.74 952.546 219.104 953.122 218.612C953.71 218.108 954.502 217.856 955.498 217.856C956.446 217.856 957.22 218.096 957.82 218.576C958.432 219.044 958.786 219.716 958.882 220.592H957.388C957.328 220.136 957.13 219.782 956.794 219.53C956.47 219.266 956.032 219.134 955.48 219.134C954.94 219.134 954.52 219.248 954.22 219.476C953.932 219.704 953.788 220.004 953.788 220.376C953.788 220.736 953.974 221.018 954.346 221.222C954.73 221.426 955.246 221.6 955.894 221.744C956.446 221.864 956.968 222.014 957.46 222.194C957.964 222.362 958.372 222.62 958.684 222.968C959.008 223.304 959.17 223.796 959.17 224.444C959.182 225.248 958.876 225.914 958.252 226.442C957.64 226.958 956.806 227.216 955.75 227.216ZM965.344 227.216C964.492 227.216 963.736 227.024 963.076 226.64C962.416 226.244 961.894 225.698 961.51 225.002C961.138 224.306 960.952 223.484 960.952 222.536C960.952 221.6 961.138 220.784 961.51 220.088C961.882 219.38 962.398 218.834 963.058 218.45C963.73 218.054 964.504 217.856 965.38 217.856C966.244 217.856 966.988 218.054 967.612 218.45C968.248 218.834 968.734 219.344 969.07 219.98C969.406 220.616 969.574 221.3 969.574 222.032C969.574 222.164 969.568 222.296 969.556 222.428C969.556 222.56 969.556 222.71 969.556 222.878H962.446C962.482 223.562 962.638 224.132 962.914 224.588C963.202 225.032 963.556 225.368 963.976 225.596C964.408 225.824 964.864 225.938 965.344 225.938C965.968 225.938 966.49 225.794 966.91 225.506C967.33 225.218 967.636 224.828 967.828 224.336H969.322C969.082 225.164 968.62 225.854 967.936 226.406C967.264 226.946 966.4 227.216 965.344 227.216ZM965.344 219.134C964.624 219.134 963.982 219.356 963.418 219.8C962.866 220.232 962.548 220.868 962.464 221.708H968.08C968.044 220.904 967.768 220.274 967.252 219.818C966.736 219.362 966.1 219.134 965.344 219.134ZM975.682 227.216C974.83 227.216 974.062 227.024 973.378 226.64C972.706 226.244 972.172 225.698 971.776 225.002C971.392 224.294 971.2 223.472 971.2 222.536C971.2 221.6 971.392 220.784 971.776 220.088C972.172 219.38 972.706 218.834 973.378 218.45C974.062 218.054 974.83 217.856 975.682 217.856C976.738 217.856 977.626 218.132 978.346 218.684C979.078 219.236 979.54 219.974 979.732 220.898H978.184C978.064 220.346 977.77 219.92 977.302 219.62C976.834 219.308 976.288 219.152 975.664 219.152C975.16 219.152 974.686 219.278 974.242 219.53C973.798 219.782 973.438 220.16 973.162 220.664C972.886 221.168 972.748 221.792 972.748 222.536C972.748 223.28 972.886 223.904 973.162 224.408C973.438 224.912 973.798 225.296 974.242 225.56C974.686 225.812 975.16 225.938 975.664 225.938C976.288 225.938 976.834 225.788 977.302 225.488C977.77 225.176 978.064 224.738 978.184 224.174H979.732C979.552 225.074 979.096 225.806 978.364 226.37C977.632 226.934 976.738 227.216 975.682 227.216ZM985.125 227C984.309 227 983.667 226.802 983.199 226.406C982.731 226.01 982.497 225.296 982.497 224.264V219.35H980.949V218.072H982.497L982.695 215.93H984.009V218.072H986.637V219.35H984.009V224.264C984.009 224.828 984.123 225.212 984.351 225.416C984.579 225.608 984.981 225.704 985.557 225.704H986.493V227H985.125ZM992.326 227.216C991.474 227.216 990.718 227.024 990.058 226.64C989.398 226.244 988.876 225.698 988.492 225.002C988.12 224.306 987.934 223.484 987.934 222.536C987.934 221.6 988.12 220.784 988.492 220.088C988.864 219.38 989.38 218.834 990.04 218.45C990.712 218.054 991.486 217.856 992.362 217.856C993.226 217.856 993.97 218.054 994.594 218.45C995.23 218.834 995.716 219.344 996.052 219.98C996.388 220.616 996.556 221.3 996.556 222.032C996.556 222.164 996.55 222.296 996.538 222.428C996.538 222.56 996.538 222.71 996.538 222.878H989.428C989.464 223.562 989.62 224.132 989.896 224.588C990.184 225.032 990.538 225.368 990.958 225.596C991.39 225.824 991.846 225.938 992.326 225.938C992.95 225.938 993.472 225.794 993.892 225.506C994.312 225.218 994.618 224.828 994.81 224.336H996.304C996.064 225.164 995.602 225.854 994.918 226.406C994.246 226.946 993.382 227.216 992.326 227.216ZM992.326 219.134C991.606 219.134 990.964 219.356 990.4 219.8C989.848 220.232 989.53 220.868 989.446 221.708H995.062C995.026 220.904 994.75 220.274 994.234 219.818C993.718 219.362 993.082 219.134 992.326 219.134ZM1001.79 227C1000.97 227 1000.33 226.802 999.864 226.406C999.396 226.01 999.162 225.296 999.162 224.264V219.35H997.614V218.072H999.162L999.36 215.93H1000.67V218.072H1003.3V219.35H1000.67V224.264C1000.67 224.828 1000.79 225.212 1001.02 225.416C1001.24 225.608 1001.65 225.704 1002.22 225.704H1003.16V227H1001.79ZM1008.48 227.216C1007.42 227.216 1006.58 226.898 1005.96 226.262C1005.34 225.614 1005.02 224.624 1005.02 223.292V218.072H1006.54V223.13C1006.54 224.99 1007.3 225.92 1008.82 225.92C1009.6 225.92 1010.24 225.644 1010.75 225.092C1011.26 224.528 1011.52 223.73 1011.52 222.698V218.072H1013.03V227H1011.67L1011.56 225.398C1011.28 225.962 1010.87 226.406 1010.32 226.73C1009.78 227.054 1009.16 227.216 1008.48 227.216ZM1015.52 227V218.072H1016.89L1017.02 219.782C1017.29 219.194 1017.71 218.726 1018.28 218.378C1018.84 218.03 1019.54 217.856 1020.37 217.856V219.44H1019.95C1019.42 219.44 1018.94 219.536 1018.49 219.728C1018.05 219.908 1017.7 220.22 1017.43 220.664C1017.17 221.108 1017.04 221.72 1017.04 222.5V227H1015.52ZM1029.8 227.216C1029.05 227.216 1028.43 227.09 1027.94 226.838C1027.45 226.586 1027.08 226.25 1026.84 225.83C1026.6 225.41 1026.48 224.954 1026.48 224.462C1026.48 223.55 1026.83 222.848 1027.53 222.356C1028.22 221.864 1029.17 221.618 1030.37 221.618H1032.78V221.51C1032.78 220.73 1032.58 220.142 1032.17 219.746C1031.76 219.338 1031.22 219.134 1030.53 219.134C1029.95 219.134 1029.44 219.284 1029 219.584C1028.58 219.872 1028.32 220.298 1028.21 220.862H1026.66C1026.72 220.214 1026.94 219.668 1027.31 219.224C1027.7 218.78 1028.17 218.444 1028.73 218.216C1029.3 217.976 1029.9 217.856 1030.53 217.856C1031.78 217.856 1032.72 218.192 1033.34 218.864C1033.98 219.524 1034.3 220.406 1034.3 221.51V227H1032.95L1032.86 225.398C1032.6 225.902 1032.23 226.334 1031.74 226.694C1031.26 227.042 1030.61 227.216 1029.8 227.216ZM1030.03 225.938C1030.61 225.938 1031.1 225.788 1031.51 225.488C1031.93 225.188 1032.24 224.798 1032.46 224.318C1032.68 223.838 1032.78 223.334 1032.78 222.806V222.788H1030.5C1029.61 222.788 1028.98 222.944 1028.61 223.256C1028.25 223.556 1028.07 223.934 1028.07 224.39C1028.07 224.858 1028.24 225.236 1028.57 225.524C1028.92 225.8 1029.41 225.938 1030.03 225.938ZM1040.61 227.216C1039.73 227.216 1038.95 227.012 1038.27 226.604C1037.61 226.196 1037.1 225.638 1036.73 224.93C1036.37 224.222 1036.19 223.418 1036.19 222.518C1036.19 221.618 1036.37 220.82 1036.74 220.124C1037.12 219.416 1037.63 218.864 1038.29 218.468C1038.95 218.06 1039.73 217.856 1040.63 217.856C1041.36 217.856 1042.01 218.006 1042.58 218.306C1043.14 218.606 1043.58 219.026 1043.89 219.566V214.04H1045.4V227H1044.03L1043.89 225.524C1043.6 225.956 1043.19 226.346 1042.65 226.694C1042.11 227.042 1041.43 227.216 1040.61 227.216ZM1040.78 225.902C1041.38 225.902 1041.9 225.764 1042.36 225.488C1042.83 225.2 1043.19 224.804 1043.44 224.3C1043.7 223.796 1043.84 223.208 1043.84 222.536C1043.84 221.864 1043.7 221.276 1043.44 220.772C1043.19 220.268 1042.83 219.878 1042.36 219.602C1041.9 219.314 1041.38 219.17 1040.78 219.17C1040.19 219.17 1039.66 219.314 1039.19 219.602C1038.74 219.878 1038.38 220.268 1038.11 220.772C1037.86 221.276 1037.73 221.864 1037.73 222.536C1037.73 223.208 1037.86 223.796 1038.11 224.3C1038.38 224.804 1038.74 225.2 1039.19 225.488C1039.66 225.764 1040.19 225.902 1040.78 225.902ZM1048.79 216.092C1048.49 216.092 1048.23 215.996 1048.03 215.804C1047.84 215.6 1047.74 215.348 1047.74 215.048C1047.74 214.76 1047.84 214.52 1048.03 214.328C1048.23 214.136 1048.49 214.04 1048.79 214.04C1049.07 214.04 1049.32 214.136 1049.52 214.328C1049.73 214.52 1049.83 214.76 1049.83 215.048C1049.83 215.348 1049.73 215.6 1049.52 215.804C1049.32 215.996 1049.07 216.092 1048.79 216.092ZM1048.03 227V218.072H1049.54V227H1048.03ZM1052.17 230.96V218.072H1053.54L1053.69 219.548C1053.97 219.116 1054.38 218.726 1054.91 218.378C1055.45 218.03 1056.13 217.856 1056.96 217.856C1057.85 217.856 1058.62 218.06 1059.28 218.468C1059.94 218.876 1060.45 219.434 1060.81 220.142C1061.19 220.85 1061.37 221.654 1061.37 222.554C1061.37 223.454 1061.19 224.258 1060.81 224.966C1060.45 225.662 1059.94 226.214 1059.27 226.622C1058.61 227.018 1057.83 227.216 1056.94 227.216C1056.21 227.216 1055.56 227.066 1054.98 226.766C1054.42 226.466 1053.99 226.046 1053.69 225.506V230.96H1052.17ZM1056.78 225.902C1057.38 225.902 1057.91 225.764 1058.37 225.488C1058.82 225.2 1059.18 224.804 1059.45 224.3C1059.71 223.796 1059.84 223.208 1059.84 222.536C1059.84 221.864 1059.71 221.276 1059.45 220.772C1059.18 220.268 1058.82 219.878 1058.37 219.602C1057.91 219.314 1057.38 219.17 1056.78 219.17C1056.18 219.17 1055.65 219.314 1055.2 219.602C1054.74 219.878 1054.38 220.268 1054.12 220.772C1053.85 221.276 1053.72 221.864 1053.72 222.536C1053.72 223.208 1053.85 223.796 1054.12 224.3C1054.38 224.804 1054.74 225.2 1055.2 225.488C1055.65 225.764 1056.18 225.902 1056.78 225.902ZM1064.39 216.092C1064.09 216.092 1063.84 215.996 1063.64 215.804C1063.45 215.6 1063.35 215.348 1063.35 215.048C1063.35 214.76 1063.45 214.52 1063.64 214.328C1063.84 214.136 1064.09 214.04 1064.39 214.04C1064.68 214.04 1064.93 214.136 1065.13 214.328C1065.34 214.52 1065.44 214.76 1065.44 215.048C1065.44 215.348 1065.34 215.6 1065.13 215.804C1064.93 215.996 1064.68 216.092 1064.39 216.092ZM1063.64 227V218.072H1065.15V227H1063.64ZM1071.2 227.216C1070.14 227.216 1069.25 226.946 1068.54 226.406C1067.83 225.866 1067.42 225.134 1067.3 224.21H1068.85C1068.94 224.678 1069.19 225.086 1069.58 225.434C1069.99 225.77 1070.54 225.938 1071.22 225.938C1071.86 225.938 1072.33 225.806 1072.63 225.542C1072.93 225.266 1073.08 224.942 1073.08 224.57C1073.08 224.03 1072.88 223.67 1072.48 223.49C1072.1 223.31 1071.55 223.148 1070.84 223.004C1070.36 222.908 1069.88 222.77 1069.4 222.59C1068.92 222.41 1068.52 222.158 1068.2 221.834C1067.87 221.498 1067.71 221.06 1067.71 220.52C1067.71 219.74 1068 219.104 1068.58 218.612C1069.16 218.108 1069.96 217.856 1070.95 217.856C1071.9 217.856 1072.67 218.096 1073.27 218.576C1073.89 219.044 1074.24 219.716 1074.34 220.592H1072.84C1072.78 220.136 1072.58 219.782 1072.25 219.53C1071.92 219.266 1071.49 219.134 1070.93 219.134C1070.39 219.134 1069.97 219.248 1069.67 219.476C1069.39 219.704 1069.24 220.004 1069.24 220.376C1069.24 220.736 1069.43 221.018 1069.8 221.222C1070.18 221.426 1070.7 221.6 1071.35 221.744C1071.9 221.864 1072.42 222.014 1072.91 222.194C1073.42 222.362 1073.83 222.62 1074.14 222.968C1074.46 223.304 1074.62 223.796 1074.62 224.444C1074.64 225.248 1074.33 225.914 1073.71 226.442C1073.09 226.958 1072.26 227.216 1071.2 227.216ZM1080.89 227.216C1080.04 227.216 1079.27 227.024 1078.58 226.64C1077.91 226.244 1077.38 225.698 1076.98 225.002C1076.6 224.294 1076.41 223.472 1076.41 222.536C1076.41 221.6 1076.6 220.784 1076.98 220.088C1077.38 219.38 1077.91 218.834 1078.58 218.45C1079.27 218.054 1080.04 217.856 1080.89 217.856C1081.94 217.856 1082.83 218.132 1083.55 218.684C1084.28 219.236 1084.75 219.974 1084.94 220.898H1083.39C1083.27 220.346 1082.98 219.92 1082.51 219.62C1082.04 219.308 1081.49 219.152 1080.87 219.152C1080.37 219.152 1079.89 219.278 1079.45 219.53C1079 219.782 1078.64 220.16 1078.37 220.664C1078.09 221.168 1077.95 221.792 1077.95 222.536C1077.95 223.28 1078.09 223.904 1078.37 224.408C1078.64 224.912 1079 225.296 1079.45 225.56C1079.89 225.812 1080.37 225.938 1080.87 225.938C1081.49 225.938 1082.04 225.788 1082.51 225.488C1082.98 225.176 1083.27 224.738 1083.39 224.174H1084.94C1084.76 225.074 1084.3 225.806 1083.57 226.37C1082.84 226.934 1081.94 227.216 1080.89 227.216ZM1087.97 216.092C1087.67 216.092 1087.41 215.996 1087.21 215.804C1087.02 215.6 1086.92 215.348 1086.92 215.048C1086.92 214.76 1087.02 214.52 1087.21 214.328C1087.41 214.136 1087.67 214.04 1087.97 214.04C1088.25 214.04 1088.5 214.136 1088.7 214.328C1088.91 214.52 1089.01 214.76 1089.01 215.048C1089.01 215.348 1088.91 215.6 1088.7 215.804C1088.5 215.996 1088.25 216.092 1087.97 216.092ZM1087.21 227V218.072H1088.72V227H1087.21ZM1091.36 227V218.072H1092.72L1092.81 219.674C1093.1 219.11 1093.52 218.666 1094.06 218.342C1094.6 218.018 1095.21 217.856 1095.89 217.856C1096.95 217.856 1097.79 218.18 1098.41 218.828C1099.05 219.464 1099.37 220.448 1099.37 221.78V227H1097.85V221.942C1097.85 220.082 1097.09 219.152 1095.55 219.152C1094.78 219.152 1094.14 219.434 1093.62 219.998C1093.12 220.55 1092.87 221.342 1092.87 222.374V227H1091.36ZM1105.18 224.192C1104.68 224.192 1104.22 224.126 1103.8 223.994L1102.9 224.84C1103.03 224.936 1103.19 225.02 1103.38 225.092C1103.59 225.152 1103.88 225.212 1104.25 225.272C1104.62 225.32 1105.14 225.374 1105.81 225.434C1107.01 225.518 1107.87 225.794 1108.39 226.262C1108.9 226.73 1109.16 227.342 1109.16 228.098C1109.16 228.614 1109.02 229.106 1108.73 229.574C1108.45 230.042 1108.02 230.426 1107.43 230.726C1106.86 231.026 1106.11 231.176 1105.2 231.176C1104.4 231.176 1103.68 231.068 1103.06 230.852C1102.44 230.648 1101.95 230.33 1101.6 229.898C1101.25 229.478 1101.08 228.944 1101.08 228.296C1101.08 227.96 1101.17 227.594 1101.35 227.198C1101.53 226.814 1101.87 226.448 1102.36 226.1C1102.09 225.992 1101.87 225.878 1101.67 225.758C1101.49 225.626 1101.33 225.482 1101.17 225.326V224.912L1102.7 223.4C1101.99 222.8 1101.64 222.008 1101.64 221.024C1101.64 220.436 1101.78 219.902 1102.05 219.422C1102.33 218.942 1102.73 218.564 1103.26 218.288C1103.79 218 1104.43 217.856 1105.18 217.856C1105.7 217.856 1106.17 217.928 1106.59 218.072H1109.88V219.206L1108.21 219.278C1108.56 219.782 1108.73 220.364 1108.73 221.024C1108.73 221.612 1108.59 222.146 1108.3 222.626C1108.02 223.106 1107.62 223.49 1107.09 223.778C1106.58 224.054 1105.94 224.192 1105.18 224.192ZM1105.18 222.95C1105.82 222.95 1106.32 222.788 1106.7 222.464C1107.08 222.128 1107.27 221.648 1107.27 221.024C1107.27 220.412 1107.08 219.944 1106.7 219.62C1106.32 219.284 1105.82 219.116 1105.18 219.116C1104.54 219.116 1104.02 219.284 1103.64 219.62C1103.26 219.944 1103.08 220.412 1103.08 221.024C1103.08 221.648 1103.26 222.128 1103.64 222.464C1104.02 222.788 1104.54 222.95 1105.18 222.95ZM1102.56 228.152C1102.56 228.752 1102.81 229.196 1103.31 229.484C1103.82 229.784 1104.45 229.934 1105.2 229.934C1105.95 229.934 1106.54 229.772 1106.98 229.448C1107.44 229.124 1107.67 228.692 1107.67 228.152C1107.67 227.768 1107.51 227.432 1107.2 227.144C1106.89 226.868 1106.31 226.706 1105.47 226.658C1104.81 226.61 1104.24 226.55 1103.76 226.478C1103.27 226.742 1102.95 227.024 1102.79 227.324C1102.63 227.636 1102.56 227.912 1102.56 228.152ZM1120.37 227.216C1119.51 227.216 1118.76 227.024 1118.1 226.64C1117.44 226.244 1116.92 225.698 1116.53 225.002C1116.16 224.306 1115.97 223.484 1115.97 222.536C1115.97 221.6 1116.16 220.784 1116.53 220.088C1116.9 219.38 1117.42 218.834 1118.08 218.45C1118.75 218.054 1119.53 217.856 1120.4 217.856C1121.27 217.856 1122.01 218.054 1122.63 218.45C1123.27 218.834 1123.76 219.344 1124.09 219.98C1124.43 220.616 1124.6 221.3 1124.6 222.032C1124.6 222.164 1124.59 222.296 1124.58 222.428C1124.58 222.56 1124.58 222.71 1124.58 222.878H1117.47C1117.5 223.562 1117.66 224.132 1117.94 224.588C1118.22 225.032 1118.58 225.368 1119 225.596C1119.43 225.824 1119.89 225.938 1120.37 225.938C1120.99 225.938 1121.51 225.794 1121.93 225.506C1122.35 225.218 1122.66 224.828 1122.85 224.336H1124.34C1124.1 225.164 1123.64 225.854 1122.96 226.406C1122.29 226.946 1121.42 227.216 1120.37 227.216ZM1120.37 219.134C1119.65 219.134 1119 219.356 1118.44 219.8C1117.89 220.232 1117.57 220.868 1117.49 221.708H1123.1C1123.07 220.904 1122.79 220.274 1122.27 219.818C1121.76 219.362 1121.12 219.134 1120.37 219.134ZM1126.6 227V214.04H1128.11V227H1126.6ZM1131.51 216.092C1131.21 216.092 1130.96 215.996 1130.75 215.804C1130.56 215.6 1130.46 215.348 1130.46 215.048C1130.46 214.76 1130.56 214.52 1130.75 214.328C1130.96 214.136 1131.21 214.04 1131.51 214.04C1131.8 214.04 1132.04 214.136 1132.25 214.328C1132.45 214.52 1132.55 214.76 1132.55 215.048C1132.55 215.348 1132.45 215.6 1132.25 215.804C1132.04 215.996 1131.8 216.092 1131.51 216.092ZM1130.75 227V218.072H1132.26V227H1130.75ZM1138.42 227C1137.61 227 1136.97 226.802 1136.5 226.406C1136.03 226.01 1135.8 225.296 1135.8 224.264V219.35H1134.25V218.072H1135.8L1135.99 215.93H1137.31V218.072H1139.94V219.35H1137.31V224.264C1137.31 224.828 1137.42 225.212 1137.65 225.416C1137.88 225.608 1138.28 225.704 1138.86 225.704H1139.79V227H1138.42ZM1142.38 227.09C1142.08 227.09 1141.83 226.994 1141.62 226.802C1141.43 226.598 1141.34 226.352 1141.34 226.064C1141.34 225.776 1141.43 225.536 1141.62 225.344C1141.83 225.14 1142.08 225.038 1142.38 225.038C1142.67 225.038 1142.91 225.14 1143.1 225.344C1143.3 225.536 1143.41 225.776 1143.41 226.064C1143.41 226.352 1143.3 226.598 1143.1 226.802C1142.91 226.994 1142.67 227.09 1142.38 227.09Z" fill="#111010"/>
<path d="M80.5 343.5C80.5 198.249 198.249 80.5 343.5 80.5C488.751 80.5 606.5 198.249 606.5 343.5V383.5H80.5V343.5Z" fill="#FF9B3D" stroke="#111010"/>
<path d="M236.982 222.48C234.236 222.48 231.862 221.88 229.862 220.68C227.889 219.453 226.356 217.76 225.262 215.6C224.169 213.413 223.622 210.88 223.622 208C223.622 205.147 224.169 202.64 225.262 200.48C226.356 198.293 227.889 196.587 229.862 195.36C231.862 194.133 234.236 193.52 236.982 193.52C240.182 193.52 242.782 194.293 244.782 195.84C246.809 197.36 248.102 199.493 248.662 202.24H244.942C244.516 200.507 243.636 199.12 242.302 198.08C240.996 197.013 239.222 196.48 236.982 196.48C234.982 196.48 233.236 196.947 231.742 197.88C230.249 198.787 229.089 200.107 228.262 201.84C227.462 203.547 227.062 205.6 227.062 208C227.062 210.4 227.462 212.467 228.262 214.2C229.089 215.907 230.249 217.227 231.742 218.16C233.236 219.067 234.982 219.52 236.982 219.52C239.222 219.52 240.996 219.013 242.302 218C243.636 216.96 244.516 215.587 244.942 213.88H248.662C248.102 216.573 246.809 218.68 244.782 220.2C242.782 221.72 240.182 222.48 236.982 222.48ZM266.211 222.48C263.465 222.48 261.051 221.88 258.971 220.68C256.918 219.453 255.305 217.747 254.131 215.56C252.985 213.373 252.411 210.853 252.411 208C252.411 205.147 252.985 202.64 254.131 200.48C255.305 198.293 256.918 196.587 258.971 195.36C261.051 194.133 263.465 193.52 266.211 193.52C268.985 193.52 271.398 194.133 273.451 195.36C275.531 196.587 277.145 198.293 278.291 200.48C279.438 202.64 280.011 205.147 280.011 208C280.011 210.853 279.438 213.373 278.291 215.56C277.145 217.747 275.531 219.453 273.451 220.68C271.398 221.88 268.985 222.48 266.211 222.48ZM266.211 219.52C268.265 219.52 270.065 219.067 271.611 218.16C273.185 217.227 274.398 215.907 275.251 214.2C276.131 212.467 276.571 210.4 276.571 208C276.571 205.6 276.131 203.547 275.251 201.84C274.398 200.133 273.185 198.827 271.611 197.92C270.065 196.987 268.265 196.52 266.211 196.52C264.158 196.52 262.345 196.987 260.771 197.92C259.225 198.827 258.011 200.133 257.131 201.84C256.278 203.547 255.851 205.6 255.851 208C255.851 210.4 256.278 212.467 257.131 214.2C258.011 215.907 259.225 217.227 260.771 218.16C262.345 219.067 264.158 219.52 266.211 219.52ZM284.858 222V194H288.218V219.32H301.258V222H284.858ZM305.874 222V194H309.234V219.32H322.274V222H305.874ZM326.89 222V194H344.21V196.76H330.25V206.52H343.01V209.24H330.25V219.24H344.21V222H326.89ZM361.748 222.48C359.001 222.48 356.628 221.88 354.628 220.68C352.654 219.453 351.121 217.76 350.028 215.6C348.934 213.413 348.388 210.88 348.388 208C348.388 205.147 348.934 202.64 350.028 200.48C351.121 198.293 352.654 196.587 354.628 195.36C356.628 194.133 359.001 193.52 361.748 193.52C364.948 193.52 367.548 194.293 369.548 195.84C371.574 197.36 372.868 199.493 373.428 202.24H369.708C369.281 200.507 368.401 199.12 367.068 198.08C365.761 197.013 363.988 196.48 361.748 196.48C359.748 196.48 358.001 196.947 356.508 197.88C355.014 198.787 353.854 200.107 353.028 201.84C352.228 203.547 351.828 205.6 351.828 208C351.828 210.4 352.228 212.467 353.028 214.2C353.854 215.907 355.014 217.227 356.508 218.16C358.001 219.067 359.748 219.52 361.748 219.52C363.988 219.52 365.761 219.013 367.068 218C368.401 216.96 369.281 215.587 369.708 213.88H373.428C372.868 216.573 371.574 218.68 369.548 220.2C367.548 221.72 364.948 222.48 361.748 222.48ZM384.153 222V196.76H375.793V194H395.873V196.76H387.513V222H384.153ZM399.976 222V194H403.336V222H399.976ZM421.993 222.48C419.246 222.48 416.833 221.88 414.753 220.68C412.699 219.453 411.086 217.747 409.913 215.56C408.766 213.373 408.193 210.853 408.193 208C408.193 205.147 408.766 202.64 409.913 200.48C411.086 198.293 412.699 196.587 414.753 195.36C416.833 194.133 419.246 193.52 421.993 193.52C424.766 193.52 427.179 194.133 429.233 195.36C431.313 196.587 432.926 198.293 434.073 200.48C435.219 202.64 435.793 205.147 435.793 208C435.793 210.853 435.219 213.373 434.073 215.56C432.926 217.747 431.313 219.453 429.233 220.68C427.179 221.88 424.766 222.48 421.993 222.48ZM421.993 219.52C424.046 219.52 425.846 219.067 427.393 218.16C428.966 217.227 430.179 215.907 431.033 214.2C431.913 212.467 432.353 210.4 432.353 208C432.353 205.6 431.913 203.547 431.033 201.84C430.179 200.133 428.966 198.827 427.393 197.92C425.846 196.987 424.046 196.52 421.993 196.52C419.939 196.52 418.126 196.987 416.553 197.92C415.006 198.827 413.793 200.133 412.913 201.84C412.059 203.547 411.633 205.6 411.633 208C411.633 210.4 412.059 212.467 412.913 214.2C413.793 215.907 415.006 217.227 416.553 218.16C418.126 219.067 419.939 219.52 421.993 219.52ZM440.64 222V194H444L458.92 216.44V194H462.28V222H458.92L444 199.56V222H440.64Z" fill="#111010"/>
<path d="M240.22 306L250.54 278H254.1L264.38 306H260.82L258.26 298.8H246.34L243.74 306H240.22ZM247.34 296.08H257.26L252.3 282.24L247.34 296.08ZM268.542 306V278H277.742C279.929 278 281.729 278.36 283.142 279.08C284.555 279.8 285.595 280.773 286.262 282C286.955 283.227 287.302 284.613 287.302 286.16C287.302 287.68 286.969 289.053 286.302 290.28C285.635 291.507 284.595 292.493 283.182 293.24C281.769 293.96 279.955 294.32 277.742 294.32H271.902V306H268.542ZM271.902 291.48H277.662C279.902 291.48 281.489 291.013 282.422 290.08C283.382 289.12 283.862 287.813 283.862 286.16C283.862 284.48 283.382 283.173 282.422 282.24C281.489 281.28 279.902 280.8 277.662 280.8H271.902V291.48ZM291.706 306V278H300.746C302.933 278 304.719 278.36 306.106 279.08C307.493 279.8 308.519 280.787 309.186 282.04C309.853 283.293 310.186 284.68 310.186 286.2C310.186 287.96 309.706 289.547 308.746 290.96C307.813 292.373 306.346 293.373 304.346 293.96L310.466 306H306.506L300.826 294.44H300.586H295.066V306H291.706ZM295.066 291.8H300.506C302.666 291.8 304.239 291.28 305.226 290.24C306.213 289.2 306.706 287.867 306.706 286.24C306.706 284.587 306.213 283.28 305.226 282.32C304.266 281.333 302.679 280.84 300.466 280.84H295.066V291.8ZM315.417 306V278H318.777V306H315.417ZM324.714 306V278H328.074V303.32H341.114V306H324.714ZM355.875 306V303.64C357.769 302.147 359.555 300.64 361.235 299.12C362.942 297.573 364.449 296.053 365.755 294.56C367.089 293.067 368.129 291.6 368.875 290.16C369.649 288.72 370.035 287.333 370.035 286C370.035 285.013 369.862 284.093 369.515 283.24C369.195 282.387 368.662 281.707 367.915 281.2C367.169 280.667 366.155 280.4 364.875 280.4C363.649 280.4 362.622 280.68 361.795 281.24C360.969 281.773 360.342 282.493 359.915 283.4C359.515 284.307 359.315 285.28 359.315 286.32H356.075C356.075 284.48 356.462 282.907 357.235 281.6C358.009 280.267 359.062 279.253 360.395 278.56C361.729 277.867 363.235 277.52 364.915 277.52C367.395 277.52 369.422 278.227 370.995 279.64C372.595 281.027 373.395 283.107 373.395 285.88C373.395 287.533 372.982 289.173 372.155 290.8C371.329 292.4 370.275 293.96 368.995 295.48C367.715 296.973 366.342 298.373 364.875 299.68C363.435 300.987 362.089 302.16 360.835 303.2H374.355V306H355.875ZM389.735 306.48C387.255 306.48 385.109 305.88 383.295 304.68C381.509 303.453 380.135 301.76 379.175 299.6C378.215 297.413 377.735 294.88 377.735 292C377.735 289.12 378.215 286.6 379.175 284.44C380.135 282.253 381.509 280.56 383.295 279.36C385.109 278.133 387.255 277.52 389.735 277.52C392.215 277.52 394.349 278.133 396.135 279.36C397.922 280.56 399.295 282.253 400.255 284.44C401.215 286.6 401.695 289.12 401.695 292C401.695 294.88 401.215 297.413 400.255 299.6C399.295 301.76 397.922 303.453 396.135 304.68C394.349 305.88 392.215 306.48 389.735 306.48ZM389.735 303.52C391.362 303.52 392.815 303.067 394.095 302.16C395.402 301.227 396.415 299.907 397.135 298.2C397.882 296.467 398.255 294.4 398.255 292C398.255 289.6 397.882 287.547 397.135 285.84C396.415 284.133 395.402 282.827 394.095 281.92C392.815 280.987 391.362 280.52 389.735 280.52C388.082 280.52 386.615 280.987 385.335 281.92C384.055 282.827 383.042 284.133 382.295 285.84C381.549 287.547 381.175 289.6 381.175 292C381.175 294.4 381.549 296.467 382.295 298.2C383.042 299.907 384.055 301.227 385.335 302.16C386.615 303.067 388.082 303.52 389.735 303.52ZM405.719 306V303.64C407.613 302.147 409.399 300.64 411.079 299.12C412.786 297.573 414.293 296.053 415.599 294.56C416.933 293.067 417.973 291.6 418.719 290.16C419.493 288.72 419.879 287.333 419.879 286C419.879 285.013 419.706 284.093 419.359 283.24C419.039 282.387 418.506 281.707 417.759 281.2C417.013 280.667 415.999 280.4 414.719 280.4C413.493 280.4 412.466 280.68 411.639 281.24C410.813 281.773 410.186 282.493 409.759 283.4C409.359 284.307 409.159 285.28 409.159 286.32H405.919C405.919 284.48 406.306 282.907 407.079 281.6C407.853 280.267 408.906 279.253 410.239 278.56C411.573 277.867 413.079 277.52 414.759 277.52C417.239 277.52 419.266 278.227 420.839 279.64C422.439 281.027 423.239 283.107 423.239 285.88C423.239 287.533 422.826 289.173 421.999 290.8C421.173 292.4 420.119 293.96 418.839 295.48C417.559 296.973 416.186 298.373 414.719 299.68C413.279 300.987 411.933 302.16 410.679 303.2H424.199V306H405.719ZM428.61 306V303.64C430.503 302.147 432.29 300.64 433.97 299.12C435.677 297.573 437.183 296.053 438.49 294.56C439.823 293.067 440.863 291.6 441.61 290.16C442.383 288.72 442.77 287.333 442.77 286C442.77 285.013 442.597 284.093 442.25 283.24C441.93 282.387 441.397 281.707 440.65 281.2C439.903 280.667 438.89 280.4 437.61 280.4C436.383 280.4 435.357 280.68 434.53 281.24C433.703 281.773 433.077 282.493 432.65 283.4C432.25 284.307 432.05 285.28 432.05 286.32H428.81C428.81 284.48 429.197 282.907 429.97 281.6C430.743 280.267 431.797 279.253 433.13 278.56C434.463 277.867 435.97 277.52 437.65 277.52C440.13 277.52 442.157 278.227 443.73 279.64C445.33 281.027 446.13 283.107 446.13 285.88C446.13 287.533 445.717 289.173 444.89 290.8C444.063 292.4 443.01 293.96 441.73 295.48C440.45 296.973 439.077 298.373 437.61 299.68C436.17 300.987 434.823 302.16 433.57 303.2H447.09V306H428.61Z" fill="#111010"/>
<path d="M302.046 178V150H305.406L320.326 172.44V150H323.686V178H320.326L305.406 155.56V178H302.046ZM329.624 178V150H346.944V152.76H332.984V162.52H345.744V165.24H332.984V175.24H346.944V178H329.624ZM357.962 178.04L350.282 150H353.882L359.922 174.04L366.802 150H370.522L377.202 174.04L383.322 150H386.922L379.082 178H375.242L368.562 154.88L361.722 178L357.962 178.04Z" fill="#111010"/>
</svg>
