<svg width="1017" height="94" viewBox="0 0 1017 94" fill="none" xmlns="http://www.w3.org/2000/svg">
<path d="M0.847 92V2.39999H11.599V83.424H53.327V92H0.847ZM62.465 92L95.489 2.39999H106.881L139.777 92H128.385L120.193 68.96H82.049L73.729 92H62.465ZM85.249 60.256H116.993L101.121 15.968L85.249 60.256ZM163.964 92V11.232H137.212V2.39999H201.468V11.232H174.716V92H163.964ZM214.597 92V2.39999H270.021V11.232H225.349V42.464H266.181V51.168H225.349V83.168H270.021V92H214.597ZM315.391 93.536C308.82 93.536 303.103 92.3413 298.239 89.952C293.375 87.5627 289.62 84.2347 286.975 79.968C284.33 75.7013 283.007 70.752 283.007 65.12H294.271C294.271 68.6187 295.082 71.8613 296.703 74.848C298.324 77.7493 300.671 80.096 303.743 81.888C306.9 83.5947 310.783 84.448 315.391 84.448C321.45 84.448 326.143 82.9973 329.471 80.096C332.799 77.1947 334.463 73.568 334.463 69.216C334.463 65.632 333.695 62.7733 332.159 60.64C330.623 58.4213 328.532 56.6293 325.887 55.264C323.327 53.8987 320.34 52.704 316.927 51.68C313.599 50.656 310.1 49.504 306.431 48.224C299.519 45.8347 294.399 42.8907 291.071 39.392C287.743 35.808 286.079 31.1573 286.079 25.44C285.994 20.6613 287.103 16.4373 289.407 12.768C291.711 9.01333 294.954 6.11199 299.135 4.064C303.402 1.93066 308.436 0.863998 314.239 0.863998C319.956 0.863998 324.906 1.93066 329.087 4.064C333.354 6.19733 336.639 9.14133 338.943 12.896C341.332 16.6507 342.57 20.9173 342.655 25.696H331.391C331.391 23.2213 330.751 20.7893 329.471 18.4C328.191 15.9253 326.228 13.92 323.583 12.384C321.023 10.848 317.78 10.08 313.855 10.08C308.991 9.99466 304.98 11.232 301.823 13.792C298.751 16.352 297.215 19.8933 297.215 24.416C297.215 28.256 298.282 31.2 300.415 33.248C302.634 35.296 305.706 37.0027 309.631 38.368C313.556 39.648 318.079 41.1413 323.199 42.848C327.466 44.384 331.306 46.176 334.719 48.224C338.132 50.272 340.778 52.9173 342.655 56.16C344.618 59.4027 345.599 63.5413 345.599 68.576C345.599 72.8427 344.49 76.896 342.271 80.736C340.052 84.4907 336.682 87.5627 332.159 89.952C327.722 92.3413 322.132 93.536 315.391 93.536ZM379.714 92V11.232H352.962V2.39999H417.218V11.232H390.466V92H379.714ZM458.59 92L491.614 2.39999H503.006L535.902 92H524.51L516.318 68.96H478.174L469.854 92H458.59ZM481.374 60.256H513.118L497.246 15.968L481.374 60.256ZM549.222 92V2.39999H578.15C585.147 2.39999 590.865 3.55199 595.302 5.856C599.739 8.16 603.025 11.3173 605.158 15.328C607.291 19.3387 608.358 23.776 608.358 28.64C608.358 34.272 606.822 39.3493 603.75 43.872C600.763 48.3947 596.07 51.5947 589.67 53.472L609.254 92H596.582L578.406 55.008H577.638H559.974V92H549.222ZM559.974 46.56H577.382C584.294 46.56 589.329 44.896 592.486 41.568C595.643 38.24 597.222 33.9733 597.222 28.768C597.222 23.4773 595.643 19.296 592.486 16.224C589.414 13.0667 584.337 11.488 577.254 11.488H559.974V46.56ZM646.089 92V11.232H619.337V2.39999H683.593V11.232H656.841V92H646.089ZM696.722 92V2.39999H707.474V92H696.722ZM765.768 93.536C756.979 93.536 749.384 91.616 742.984 87.776C736.669 83.8507 731.763 78.432 728.264 71.52C724.765 64.5227 723.016 56.416 723.016 47.2C723.016 38.0693 724.765 30.048 728.264 23.136C731.763 16.1387 736.669 10.6773 742.984 6.752C749.384 2.82667 756.979 0.863998 765.768 0.863998C776.008 0.863998 784.328 3.33866 790.728 8.28799C797.213 13.152 801.352 19.9787 803.144 28.768H791.24C789.875 23.2213 787.059 18.784 782.792 15.456C778.611 12.0427 772.936 10.336 765.768 10.336C759.368 10.336 753.779 11.8293 749 14.816C744.221 17.7173 740.509 21.9413 737.864 27.488C735.304 32.9493 734.024 39.52 734.024 47.2C734.024 54.88 735.304 61.4933 737.864 67.04C740.509 72.5013 744.221 76.7253 749 79.712C753.779 82.6133 759.368 84.064 765.768 84.064C772.936 84.064 778.611 82.4427 782.792 79.2C787.059 75.872 789.875 71.4773 791.24 66.016H803.144C801.352 74.6347 797.213 81.376 790.728 86.24C784.328 91.104 776.008 93.536 765.768 93.536ZM818.597 92V2.39999H829.349V83.424H871.077V92H818.597ZM885.847 92V2.39999H941.271V11.232H896.599V42.464H937.431V51.168H896.599V83.168H941.271V92H885.847ZM986.641 93.536C980.07 93.536 974.353 92.3413 969.489 89.952C964.625 87.5627 960.87 84.2347 958.225 79.968C955.58 75.7013 954.257 70.752 954.257 65.12H965.521C965.521 68.6187 966.332 71.8613 967.953 74.848C969.574 77.7493 971.921 80.096 974.993 81.888C978.15 83.5947 982.033 84.448 986.641 84.448C992.7 84.448 997.393 82.9973 1000.72 80.096C1004.05 77.1947 1005.71 73.568 1005.71 69.216C1005.71 65.632 1004.95 62.7733 1003.41 60.64C1001.87 58.4213 999.782 56.6293 997.137 55.264C994.577 53.8987 991.59 52.704 988.177 51.68C984.849 50.656 981.35 49.504 977.681 48.224C970.769 45.8347 965.649 42.8907 962.321 39.392C958.993 35.808 957.329 31.1573 957.329 25.44C957.244 20.6613 958.353 16.4373 960.657 12.768C962.961 9.01333 966.204 6.11199 970.385 4.064C974.652 1.93066 979.686 0.863998 985.489 0.863998C991.206 0.863998 996.156 1.93066 1000.34 4.064C1004.6 6.19733 1007.89 9.14133 1010.19 12.896C1012.58 16.6507 1013.82 20.9173 1013.91 25.696H1002.64C1002.64 23.2213 1002 20.7893 1000.72 18.4C999.441 15.9253 997.478 13.92 994.833 12.384C992.273 10.848 989.03 10.08 985.105 10.08C980.241 9.99466 976.23 11.232 973.073 13.792C970.001 16.352 968.465 19.8933 968.465 24.416C968.465 28.256 969.532 31.2 971.665 33.248C973.884 35.296 976.956 37.0027 980.881 38.368C984.806 39.648 989.329 41.1413 994.449 42.848C998.716 44.384 1002.56 46.176 1005.97 48.224C1009.38 50.272 1012.03 52.9173 1013.91 56.16C1015.87 59.4027 1016.85 63.5413 1016.85 68.576C1016.85 72.8427 1015.74 76.896 1013.52 80.736C1011.3 84.4907 1007.93 87.5627 1003.41 89.952C998.972 92.3413 993.382 93.536 986.641 93.536Z" fill="#111010"/>
</svg>
