<svg width="320" height="281" viewBox="0 0 320 281" fill="none" xmlns="http://www.w3.org/2000/svg">
<g clip-path="url(#clip0_1_257)">
<mask id="mask0_1_257" style="mask-type:alpha" maskUnits="userSpaceOnUse" x="132" y="16" width="56" height="56">
<path fill-rule="evenodd" clip-rule="evenodd" d="M164.667 16H155.334V32.7347L143.5 20.9013L136.901 27.501L148.733 39.3332H132V48.6665H148.734L136.902 60.4993L143.501 67.0989L155.334 55.2666V72H164.667V55.2673L176.499 67.0989L183.098 60.4993L171.266 48.6665H188V39.3332H171.267L183.099 27.501L176.5 20.9013L164.667 32.7339V16Z" fill="white"/>
</mask>
<g mask="url(#mask0_1_257)">
<path fill-rule="evenodd" clip-rule="evenodd" d="M164.667 16H155.334V32.7347L143.5 20.9013L136.901 27.501L148.733 39.3332H132V48.6665H148.734L136.902 60.4993L143.501 67.0989L155.334 55.2666V72H164.667V55.2673L176.499 67.0989L183.098 60.4993L171.266 48.6665H188V39.3332H171.267L183.099 27.501L176.5 20.9013L164.667 32.7339V16Z" fill="#CAB5EB"/>
<path d="M155.334 16V15.1289H154.463V16H155.334ZM164.667 16H165.538V15.1289H164.667V16ZM155.334 32.7347L154.718 33.3507L156.205 34.8377V32.7347H155.334ZM143.5 20.9013L144.116 20.2854L143.5 19.6694L142.884 20.2854L143.5 20.9013ZM136.901 27.501L136.285 26.885L135.669 27.501L136.285 28.117L136.901 27.501ZM148.733 39.3332V40.2043H150.836L149.349 38.7173L148.733 39.3332ZM132 39.3332V38.4621H131.129V39.3332H132ZM132 48.6666H131.129V49.5377H132V48.6666ZM148.734 48.6666L149.35 49.2826L150.838 47.7954H148.734V48.6666ZM136.902 60.4993L136.286 59.8834L135.67 60.4993L136.286 61.1153L136.902 60.4993ZM143.501 67.099L142.885 67.715L143.501 68.3309L144.117 67.715L143.501 67.099ZM155.334 55.2666H156.205V53.1635L154.718 54.6506L155.334 55.2666ZM155.334 72H154.463V72.8711H155.334V72ZM164.667 72V72.8711H165.538V72H164.667ZM164.667 55.2673L165.283 54.6514L163.796 53.1643V55.2673H164.667ZM176.499 67.099L175.883 67.715L176.499 68.3309L177.115 67.715L176.499 67.099ZM183.098 60.4993L183.714 61.1153L184.33 60.4993L183.714 59.8834L183.098 60.4993ZM171.266 48.6666V47.7954H169.163L170.65 49.2826L171.266 48.6666ZM188 48.6666V49.5377H188.871V48.6666H188ZM188 39.3332H188.871V38.4621H188V39.3332ZM171.267 39.3332L170.651 38.7173L169.164 40.2043H171.267V39.3332ZM183.099 27.501L183.715 28.117L184.331 27.501L183.715 26.885L183.099 27.501ZM176.5 20.9013L177.116 20.2854L176.5 19.6694L175.884 20.2854L176.5 20.9013ZM164.667 32.7339H163.796V34.837L165.283 33.3499L164.667 32.7339ZM155.334 16.8711H164.667V15.1289H155.334V16.8711ZM156.205 32.7347V16H154.463V32.7347H156.205ZM142.884 21.5173L154.718 33.3507L155.95 32.1187L144.116 20.2854L142.884 21.5173ZM137.517 28.117L144.116 21.5173L142.884 20.2854L136.285 26.885L137.517 28.117ZM149.349 38.7173L137.517 26.885L136.285 28.117L148.117 39.9492L149.349 38.7173ZM132 40.2043H148.733V38.4621H132V40.2043ZM132.871 48.6666V39.3332H131.129V48.6666H132.871ZM148.734 47.7954H132V49.5377H148.734V47.7954ZM137.518 61.1153L149.35 49.2826L148.119 48.0506L136.286 59.8834L137.518 61.1153ZM144.117 66.483L137.518 59.8834L136.286 61.1153L142.885 67.715L144.117 66.483ZM154.718 54.6506L142.885 66.483L144.117 67.715L155.95 55.8825L154.718 54.6506ZM156.205 72V55.2666H154.463V72H156.205ZM164.667 71.1289H155.334V72.8711H164.667V71.1289ZM163.796 55.2673V72H165.538V55.2673H163.796ZM177.115 66.483L165.283 54.6514L164.051 55.8833L175.883 67.715L177.115 66.483ZM182.482 59.8834L175.883 66.483L177.115 67.715L183.714 61.1153L182.482 59.8834ZM170.65 49.2826L182.482 61.1153L183.714 59.8834L171.882 48.0506L170.65 49.2826ZM188 47.7954H171.266V49.5377H188V47.7954ZM187.129 39.3332V48.6666H188.871V39.3332H187.129ZM171.267 40.2043H188V38.4621H171.267V40.2043ZM182.483 26.885L170.651 38.7173L171.883 39.9492L183.715 28.117L182.483 26.885ZM175.884 21.5173L182.483 28.117L183.715 26.885L177.116 20.2854L175.884 21.5173ZM165.283 33.3499L177.116 21.5173L175.884 20.2854L164.051 32.1179L165.283 33.3499ZM163.796 16V32.7339H165.538V16H163.796Z" fill="#111010"/>
</g>
</g>
<path d="M28.421 110.288C27.189 110.288 26.117 110.064 25.205 109.616C24.293 109.168 23.589 108.544 23.093 107.744C22.597 106.944 22.349 106.016 22.349 104.96H24.461C24.461 105.616 24.613 106.224 24.917 106.784C25.221 107.328 25.661 107.768 26.237 108.104C26.829 108.424 27.557 108.584 28.421 108.584C29.557 108.584 30.437 108.312 31.061 107.768C31.685 107.224 31.997 106.544 31.997 105.728C31.997 105.056 31.853 104.52 31.565 104.12C31.277 103.704 30.885 103.368 30.389 103.112C29.909 102.856 29.349 102.632 28.709 102.44C28.085 102.248 27.429 102.032 26.741 101.792C25.445 101.344 24.485 100.792 23.861 100.136C23.237 99.464 22.925 98.592 22.925 97.52C22.909 96.624 23.117 95.832 23.549 95.144C23.981 94.44 24.589 93.896 25.373 93.512C26.173 93.112 27.117 92.912 28.205 92.912C29.277 92.912 30.205 93.112 30.989 93.512C31.789 93.912 32.405 94.464 32.837 95.168C33.285 95.872 33.517 96.672 33.533 97.568H31.421C31.421 97.104 31.301 96.648 31.061 96.2C30.821 95.736 30.453 95.36 29.957 95.072C29.477 94.784 28.869 94.64 28.133 94.64C27.221 94.624 26.469 94.856 25.877 95.336C25.301 95.816 25.013 96.48 25.013 97.328C25.013 98.048 25.213 98.6 25.613 98.984C26.029 99.368 26.605 99.688 27.341 99.944C28.077 100.184 28.925 100.464 29.885 100.784C30.685 101.072 31.405 101.408 32.045 101.792C32.685 102.176 33.181 102.672 33.533 103.28C33.901 103.888 34.085 104.664 34.085 105.608C34.085 106.408 33.877 107.168 33.461 107.888C33.045 108.592 32.413 109.168 31.565 109.616C30.733 110.064 29.685 110.288 28.421 110.288ZM43.016 110.288C41.864 110.288 40.816 110.064 39.872 109.616C38.944 109.152 38.2 108.44 37.64 107.48C37.08 106.52 36.8 105.296 36.8 103.808V93.2H38.816V103.832C38.816 105.464 39.208 106.648 39.992 107.384C40.776 108.12 41.8 108.488 43.064 108.488C44.328 108.488 45.344 108.12 46.112 107.384C46.88 106.648 47.264 105.464 47.264 103.832V93.2H49.28V103.808C49.28 105.296 49 106.52 48.44 107.48C47.88 108.44 47.128 109.152 46.184 109.616C45.24 110.064 44.184 110.288 43.016 110.288ZM58.046 110.288C56.814 110.288 55.742 110.064 54.83 109.616C53.918 109.168 53.214 108.544 52.718 107.744C52.222 106.944 51.974 106.016 51.974 104.96H54.086C54.086 105.616 54.238 106.224 54.542 106.784C54.846 107.328 55.286 107.768 55.862 108.104C56.454 108.424 57.182 108.584 58.046 108.584C59.182 108.584 60.062 108.312 60.686 107.768C61.31 107.224 61.622 106.544 61.622 105.728C61.622 105.056 61.478 104.52 61.19 104.12C60.902 103.704 60.51 103.368 60.014 103.112C59.534 102.856 58.974 102.632 58.334 102.44C57.71 102.248 57.054 102.032 56.366 101.792C55.07 101.344 54.11 100.792 53.486 100.136C52.862 99.464 52.55 98.592 52.55 97.52C52.534 96.624 52.742 95.832 53.174 95.144C53.606 94.44 54.214 93.896 54.998 93.512C55.798 93.112 56.742 92.912 57.83 92.912C58.902 92.912 59.83 93.112 60.614 93.512C61.414 93.912 62.03 94.464 62.462 95.168C62.91 95.872 63.142 96.672 63.158 97.568H61.046C61.046 97.104 60.926 96.648 60.686 96.2C60.446 95.736 60.078 95.36 59.582 95.072C59.102 94.784 58.494 94.64 57.758 94.64C56.846 94.624 56.094 94.856 55.502 95.336C54.926 95.816 54.638 96.48 54.638 97.328C54.638 98.048 54.838 98.6 55.238 98.984C55.654 99.368 56.23 99.688 56.966 99.944C57.702 100.184 58.55 100.464 59.51 100.784C60.31 101.072 61.03 101.408 61.67 101.792C62.31 102.176 62.806 102.672 63.158 103.28C63.526 103.888 63.71 104.664 63.71 105.608C63.71 106.408 63.502 107.168 63.086 107.888C62.67 108.592 62.038 109.168 61.19 109.616C60.358 110.064 59.31 110.288 58.046 110.288ZM70.1065 110V94.856H65.0905V93.2H77.1385V94.856H72.1225V110H70.1065ZM76.6458 110L82.8378 93.2H84.9738L91.1418 110H89.0058L87.4698 105.68H80.3178L78.7578 110H76.6458ZM80.9178 104.048H86.8698L83.8938 95.744L80.9178 104.048ZM93.6393 110V93.2H95.6553V110H93.6393ZM99.2174 110V93.2H101.233L110.185 106.664V93.2H112.201V110H110.185L101.233 96.536V110H99.2174ZM114.708 110L120.9 93.2H123.036L129.204 110H127.068L125.532 105.68H118.38L116.82 110H114.708ZM118.98 104.048H124.932L121.956 95.744L118.98 104.048ZM131.702 110V93.2H137.606C138.79 93.2 139.766 93.392 140.534 93.776C141.318 94.144 141.902 94.656 142.286 95.312C142.67 95.952 142.862 96.672 142.862 97.472C142.862 98.56 142.566 99.416 141.974 100.04C141.398 100.664 140.702 101.096 139.886 101.336C140.51 101.448 141.078 101.696 141.59 102.08C142.102 102.464 142.502 102.944 142.79 103.52C143.094 104.096 143.246 104.728 143.246 105.416C143.246 106.264 143.038 107.04 142.622 107.744C142.206 108.432 141.59 108.984 140.774 109.4C139.958 109.8 138.966 110 137.798 110H131.702ZM133.718 100.544H137.462C138.534 100.544 139.358 100.296 139.934 99.8C140.51 99.288 140.798 98.584 140.798 97.688C140.798 96.84 140.51 96.16 139.934 95.648C139.374 95.136 138.526 94.88 137.39 94.88H133.718V100.544ZM133.718 108.32H137.582C138.734 108.32 139.622 108.056 140.246 107.528C140.87 106.984 141.182 106.232 141.182 105.272C141.182 104.328 140.854 103.576 140.198 103.016C139.542 102.44 138.654 102.152 137.534 102.152H133.718V108.32ZM146.139 110V93.2H148.155V108.392H155.979V110H146.139ZM158.749 110V93.2H169.141V94.856H160.765V100.712H168.421V102.344H160.765V108.344H169.141V110H158.749ZM178.647 110V93.2H180.999L187.047 104.912L193.047 93.2H195.423V110H193.407V96.8L187.791 107.6H186.279L180.663 96.824V110H178.647ZM197.911 110L204.103 93.2H206.239L212.407 110H210.271L208.735 105.68H201.583L200.023 110H197.911ZM202.183 104.048H208.135L205.159 95.744L202.183 104.048ZM216.942 110V94.856H211.926V93.2H223.974V94.856H218.958V110H216.942ZM226.436 110V93.2H236.828V94.856H228.452V100.712H236.108V102.344H228.452V108.344H236.828V110H226.436ZM239.983 110V93.2H245.407C246.719 93.2 247.791 93.416 248.623 93.848C249.455 94.28 250.071 94.872 250.471 95.624C250.871 96.376 251.071 97.208 251.071 98.12C251.071 99.176 250.783 100.128 250.207 100.976C249.647 101.824 248.767 102.424 247.567 102.776L251.239 110H248.863L245.455 103.064H245.311H241.999V110H239.983ZM241.999 101.48H245.263C246.559 101.48 247.503 101.168 248.095 100.544C248.687 99.92 248.983 99.12 248.983 98.144C248.983 97.152 248.687 96.368 248.095 95.792C247.519 95.2 246.567 94.904 245.239 94.904H241.999V101.48ZM254.21 110V93.2H256.226V110H254.21ZM258.732 110L264.924 93.2H267.06L273.228 110H271.092L269.556 105.68H262.404L260.844 110H258.732ZM263.004 104.048H268.956L265.98 95.744L263.004 104.048ZM275.725 110V93.2H277.741V108.392H285.565V110H275.725ZM292.96 110.288C291.728 110.288 290.656 110.064 289.744 109.616C288.832 109.168 288.128 108.544 287.632 107.744C287.136 106.944 286.888 106.016 286.888 104.96H289C289 105.616 289.152 106.224 289.456 106.784C289.76 107.328 290.2 107.768 290.776 108.104C291.368 108.424 292.096 108.584 292.96 108.584C294.096 108.584 294.976 108.312 295.6 107.768C296.224 107.224 296.536 106.544 296.536 105.728C296.536 105.056 296.392 104.52 296.104 104.12C295.816 103.704 295.424 103.368 294.928 103.112C294.448 102.856 293.888 102.632 293.248 102.44C292.624 102.248 291.968 102.032 291.28 101.792C289.984 101.344 289.024 100.792 288.4 100.136C287.776 99.464 287.464 98.592 287.464 97.52C287.448 96.624 287.656 95.832 288.088 95.144C288.52 94.44 289.128 93.896 289.912 93.512C290.712 93.112 291.656 92.912 292.744 92.912C293.816 92.912 294.744 93.112 295.528 93.512C296.328 93.912 296.944 94.464 297.376 95.168C297.824 95.872 298.056 96.672 298.072 97.568H295.96C295.96 97.104 295.84 96.648 295.6 96.2C295.36 95.736 294.992 95.36 294.496 95.072C294.016 94.784 293.408 94.64 292.672 94.64C291.76 94.624 291.008 94.856 290.416 95.336C289.84 95.816 289.552 96.48 289.552 97.328C289.552 98.048 289.752 98.6 290.152 98.984C290.568 99.368 291.144 99.688 291.88 99.944C292.616 100.184 293.464 100.464 294.424 100.784C295.224 101.072 295.944 101.408 296.584 101.792C297.224 102.176 297.72 102.672 298.072 103.28C298.44 103.888 298.624 104.664 298.624 105.608C298.624 106.408 298.416 107.168 298 107.888C297.584 108.592 296.952 109.168 296.104 109.616C295.272 110.064 294.224 110.288 292.96 110.288Z" fill="#111010"/>
<path d="M45.5175 157V144.4H47.0295V155.794H52.8975V157H45.5175ZM58.5659 157.216C57.7259 157.216 56.9699 157.024 56.2979 156.64C55.6259 156.256 55.0919 155.716 54.6959 155.02C54.3119 154.312 54.1199 153.484 54.1199 152.536C54.1199 151.588 54.3179 150.766 54.7139 150.07C55.1099 149.362 55.6439 148.816 56.3159 148.432C56.9999 148.048 57.7619 147.856 58.6019 147.856C59.4419 147.856 60.1979 148.048 60.8699 148.432C61.5419 148.816 62.0699 149.362 62.4539 150.07C62.8499 150.766 63.0479 151.588 63.0479 152.536C63.0479 153.484 62.8499 154.312 62.4539 155.02C62.0579 155.716 61.5179 156.256 60.8339 156.64C60.1619 157.024 59.4059 157.216 58.5659 157.216ZM58.5659 155.92C59.0819 155.92 59.5619 155.794 60.0059 155.542C60.4499 155.29 60.8099 154.912 61.0859 154.408C61.3619 153.904 61.4999 153.28 61.4999 152.536C61.4999 151.792 61.3619 151.168 61.0859 150.664C60.8219 150.16 60.4679 149.782 60.0239 149.53C59.5799 149.278 59.1059 149.152 58.6019 149.152C58.0859 149.152 57.6059 149.278 57.1619 149.53C56.7179 149.782 56.3579 150.16 56.0819 150.664C55.8059 151.168 55.6679 151.792 55.6679 152.536C55.6679 153.28 55.8059 153.904 56.0819 154.408C56.3579 154.912 56.7119 155.29 57.1439 155.542C57.5879 155.794 58.0619 155.92 58.5659 155.92ZM65.1502 157V148.072H66.5182L66.6442 149.782C66.9202 149.194 67.3402 148.726 67.9042 148.378C68.4682 148.03 69.1642 147.856 69.9922 147.856V149.44H69.5782C69.0502 149.44 68.5642 149.536 68.1202 149.728C67.6762 149.908 67.3222 150.22 67.0582 150.664C66.7942 151.108 66.6622 151.72 66.6622 152.5V157H65.1502ZM75.3693 157.216C74.5173 157.216 73.7613 157.024 73.1013 156.64C72.4413 156.244 71.9193 155.698 71.5353 155.002C71.1633 154.306 70.9773 153.484 70.9773 152.536C70.9773 151.6 71.1633 150.784 71.5353 150.088C71.9073 149.38 72.4233 148.834 73.0833 148.45C73.7553 148.054 74.5293 147.856 75.4053 147.856C76.2693 147.856 77.0133 148.054 77.6373 148.45C78.2733 148.834 78.7593 149.344 79.0953 149.98C79.4313 150.616 79.5993 151.3 79.5993 152.032C79.5993 152.164 79.5933 152.296 79.5813 152.428C79.5813 152.56 79.5813 152.71 79.5813 152.878H72.4713C72.5073 153.562 72.6633 154.132 72.9393 154.588C73.2273 155.032 73.5813 155.368 74.0013 155.596C74.4333 155.824 74.8893 155.938 75.3693 155.938C75.9933 155.938 76.5153 155.794 76.9353 155.506C77.3553 155.218 77.6613 154.828 77.8533 154.336H79.3473C79.1073 155.164 78.6453 155.854 77.9613 156.406C77.2893 156.946 76.4253 157.216 75.3693 157.216ZM75.3693 149.134C74.6493 149.134 74.0073 149.356 73.4433 149.8C72.8913 150.232 72.5733 150.868 72.4893 151.708H78.1053C78.0693 150.904 77.7933 150.274 77.2773 149.818C76.7613 149.362 76.1253 149.134 75.3693 149.134ZM81.6033 157V148.072H82.9713L83.0793 149.368C83.3673 148.888 83.7513 148.516 84.2313 148.252C84.7113 147.988 85.2513 147.856 85.8513 147.856C86.5593 147.856 87.1653 148 87.6693 148.288C88.1853 148.576 88.5813 149.014 88.8573 149.602C89.1693 149.062 89.5953 148.636 90.1353 148.324C90.6873 148.012 91.2813 147.856 91.9173 147.856C92.9853 147.856 93.8373 148.18 94.4733 148.828C95.1093 149.464 95.4273 150.448 95.4273 151.78V157H93.9333V151.942C93.9333 151.018 93.7473 150.322 93.3753 149.854C93.0033 149.386 92.4693 149.152 91.7733 149.152C91.0533 149.152 90.4533 149.434 89.9733 149.998C89.5053 150.55 89.2713 151.342 89.2713 152.374V157H87.7593V151.942C87.7593 151.018 87.5733 150.322 87.2013 149.854C86.8293 149.386 86.2953 149.152 85.5993 149.152C84.8913 149.152 84.2973 149.434 83.8173 149.998C83.3493 150.55 83.1153 151.342 83.1153 152.374V157H81.6033ZM103.387 146.092C103.087 146.092 102.835 145.996 102.631 145.804C102.439 145.6 102.343 145.348 102.343 145.048C102.343 144.76 102.439 144.52 102.631 144.328C102.835 144.136 103.087 144.04 103.387 144.04C103.675 144.04 103.921 144.136 104.125 144.328C104.329 144.52 104.431 144.76 104.431 145.048C104.431 145.348 104.329 145.6 104.125 145.804C103.921 145.996 103.675 146.092 103.387 146.092ZM102.631 157V148.072H104.143V157H102.631ZM106.775 160.96V148.072H108.143L108.287 149.548C108.575 149.116 108.983 148.726 109.511 148.378C110.051 148.03 110.735 147.856 111.563 147.856C112.451 147.856 113.225 148.06 113.885 148.468C114.545 148.876 115.055 149.434 115.415 150.142C115.787 150.85 115.973 151.654 115.973 152.554C115.973 153.454 115.787 154.258 115.415 154.966C115.055 155.662 114.539 156.214 113.867 156.622C113.207 157.018 112.433 157.216 111.545 157.216C110.813 157.216 110.159 157.066 109.583 156.766C109.019 156.466 108.587 156.046 108.287 155.506V160.96H106.775ZM111.383 155.902C111.983 155.902 112.511 155.764 112.967 155.488C113.423 155.2 113.783 154.804 114.047 154.3C114.311 153.796 114.443 153.208 114.443 152.536C114.443 151.864 114.311 151.276 114.047 150.772C113.783 150.268 113.423 149.878 112.967 149.602C112.511 149.314 111.983 149.17 111.383 149.17C110.783 149.17 110.255 149.314 109.799 149.602C109.343 149.878 108.983 150.268 108.719 150.772C108.455 151.276 108.323 151.864 108.323 152.536C108.323 153.208 108.455 153.796 108.719 154.3C108.983 154.804 109.343 155.2 109.799 155.488C110.255 155.764 110.783 155.902 111.383 155.902ZM121.498 157.216C120.43 157.216 119.542 156.946 118.834 156.406C118.126 155.866 117.712 155.134 117.592 154.21H119.14C119.236 154.678 119.482 155.086 119.878 155.434C120.286 155.77 120.832 155.938 121.516 155.938C122.152 155.938 122.62 155.806 122.92 155.542C123.22 155.266 123.37 154.942 123.37 154.57C123.37 154.03 123.172 153.67 122.776 153.49C122.392 153.31 121.846 153.148 121.138 153.004C120.658 152.908 120.178 152.77 119.698 152.59C119.218 152.41 118.816 152.158 118.492 151.834C118.168 151.498 118.006 151.06 118.006 150.52C118.006 149.74 118.294 149.104 118.87 148.612C119.458 148.108 120.25 147.856 121.246 147.856C122.194 147.856 122.968 148.096 123.568 148.576C124.18 149.044 124.534 149.716 124.63 150.592H123.136C123.076 150.136 122.878 149.782 122.542 149.53C122.218 149.266 121.78 149.134 121.228 149.134C120.688 149.134 120.268 149.248 119.968 149.476C119.68 149.704 119.536 150.004 119.536 150.376C119.536 150.736 119.722 151.018 120.094 151.222C120.478 151.426 120.994 151.6 121.642 151.744C122.194 151.864 122.716 152.014 123.208 152.194C123.712 152.362 124.12 152.62 124.432 152.968C124.756 153.304 124.918 153.796 124.918 154.444C124.93 155.248 124.624 155.914 124 156.442C123.388 156.958 122.554 157.216 121.498 157.216ZM130.336 157.216C129.28 157.216 128.44 156.898 127.816 156.262C127.192 155.614 126.88 154.624 126.88 153.292V148.072H128.392V153.13C128.392 154.99 129.154 155.92 130.678 155.92C131.458 155.92 132.1 155.644 132.604 155.092C133.12 154.528 133.378 153.73 133.378 152.698V148.072H134.89V157H133.522L133.414 155.398C133.138 155.962 132.724 156.406 132.172 156.73C131.632 157.054 131.02 157.216 130.336 157.216ZM137.379 157V148.072H138.747L138.855 149.368C139.143 148.888 139.527 148.516 140.007 148.252C140.487 147.988 141.027 147.856 141.627 147.856C142.335 147.856 142.941 148 143.445 148.288C143.961 148.576 144.357 149.014 144.633 149.602C144.945 149.062 145.371 148.636 145.911 148.324C146.463 148.012 147.057 147.856 147.693 147.856C148.761 147.856 149.613 148.18 150.249 148.828C150.885 149.464 151.203 150.448 151.203 151.78V157H149.709V151.942C149.709 151.018 149.523 150.322 149.151 149.854C148.779 149.386 148.245 149.152 147.549 149.152C146.829 149.152 146.229 149.434 145.749 149.998C145.281 150.55 145.047 151.342 145.047 152.374V157H143.535V151.942C143.535 151.018 143.349 150.322 142.977 149.854C142.605 149.386 142.071 149.152 141.375 149.152C140.667 149.152 140.073 149.434 139.593 149.998C139.125 150.55 138.891 151.342 138.891 152.374V157H137.379ZM162.294 157.216C161.406 157.216 160.626 157.012 159.954 156.604C159.294 156.196 158.778 155.638 158.406 154.93C158.046 154.222 157.866 153.418 157.866 152.518C157.866 151.618 158.052 150.82 158.424 150.124C158.796 149.416 159.312 148.864 159.972 148.468C160.632 148.06 161.412 147.856 162.312 147.856C163.044 147.856 163.692 148.006 164.256 148.306C164.82 148.606 165.258 149.026 165.57 149.566V144.04H167.082V157H165.714L165.57 155.524C165.282 155.956 164.868 156.346 164.328 156.694C163.788 157.042 163.11 157.216 162.294 157.216ZM162.456 155.902C163.056 155.902 163.584 155.764 164.04 155.488C164.508 155.2 164.868 154.804 165.12 154.3C165.384 153.796 165.516 153.208 165.516 152.536C165.516 151.864 165.384 151.276 165.12 150.772C164.868 150.268 164.508 149.878 164.04 149.602C163.584 149.314 163.056 149.17 162.456 149.17C161.868 149.17 161.34 149.314 160.872 149.602C160.416 149.878 160.056 150.268 159.792 150.772C159.54 151.276 159.414 151.864 159.414 152.536C159.414 153.208 159.54 153.796 159.792 154.3C160.056 154.804 160.416 155.2 160.872 155.488C161.34 155.764 161.868 155.902 162.456 155.902ZM173.615 157.216C172.775 157.216 172.019 157.024 171.347 156.64C170.675 156.256 170.141 155.716 169.745 155.02C169.361 154.312 169.169 153.484 169.169 152.536C169.169 151.588 169.367 150.766 169.763 150.07C170.159 149.362 170.693 148.816 171.365 148.432C172.049 148.048 172.811 147.856 173.651 147.856C174.491 147.856 175.247 148.048 175.919 148.432C176.591 148.816 177.119 149.362 177.503 150.07C177.899 150.766 178.097 151.588 178.097 152.536C178.097 153.484 177.899 154.312 177.503 155.02C177.107 155.716 176.567 156.256 175.883 156.64C175.211 157.024 174.455 157.216 173.615 157.216ZM173.615 155.92C174.131 155.92 174.611 155.794 175.055 155.542C175.499 155.29 175.859 154.912 176.135 154.408C176.411 153.904 176.549 153.28 176.549 152.536C176.549 151.792 176.411 151.168 176.135 150.664C175.871 150.16 175.517 149.782 175.073 149.53C174.629 149.278 174.155 149.152 173.651 149.152C173.135 149.152 172.655 149.278 172.211 149.53C171.767 149.782 171.407 150.16 171.131 150.664C170.855 151.168 170.717 151.792 170.717 152.536C170.717 153.28 170.855 153.904 171.131 154.408C171.407 154.912 171.761 155.29 172.193 155.542C172.637 155.794 173.111 155.92 173.615 155.92ZM180.199 157V144.04H181.711V157H180.199ZM188.257 157.216C187.417 157.216 186.661 157.024 185.989 156.64C185.317 156.256 184.783 155.716 184.387 155.02C184.003 154.312 183.811 153.484 183.811 152.536C183.811 151.588 184.009 150.766 184.405 150.07C184.801 149.362 185.335 148.816 186.007 148.432C186.691 148.048 187.453 147.856 188.293 147.856C189.133 147.856 189.889 148.048 190.561 148.432C191.233 148.816 191.761 149.362 192.145 150.07C192.541 150.766 192.739 151.588 192.739 152.536C192.739 153.484 192.541 154.312 192.145 155.02C191.749 155.716 191.209 156.256 190.525 156.64C189.853 157.024 189.097 157.216 188.257 157.216ZM188.257 155.92C188.773 155.92 189.253 155.794 189.697 155.542C190.141 155.29 190.501 154.912 190.777 154.408C191.053 153.904 191.191 153.28 191.191 152.536C191.191 151.792 191.053 151.168 190.777 150.664C190.513 150.16 190.159 149.782 189.715 149.53C189.271 149.278 188.797 149.152 188.293 149.152C187.777 149.152 187.297 149.278 186.853 149.53C186.409 149.782 186.049 150.16 185.773 150.664C185.497 151.168 185.359 151.792 185.359 152.536C185.359 153.28 185.497 153.904 185.773 154.408C186.049 154.912 186.403 155.29 186.835 155.542C187.279 155.794 187.753 155.92 188.257 155.92ZM194.842 157V148.072H196.21L196.336 149.782C196.612 149.194 197.032 148.726 197.596 148.378C198.16 148.03 198.856 147.856 199.684 147.856V149.44H199.27C198.742 149.44 198.256 149.536 197.812 149.728C197.368 149.908 197.014 150.22 196.75 150.664C196.486 151.108 196.354 151.72 196.354 152.5V157H194.842ZM209.564 157.216C208.496 157.216 207.608 156.946 206.9 156.406C206.192 155.866 205.778 155.134 205.658 154.21H207.206C207.302 154.678 207.548 155.086 207.944 155.434C208.352 155.77 208.898 155.938 209.582 155.938C210.218 155.938 210.686 155.806 210.986 155.542C211.286 155.266 211.436 154.942 211.436 154.57C211.436 154.03 211.238 153.67 210.842 153.49C210.458 153.31 209.912 153.148 209.204 153.004C208.724 152.908 208.244 152.77 207.764 152.59C207.284 152.41 206.882 152.158 206.558 151.834C206.234 151.498 206.072 151.06 206.072 150.52C206.072 149.74 206.36 149.104 206.936 148.612C207.524 148.108 208.316 147.856 209.312 147.856C210.26 147.856 211.034 148.096 211.634 148.576C212.246 149.044 212.6 149.716 212.696 150.592H211.202C211.142 150.136 210.944 149.782 210.608 149.53C210.284 149.266 209.846 149.134 209.294 149.134C208.754 149.134 208.334 149.248 208.034 149.476C207.746 149.704 207.602 150.004 207.602 150.376C207.602 150.736 207.788 151.018 208.16 151.222C208.544 151.426 209.06 151.6 209.708 151.744C210.26 151.864 210.782 152.014 211.274 152.194C211.778 152.362 212.186 152.62 212.498 152.968C212.822 153.304 212.984 153.796 212.984 154.444C212.996 155.248 212.69 155.914 212.066 156.442C211.454 156.958 210.62 157.216 209.564 157.216ZM216.062 146.092C215.762 146.092 215.51 145.996 215.306 145.804C215.114 145.6 215.018 145.348 215.018 145.048C215.018 144.76 215.114 144.52 215.306 144.328C215.51 144.136 215.762 144.04 216.062 144.04C216.35 144.04 216.596 144.136 216.8 144.328C217.004 144.52 217.106 144.76 217.106 145.048C217.106 145.348 217.004 145.6 216.8 145.804C216.596 145.996 216.35 146.092 216.062 146.092ZM215.306 157V148.072H216.818V157H215.306ZM222.979 157C222.163 157 221.521 156.802 221.053 156.406C220.585 156.01 220.351 155.296 220.351 154.264V149.35H218.803V148.072H220.351L220.549 145.93H221.863V148.072H224.491V149.35H221.863V154.264C221.863 154.828 221.977 155.212 222.205 155.416C222.433 155.608 222.835 155.704 223.411 155.704H224.347V157H222.979ZM234.146 157.216C233.402 157.216 232.784 157.09 232.292 156.838C231.8 156.586 231.434 156.25 231.194 155.83C230.954 155.41 230.834 154.954 230.834 154.462C230.834 153.55 231.182 152.848 231.878 152.356C232.574 151.864 233.522 151.618 234.722 151.618H237.134V151.51C237.134 150.73 236.93 150.142 236.522 149.746C236.114 149.338 235.568 149.134 234.884 149.134C234.296 149.134 233.786 149.284 233.354 149.584C232.934 149.872 232.67 150.298 232.562 150.862H231.014C231.074 150.214 231.29 149.668 231.662 149.224C232.046 148.78 232.52 148.444 233.084 148.216C233.648 147.976 234.248 147.856 234.884 147.856C236.132 147.856 237.068 148.192 237.692 148.864C238.328 149.524 238.646 150.406 238.646 151.51V157H237.296L237.206 155.398C236.954 155.902 236.582 156.334 236.09 156.694C235.61 157.042 234.962 157.216 234.146 157.216ZM234.38 155.938C234.956 155.938 235.448 155.788 235.856 155.488C236.276 155.188 236.594 154.798 236.81 154.318C237.026 153.838 237.134 153.334 237.134 152.806V152.788H234.848C233.96 152.788 233.33 152.944 232.958 153.256C232.598 153.556 232.418 153.934 232.418 154.39C232.418 154.858 232.586 155.236 232.922 155.524C233.27 155.8 233.756 155.938 234.38 155.938ZM240.914 157V148.072H242.282L242.39 149.368C242.678 148.888 243.062 148.516 243.542 148.252C244.022 147.988 244.562 147.856 245.162 147.856C245.87 147.856 246.476 148 246.98 148.288C247.496 148.576 247.892 149.014 248.168 149.602C248.48 149.062 248.906 148.636 249.446 148.324C249.998 148.012 250.592 147.856 251.228 147.856C252.296 147.856 253.148 148.18 253.784 148.828C254.42 149.464 254.738 150.448 254.738 151.78V157H253.244V151.942C253.244 151.018 253.058 150.322 252.686 149.854C252.314 149.386 251.78 149.152 251.084 149.152C250.364 149.152 249.764 149.434 249.284 149.998C248.816 150.55 248.582 151.342 248.582 152.374V157H247.07V151.942C247.07 151.018 246.884 150.322 246.512 149.854C246.14 149.386 245.606 149.152 244.91 149.152C244.202 149.152 243.608 149.434 243.128 149.998C242.66 150.55 242.426 151.342 242.426 152.374V157H240.914ZM261.029 157.216C260.177 157.216 259.421 157.024 258.761 156.64C258.101 156.244 257.579 155.698 257.195 155.002C256.823 154.306 256.637 153.484 256.637 152.536C256.637 151.6 256.823 150.784 257.195 150.088C257.567 149.38 258.083 148.834 258.743 148.45C259.415 148.054 260.189 147.856 261.065 147.856C261.929 147.856 262.673 148.054 263.297 148.45C263.933 148.834 264.419 149.344 264.755 149.98C265.091 150.616 265.259 151.3 265.259 152.032C265.259 152.164 265.253 152.296 265.241 152.428C265.241 152.56 265.241 152.71 265.241 152.878H258.131C258.167 153.562 258.323 154.132 258.599 154.588C258.887 155.032 259.241 155.368 259.661 155.596C260.093 155.824 260.549 155.938 261.029 155.938C261.653 155.938 262.175 155.794 262.595 155.506C263.015 155.218 263.321 154.828 263.513 154.336H265.007C264.767 155.164 264.305 155.854 263.621 156.406C262.949 156.946 262.085 157.216 261.029 157.216ZM261.029 149.134C260.309 149.134 259.667 149.356 259.103 149.8C258.551 150.232 258.233 150.868 258.149 151.708H263.765C263.729 150.904 263.453 150.274 262.937 149.818C262.421 149.362 261.785 149.134 261.029 149.134ZM270.493 157C269.677 157 269.035 156.802 268.567 156.406C268.099 156.01 267.865 155.296 267.865 154.264V149.35H266.317V148.072H267.865L268.063 145.93H269.377V148.072H272.005V149.35H269.377V154.264C269.377 154.828 269.491 155.212 269.719 155.416C269.947 155.608 270.349 155.704 270.925 155.704H271.861V157H270.493ZM273.651 159.142L274.695 155.164H276.261L274.695 159.142H273.651ZM53.7151 182.216C52.8631 182.216 52.0951 182.024 51.4111 181.64C50.7391 181.244 50.2051 180.698 49.8091 180.002C49.4251 179.294 49.2331 178.472 49.2331 177.536C49.2331 176.6 49.4251 175.784 49.8091 175.088C50.2051 174.38 50.7391 173.834 51.4111 173.45C52.0951 173.054 52.8631 172.856 53.7151 172.856C54.7711 172.856 55.6591 173.132 56.3791 173.684C57.1111 174.236 57.5731 174.974 57.7651 175.898H56.2171C56.0971 175.346 55.8031 174.92 55.3351 174.62C54.8671 174.308 54.3211 174.152 53.6971 174.152C53.1931 174.152 52.7191 174.278 52.2751 174.53C51.8311 174.782 51.4711 175.16 51.1951 175.664C50.9191 176.168 50.7811 176.792 50.7811 177.536C50.7811 178.28 50.9191 178.904 51.1951 179.408C51.4711 179.912 51.8311 180.296 52.2751 180.56C52.7191 180.812 53.1931 180.938 53.6971 180.938C54.3211 180.938 54.8671 180.788 55.3351 180.488C55.8031 180.176 56.0971 179.738 56.2171 179.174H57.7651C57.5851 180.074 57.1291 180.806 56.3971 181.37C55.6651 181.934 54.7711 182.216 53.7151 182.216ZM63.9448 182.216C63.1048 182.216 62.3488 182.024 61.6768 181.64C61.0048 181.256 60.4708 180.716 60.0748 180.02C59.6908 179.312 59.4988 178.484 59.4988 177.536C59.4988 176.588 59.6968 175.766 60.0928 175.07C60.4888 174.362 61.0228 173.816 61.6948 173.432C62.3788 173.048 63.1408 172.856 63.9808 172.856C64.8208 172.856 65.5768 173.048 66.2488 173.432C66.9208 173.816 67.4488 174.362 67.8328 175.07C68.2288 175.766 68.4268 176.588 68.4268 177.536C68.4268 178.484 68.2288 179.312 67.8328 180.02C67.4368 180.716 66.8968 181.256 66.2128 181.64C65.5408 182.024 64.7848 182.216 63.9448 182.216ZM63.9448 180.92C64.4608 180.92 64.9408 180.794 65.3848 180.542C65.8288 180.29 66.1888 179.912 66.4648 179.408C66.7408 178.904 66.8788 178.28 66.8788 177.536C66.8788 176.792 66.7408 176.168 66.4648 175.664C66.2008 175.16 65.8468 174.782 65.4028 174.53C64.9588 174.278 64.4848 174.152 63.9808 174.152C63.4648 174.152 62.9848 174.278 62.5408 174.53C62.0968 174.782 61.7368 175.16 61.4608 175.664C61.1848 176.168 61.0468 176.792 61.0468 177.536C61.0468 178.28 61.1848 178.904 61.4608 179.408C61.7368 179.912 62.0908 180.29 62.5228 180.542C62.9668 180.794 63.4408 180.92 63.9448 180.92ZM70.5291 182V173.072H71.8971L71.9871 174.674C72.2751 174.11 72.6891 173.666 73.2291 173.342C73.7691 173.018 74.3811 172.856 75.0651 172.856C76.1211 172.856 76.9611 173.18 77.5851 173.828C78.2211 174.464 78.5391 175.448 78.5391 176.78V182H77.0271V176.942C77.0271 175.082 76.2591 174.152 74.7231 174.152C73.9551 174.152 73.3131 174.434 72.7971 174.998C72.2931 175.55 72.0411 176.342 72.0411 177.374V182H70.5291ZM84.2499 182.216C83.1819 182.216 82.2939 181.946 81.5859 181.406C80.8779 180.866 80.4639 180.134 80.3439 179.21H81.8919C81.9879 179.678 82.2339 180.086 82.6299 180.434C83.0379 180.77 83.5839 180.938 84.2679 180.938C84.9039 180.938 85.3719 180.806 85.6719 180.542C85.9719 180.266 86.1219 179.942 86.1219 179.57C86.1219 179.03 85.9239 178.67 85.5279 178.49C85.1439 178.31 84.5979 178.148 83.8899 178.004C83.4099 177.908 82.9299 177.77 82.4499 177.59C81.9699 177.41 81.5679 177.158 81.2439 176.834C80.9199 176.498 80.7579 176.06 80.7579 175.52C80.7579 174.74 81.0459 174.104 81.6219 173.612C82.2099 173.108 83.0019 172.856 83.9979 172.856C84.9459 172.856 85.7199 173.096 86.3199 173.576C86.9319 174.044 87.2859 174.716 87.3819 175.592H85.8879C85.8279 175.136 85.6299 174.782 85.2939 174.53C84.9699 174.266 84.5319 174.134 83.9799 174.134C83.4399 174.134 83.0199 174.248 82.7199 174.476C82.4319 174.704 82.2879 175.004 82.2879 175.376C82.2879 175.736 82.4739 176.018 82.8459 176.222C83.2299 176.426 83.7459 176.6 84.3939 176.744C84.9459 176.864 85.4679 177.014 85.9599 177.194C86.4639 177.362 86.8719 177.62 87.1839 177.968C87.5079 178.304 87.6699 178.796 87.6699 179.444C87.6819 180.248 87.3759 180.914 86.7519 181.442C86.1399 181.958 85.3059 182.216 84.2499 182.216ZM93.8439 182.216C92.9919 182.216 92.2359 182.024 91.5759 181.64C90.9159 181.244 90.3939 180.698 90.0099 180.002C89.6379 179.306 89.4519 178.484 89.4519 177.536C89.4519 176.6 89.6379 175.784 90.0099 175.088C90.3819 174.38 90.8979 173.834 91.5579 173.45C92.2299 173.054 93.0039 172.856 93.8799 172.856C94.7439 172.856 95.4879 173.054 96.1119 173.45C96.7479 173.834 97.2339 174.344 97.5699 174.98C97.9059 175.616 98.0739 176.3 98.0739 177.032C98.0739 177.164 98.0679 177.296 98.0559 177.428C98.0559 177.56 98.0559 177.71 98.0559 177.878H90.9459C90.9819 178.562 91.1379 179.132 91.4139 179.588C91.7019 180.032 92.0559 180.368 92.4759 180.596C92.9079 180.824 93.3639 180.938 93.8439 180.938C94.4679 180.938 94.9899 180.794 95.4099 180.506C95.8299 180.218 96.1359 179.828 96.3279 179.336H97.8219C97.5819 180.164 97.1199 180.854 96.4359 181.406C95.7639 181.946 94.8999 182.216 93.8439 182.216ZM93.8439 174.134C93.1239 174.134 92.4819 174.356 91.9179 174.8C91.3659 175.232 91.0479 175.868 90.9639 176.708H96.5799C96.5439 175.904 96.2679 175.274 95.7519 174.818C95.2359 174.362 94.5999 174.134 93.8439 174.134ZM104.182 182.216C103.33 182.216 102.562 182.024 101.878 181.64C101.206 181.244 100.672 180.698 100.276 180.002C99.8919 179.294 99.6999 178.472 99.6999 177.536C99.6999 176.6 99.8919 175.784 100.276 175.088C100.672 174.38 101.206 173.834 101.878 173.45C102.562 173.054 103.33 172.856 104.182 172.856C105.238 172.856 106.126 173.132 106.846 173.684C107.578 174.236 108.04 174.974 108.232 175.898H106.684C106.564 175.346 106.27 174.92 105.802 174.62C105.334 174.308 104.788 174.152 104.164 174.152C103.66 174.152 103.186 174.278 102.742 174.53C102.298 174.782 101.938 175.16 101.662 175.664C101.386 176.168 101.248 176.792 101.248 177.536C101.248 178.28 101.386 178.904 101.662 179.408C101.938 179.912 102.298 180.296 102.742 180.56C103.186 180.812 103.66 180.938 104.164 180.938C104.788 180.938 105.334 180.788 105.802 180.488C106.27 180.176 106.564 179.738 106.684 179.174H108.232C108.052 180.074 107.596 180.806 106.864 181.37C106.132 181.934 105.238 182.216 104.182 182.216ZM113.625 182C112.809 182 112.167 181.802 111.699 181.406C111.231 181.01 110.997 180.296 110.997 179.264V174.35H109.449V173.072H110.997L111.195 170.93H112.509V173.072H115.137V174.35H112.509V179.264C112.509 179.828 112.623 180.212 112.851 180.416C113.079 180.608 113.481 180.704 114.057 180.704H114.993V182H113.625ZM120.826 182.216C119.974 182.216 119.218 182.024 118.558 181.64C117.898 181.244 117.376 180.698 116.992 180.002C116.62 179.306 116.434 178.484 116.434 177.536C116.434 176.6 116.62 175.784 116.992 175.088C117.364 174.38 117.88 173.834 118.54 173.45C119.212 173.054 119.986 172.856 120.862 172.856C121.726 172.856 122.47 173.054 123.094 173.45C123.73 173.834 124.216 174.344 124.552 174.98C124.888 175.616 125.056 176.3 125.056 177.032C125.056 177.164 125.05 177.296 125.038 177.428C125.038 177.56 125.038 177.71 125.038 177.878H117.928C117.964 178.562 118.12 179.132 118.396 179.588C118.684 180.032 119.038 180.368 119.458 180.596C119.89 180.824 120.346 180.938 120.826 180.938C121.45 180.938 121.972 180.794 122.392 180.506C122.812 180.218 123.118 179.828 123.31 179.336H124.804C124.564 180.164 124.102 180.854 123.418 181.406C122.746 181.946 121.882 182.216 120.826 182.216ZM120.826 174.134C120.106 174.134 119.464 174.356 118.9 174.8C118.348 175.232 118.03 175.868 117.946 176.708H123.562C123.526 175.904 123.25 175.274 122.734 174.818C122.218 174.362 121.582 174.134 120.826 174.134ZM130.29 182C129.474 182 128.832 181.802 128.364 181.406C127.896 181.01 127.662 180.296 127.662 179.264V174.35H126.114V173.072H127.662L127.86 170.93H129.174V173.072H131.802V174.35H129.174V179.264C129.174 179.828 129.288 180.212 129.516 180.416C129.744 180.608 130.146 180.704 130.722 180.704H131.658V182H130.29ZM136.98 182.216C135.924 182.216 135.084 181.898 134.46 181.262C133.836 180.614 133.524 179.624 133.524 178.292V173.072H135.036V178.13C135.036 179.99 135.798 180.92 137.322 180.92C138.102 180.92 138.744 180.644 139.248 180.092C139.764 179.528 140.022 178.73 140.022 177.698V173.072H141.534V182H140.166L140.058 180.398C139.782 180.962 139.368 181.406 138.816 181.73C138.276 182.054 137.664 182.216 136.98 182.216ZM144.023 182V173.072H145.391L145.517 174.782C145.793 174.194 146.213 173.726 146.777 173.378C147.341 173.03 148.037 172.856 148.865 172.856V174.44H148.451C147.923 174.44 147.437 174.536 146.993 174.728C146.549 174.908 146.195 175.22 145.931 175.664C145.667 176.108 145.535 176.72 145.535 177.5V182H144.023ZM158.296 182.216C157.552 182.216 156.934 182.09 156.442 181.838C155.95 181.586 155.584 181.25 155.344 180.83C155.104 180.41 154.984 179.954 154.984 179.462C154.984 178.55 155.332 177.848 156.028 177.356C156.724 176.864 157.672 176.618 158.872 176.618H161.284V176.51C161.284 175.73 161.08 175.142 160.672 174.746C160.264 174.338 159.718 174.134 159.034 174.134C158.446 174.134 157.936 174.284 157.504 174.584C157.084 174.872 156.82 175.298 156.712 175.862H155.164C155.224 175.214 155.44 174.668 155.812 174.224C156.196 173.78 156.67 173.444 157.234 173.216C157.798 172.976 158.398 172.856 159.034 172.856C160.282 172.856 161.218 173.192 161.842 173.864C162.478 174.524 162.796 175.406 162.796 176.51V182H161.446L161.356 180.398C161.104 180.902 160.732 181.334 160.24 181.694C159.76 182.042 159.112 182.216 158.296 182.216ZM158.53 180.938C159.106 180.938 159.598 180.788 160.006 180.488C160.426 180.188 160.744 179.798 160.96 179.318C161.176 178.838 161.284 178.334 161.284 177.806V177.788H158.998C158.11 177.788 157.48 177.944 157.108 178.256C156.748 178.556 156.568 178.934 156.568 179.39C156.568 179.858 156.736 180.236 157.072 180.524C157.42 180.8 157.906 180.938 158.53 180.938ZM169.114 182.216C168.226 182.216 167.446 182.012 166.774 181.604C166.114 181.196 165.598 180.638 165.226 179.93C164.866 179.222 164.686 178.418 164.686 177.518C164.686 176.618 164.872 175.82 165.244 175.124C165.616 174.416 166.132 173.864 166.792 173.468C167.452 173.06 168.232 172.856 169.132 172.856C169.864 172.856 170.512 173.006 171.076 173.306C171.64 173.606 172.078 174.026 172.39 174.566V169.04H173.902V182H172.534L172.39 180.524C172.102 180.956 171.688 181.346 171.148 181.694C170.608 182.042 169.93 182.216 169.114 182.216ZM169.276 180.902C169.876 180.902 170.404 180.764 170.86 180.488C171.328 180.2 171.688 179.804 171.94 179.3C172.204 178.796 172.336 178.208 172.336 177.536C172.336 176.864 172.204 176.276 171.94 175.772C171.688 175.268 171.328 174.878 170.86 174.602C170.404 174.314 169.876 174.17 169.276 174.17C168.688 174.17 168.16 174.314 167.692 174.602C167.236 174.878 166.876 175.268 166.612 175.772C166.36 176.276 166.234 176.864 166.234 177.536C166.234 178.208 166.36 178.796 166.612 179.3C166.876 179.804 167.236 180.2 167.692 180.488C168.16 180.764 168.688 180.902 169.276 180.902ZM177.285 171.092C176.985 171.092 176.733 170.996 176.529 170.804C176.337 170.6 176.241 170.348 176.241 170.048C176.241 169.76 176.337 169.52 176.529 169.328C176.733 169.136 176.985 169.04 177.285 169.04C177.573 169.04 177.819 169.136 178.023 169.328C178.227 169.52 178.329 169.76 178.329 170.048C178.329 170.348 178.227 170.6 178.023 170.804C177.819 170.996 177.573 171.092 177.285 171.092ZM176.529 182V173.072H178.041V182H176.529ZM180.674 185.96V173.072H182.042L182.186 174.548C182.474 174.116 182.882 173.726 183.41 173.378C183.95 173.03 184.634 172.856 185.462 172.856C186.35 172.856 187.124 173.06 187.784 173.468C188.444 173.876 188.954 174.434 189.314 175.142C189.686 175.85 189.872 176.654 189.872 177.554C189.872 178.454 189.686 179.258 189.314 179.966C188.954 180.662 188.438 181.214 187.766 181.622C187.106 182.018 186.332 182.216 185.444 182.216C184.712 182.216 184.058 182.066 183.482 181.766C182.918 181.466 182.486 181.046 182.186 180.506V185.96H180.674ZM185.282 180.902C185.882 180.902 186.41 180.764 186.866 180.488C187.322 180.2 187.682 179.804 187.946 179.3C188.21 178.796 188.342 178.208 188.342 177.536C188.342 176.864 188.21 176.276 187.946 175.772C187.682 175.268 187.322 174.878 186.866 174.602C186.41 174.314 185.882 174.17 185.282 174.17C184.682 174.17 184.154 174.314 183.698 174.602C183.242 174.878 182.882 175.268 182.618 175.772C182.354 176.276 182.222 176.864 182.222 177.536C182.222 178.208 182.354 178.796 182.618 179.3C182.882 179.804 183.242 180.2 183.698 180.488C184.154 180.764 184.682 180.902 185.282 180.902ZM192.894 171.092C192.594 171.092 192.342 170.996 192.138 170.804C191.946 170.6 191.85 170.348 191.85 170.048C191.85 169.76 191.946 169.52 192.138 169.328C192.342 169.136 192.594 169.04 192.894 169.04C193.182 169.04 193.428 169.136 193.632 169.328C193.836 169.52 193.938 169.76 193.938 170.048C193.938 170.348 193.836 170.6 193.632 170.804C193.428 170.996 193.182 171.092 192.894 171.092ZM192.138 182V173.072H193.65V182H192.138ZM199.703 182.216C198.635 182.216 197.747 181.946 197.039 181.406C196.331 180.866 195.917 180.134 195.797 179.21H197.345C197.441 179.678 197.687 180.086 198.083 180.434C198.491 180.77 199.037 180.938 199.721 180.938C200.357 180.938 200.825 180.806 201.125 180.542C201.425 180.266 201.575 179.942 201.575 179.57C201.575 179.03 201.377 178.67 200.981 178.49C200.597 178.31 200.051 178.148 199.343 178.004C198.863 177.908 198.383 177.77 197.903 177.59C197.423 177.41 197.021 177.158 196.697 176.834C196.373 176.498 196.211 176.06 196.211 175.52C196.211 174.74 196.499 174.104 197.075 173.612C197.663 173.108 198.455 172.856 199.451 172.856C200.399 172.856 201.173 173.096 201.773 173.576C202.385 174.044 202.739 174.716 202.835 175.592H201.341C201.281 175.136 201.083 174.782 200.747 174.53C200.423 174.266 199.985 174.134 199.433 174.134C198.893 174.134 198.473 174.248 198.173 174.476C197.885 174.704 197.741 175.004 197.741 175.376C197.741 175.736 197.927 176.018 198.299 176.222C198.683 176.426 199.199 176.6 199.847 176.744C200.399 176.864 200.921 177.014 201.413 177.194C201.917 177.362 202.325 177.62 202.637 177.968C202.961 178.304 203.123 178.796 203.123 179.444C203.135 180.248 202.829 180.914 202.205 181.442C201.593 181.958 200.759 182.216 199.703 182.216ZM209.387 182.216C208.535 182.216 207.767 182.024 207.083 181.64C206.411 181.244 205.877 180.698 205.481 180.002C205.097 179.294 204.905 178.472 204.905 177.536C204.905 176.6 205.097 175.784 205.481 175.088C205.877 174.38 206.411 173.834 207.083 173.45C207.767 173.054 208.535 172.856 209.387 172.856C210.443 172.856 211.331 173.132 212.051 173.684C212.783 174.236 213.245 174.974 213.437 175.898H211.889C211.769 175.346 211.475 174.92 211.007 174.62C210.539 174.308 209.993 174.152 209.369 174.152C208.865 174.152 208.391 174.278 207.947 174.53C207.503 174.782 207.143 175.16 206.867 175.664C206.591 176.168 206.453 176.792 206.453 177.536C206.453 178.28 206.591 178.904 206.867 179.408C207.143 179.912 207.503 180.296 207.947 180.56C208.391 180.812 208.865 180.938 209.369 180.938C209.993 180.938 210.539 180.788 211.007 180.488C211.475 180.176 211.769 179.738 211.889 179.174H213.437C213.257 180.074 212.801 180.806 212.069 181.37C211.337 181.934 210.443 182.216 209.387 182.216ZM216.467 171.092C216.167 171.092 215.915 170.996 215.711 170.804C215.519 170.6 215.423 170.348 215.423 170.048C215.423 169.76 215.519 169.52 215.711 169.328C215.915 169.136 216.167 169.04 216.467 169.04C216.755 169.04 217.001 169.136 217.205 169.328C217.409 169.52 217.511 169.76 217.511 170.048C217.511 170.348 217.409 170.6 217.205 170.804C217.001 170.996 216.755 171.092 216.467 171.092ZM215.711 182V173.072H217.223V182H215.711ZM219.855 182V173.072H221.223L221.313 174.674C221.601 174.11 222.015 173.666 222.555 173.342C223.095 173.018 223.707 172.856 224.391 172.856C225.447 172.856 226.287 173.18 226.911 173.828C227.547 174.464 227.865 175.448 227.865 176.78V182H226.353V176.942C226.353 175.082 225.585 174.152 224.049 174.152C223.281 174.152 222.639 174.434 222.123 174.998C221.619 175.55 221.367 176.342 221.367 177.374V182H219.855ZM233.684 179.192C233.18 179.192 232.718 179.126 232.298 178.994L231.398 179.84C231.53 179.936 231.692 180.02 231.884 180.092C232.088 180.152 232.376 180.212 232.748 180.272C233.12 180.32 233.642 180.374 234.314 180.434C235.514 180.518 236.372 180.794 236.888 181.262C237.404 181.73 237.662 182.342 237.662 183.098C237.662 183.614 237.518 184.106 237.23 184.574C236.954 185.042 236.522 185.426 235.934 185.726C235.358 186.026 234.614 186.176 233.702 186.176C232.898 186.176 232.184 186.068 231.56 185.852C230.936 185.648 230.45 185.33 230.102 184.898C229.754 184.478 229.58 183.944 229.58 183.296C229.58 182.96 229.67 182.594 229.85 182.198C230.03 181.814 230.366 181.448 230.858 181.1C230.594 180.992 230.366 180.878 230.174 180.758C229.994 180.626 229.826 180.482 229.67 180.326V179.912L231.2 178.4C230.492 177.8 230.138 177.008 230.138 176.024C230.138 175.436 230.276 174.902 230.552 174.422C230.828 173.942 231.23 173.564 231.758 173.288C232.286 173 232.928 172.856 233.684 172.856C234.2 172.856 234.668 172.928 235.088 173.072H238.382V174.206L236.708 174.278C237.056 174.782 237.23 175.364 237.23 176.024C237.23 176.612 237.086 177.146 236.798 177.626C236.522 178.106 236.12 178.49 235.592 178.778C235.076 179.054 234.44 179.192 233.684 179.192ZM233.684 177.95C234.32 177.95 234.824 177.788 235.196 177.464C235.58 177.128 235.772 176.648 235.772 176.024C235.772 175.412 235.58 174.944 235.196 174.62C234.824 174.284 234.32 174.116 233.684 174.116C233.036 174.116 232.52 174.284 232.136 174.62C231.764 174.944 231.578 175.412 231.578 176.024C231.578 176.648 231.764 177.128 232.136 177.464C232.52 177.788 233.036 177.95 233.684 177.95ZM231.056 183.152C231.056 183.752 231.308 184.196 231.812 184.484C232.316 184.784 232.946 184.934 233.702 184.934C234.446 184.934 235.04 184.772 235.484 184.448C235.94 184.124 236.168 183.692 236.168 183.152C236.168 182.768 236.012 182.432 235.7 182.144C235.388 181.868 234.812 181.706 233.972 181.658C233.312 181.61 232.742 181.55 232.262 181.478C231.77 181.742 231.446 182.024 231.29 182.324C231.134 182.636 231.056 182.912 231.056 183.152ZM248.865 182.216C248.013 182.216 247.257 182.024 246.597 181.64C245.937 181.244 245.415 180.698 245.031 180.002C244.659 179.306 244.473 178.484 244.473 177.536C244.473 176.6 244.659 175.784 245.031 175.088C245.403 174.38 245.919 173.834 246.579 173.45C247.251 173.054 248.025 172.856 248.901 172.856C249.765 172.856 250.509 173.054 251.133 173.45C251.769 173.834 252.255 174.344 252.591 174.98C252.927 175.616 253.095 176.3 253.095 177.032C253.095 177.164 253.089 177.296 253.077 177.428C253.077 177.56 253.077 177.71 253.077 177.878H245.967C246.003 178.562 246.159 179.132 246.435 179.588C246.723 180.032 247.077 180.368 247.497 180.596C247.929 180.824 248.385 180.938 248.865 180.938C249.489 180.938 250.011 180.794 250.431 180.506C250.851 180.218 251.157 179.828 251.349 179.336H252.843C252.603 180.164 252.141 180.854 251.457 181.406C250.785 181.946 249.921 182.216 248.865 182.216ZM248.865 174.134C248.145 174.134 247.503 174.356 246.939 174.8C246.387 175.232 246.069 175.868 245.985 176.708H251.601C251.565 175.904 251.289 175.274 250.773 174.818C250.257 174.362 249.621 174.134 248.865 174.134ZM255.099 182V169.04H256.611V182H255.099ZM260.008 171.092C259.708 171.092 259.456 170.996 259.252 170.804C259.06 170.6 258.964 170.348 258.964 170.048C258.964 169.76 259.06 169.52 259.252 169.328C259.456 169.136 259.708 169.04 260.008 169.04C260.296 169.04 260.542 169.136 260.746 169.328C260.95 169.52 261.052 169.76 261.052 170.048C261.052 170.348 260.95 170.6 260.746 170.804C260.542 170.996 260.296 171.092 260.008 171.092ZM259.252 182V173.072H260.764V182H259.252ZM266.924 182C266.108 182 265.466 181.802 264.998 181.406C264.53 181.01 264.296 180.296 264.296 179.264V174.35H262.748V173.072H264.296L264.494 170.93H265.808V173.072H268.436V174.35H265.808V179.264C265.808 179.828 265.922 180.212 266.15 180.416C266.378 180.608 266.78 180.704 267.356 180.704H268.292V182H266.924ZM270.879 182.09C270.579 182.09 270.327 181.994 270.123 181.802C269.931 181.598 269.835 181.352 269.835 181.064C269.835 180.776 269.931 180.536 270.123 180.344C270.327 180.14 270.579 180.038 270.879 180.038C271.167 180.038 271.407 180.14 271.599 180.344C271.803 180.536 271.905 180.776 271.905 181.064C271.905 181.352 271.803 181.598 271.599 181.802C271.407 181.994 271.167 182.09 270.879 182.09ZM65.76 207.216C64.896 207.216 64.11 207.048 63.402 206.712C62.706 206.364 62.148 205.83 61.728 205.11C61.308 204.39 61.098 203.472 61.098 202.356V194.4H62.61V202.374C62.61 203.598 62.904 204.486 63.492 205.038C64.08 205.59 64.848 205.866 65.796 205.866C66.744 205.866 67.506 205.59 68.082 205.038C68.658 204.486 68.946 203.598 68.946 202.374V194.4H70.458V202.356C70.458 203.472 70.248 204.39 69.828 205.11C69.408 205.83 68.844 206.364 68.136 206.712C67.428 207.048 66.636 207.216 65.76 207.216ZM76.4565 207C75.6405 207 74.9985 206.802 74.5305 206.406C74.0625 206.01 73.8285 205.296 73.8285 204.264V199.35H72.2805V198.072H73.8285L74.0265 195.93H75.3405V198.072H77.9685V199.35H75.3405V204.264C75.3405 204.828 75.4545 205.212 75.6825 205.416C75.9105 205.608 76.3125 205.704 76.8885 205.704H77.8245V207H76.4565ZM84.6531 207V194.04H86.1651V207H84.6531ZM92.7114 207.216C91.8714 207.216 91.1154 207.024 90.4434 206.64C89.7714 206.256 89.2374 205.716 88.8414 205.02C88.4574 204.312 88.2654 203.484 88.2654 202.536C88.2654 201.588 88.4634 200.766 88.8594 200.07C89.2554 199.362 89.7894 198.816 90.4614 198.432C91.1454 198.048 91.9074 197.856 92.7474 197.856C93.5874 197.856 94.3434 198.048 95.0154 198.432C95.6874 198.816 96.2154 199.362 96.5994 200.07C96.9954 200.766 97.1934 201.588 97.1934 202.536C97.1934 203.484 96.9954 204.312 96.5994 205.02C96.2034 205.716 95.6634 206.256 94.9794 206.64C94.3074 207.024 93.5514 207.216 92.7114 207.216ZM92.7114 205.92C93.2274 205.92 93.7074 205.794 94.1514 205.542C94.5954 205.29 94.9554 204.912 95.2314 204.408C95.5074 203.904 95.6454 203.28 95.6454 202.536C95.6454 201.792 95.5074 201.168 95.2314 200.664C94.9674 200.16 94.6134 199.782 94.1694 199.53C93.7254 199.278 93.2514 199.152 92.7474 199.152C92.2314 199.152 91.7514 199.278 91.3074 199.53C90.8634 199.782 90.5034 200.16 90.2274 200.664C89.9514 201.168 89.8134 201.792 89.8134 202.536C89.8134 203.28 89.9514 203.904 90.2274 204.408C90.5034 204.912 90.8574 205.29 91.2894 205.542C91.7334 205.794 92.2074 205.92 92.7114 205.92ZM104.066 207.216C103.334 207.216 102.68 207.066 102.104 206.766C101.54 206.466 101.108 206.046 100.808 205.506L100.664 207H99.2957V194.04H100.808V199.548C101.096 199.116 101.504 198.726 102.032 198.378C102.572 198.03 103.256 197.856 104.084 197.856C104.972 197.856 105.746 198.06 106.406 198.468C107.066 198.876 107.576 199.434 107.936 200.142C108.308 200.85 108.494 201.654 108.494 202.554C108.494 203.454 108.308 204.258 107.936 204.966C107.576 205.662 107.06 206.214 106.388 206.622C105.728 207.018 104.954 207.216 104.066 207.216ZM103.904 205.902C104.504 205.902 105.032 205.764 105.488 205.488C105.944 205.2 106.304 204.804 106.568 204.3C106.832 203.796 106.964 203.208 106.964 202.536C106.964 201.864 106.832 201.276 106.568 200.772C106.304 200.268 105.944 199.878 105.488 199.602C105.032 199.314 104.504 199.17 103.904 199.17C103.304 199.17 102.776 199.314 102.32 199.602C101.864 199.878 101.504 200.268 101.24 200.772C100.976 201.276 100.844 201.864 100.844 202.536C100.844 203.208 100.976 203.796 101.24 204.3C101.504 204.804 101.864 205.2 102.32 205.488C102.776 205.764 103.304 205.902 103.904 205.902ZM114.666 207.216C113.826 207.216 113.07 207.024 112.398 206.64C111.726 206.256 111.192 205.716 110.796 205.02C110.412 204.312 110.22 203.484 110.22 202.536C110.22 201.588 110.418 200.766 110.814 200.07C111.21 199.362 111.744 198.816 112.416 198.432C113.1 198.048 113.862 197.856 114.702 197.856C115.542 197.856 116.298 198.048 116.97 198.432C117.642 198.816 118.17 199.362 118.554 200.07C118.95 200.766 119.148 201.588 119.148 202.536C119.148 203.484 118.95 204.312 118.554 205.02C118.158 205.716 117.618 206.256 116.934 206.64C116.262 207.024 115.506 207.216 114.666 207.216ZM114.666 205.92C115.182 205.92 115.662 205.794 116.106 205.542C116.55 205.29 116.91 204.912 117.186 204.408C117.462 203.904 117.6 203.28 117.6 202.536C117.6 201.792 117.462 201.168 117.186 200.664C116.922 200.16 116.568 199.782 116.124 199.53C115.68 199.278 115.206 199.152 114.702 199.152C114.186 199.152 113.706 199.278 113.262 199.53C112.818 199.782 112.458 200.16 112.182 200.664C111.906 201.168 111.768 201.792 111.768 202.536C111.768 203.28 111.906 203.904 112.182 204.408C112.458 204.912 112.812 205.29 113.244 205.542C113.688 205.794 114.162 205.92 114.666 205.92ZM121.251 207V198.072H122.619L122.745 199.782C123.021 199.194 123.441 198.726 124.005 198.378C124.569 198.03 125.265 197.856 126.093 197.856V199.44H125.679C125.151 199.44 124.665 199.536 124.221 199.728C123.777 199.908 123.423 200.22 123.159 200.664C122.895 201.108 122.763 201.72 122.763 202.5V207H121.251ZM131.318 207C130.502 207 129.86 206.802 129.392 206.406C128.924 206.01 128.69 205.296 128.69 204.264V199.35H127.142V198.072H128.69L128.888 195.93H130.202V198.072H132.83V199.35H130.202V204.264C130.202 204.828 130.316 205.212 130.544 205.416C130.772 205.608 131.174 205.704 131.75 205.704H132.686V207H131.318ZM135.669 196.092C135.369 196.092 135.117 195.996 134.913 195.804C134.721 195.6 134.625 195.348 134.625 195.048C134.625 194.76 134.721 194.52 134.913 194.328C135.117 194.136 135.369 194.04 135.669 194.04C135.957 194.04 136.203 194.136 136.407 194.328C136.611 194.52 136.713 194.76 136.713 195.048C136.713 195.348 136.611 195.6 136.407 195.804C136.203 195.996 135.957 196.092 135.669 196.092ZM134.913 207V198.072H136.425V207H134.913ZM142.477 207.216C141.409 207.216 140.521 206.946 139.813 206.406C139.105 205.866 138.691 205.134 138.571 204.21H140.119C140.215 204.678 140.461 205.086 140.857 205.434C141.265 205.77 141.811 205.938 142.495 205.938C143.131 205.938 143.599 205.806 143.899 205.542C144.199 205.266 144.349 204.942 144.349 204.57C144.349 204.03 144.151 203.67 143.755 203.49C143.371 203.31 142.825 203.148 142.117 203.004C141.637 202.908 141.157 202.77 140.677 202.59C140.197 202.41 139.795 202.158 139.471 201.834C139.147 201.498 138.985 201.06 138.985 200.52C138.985 199.74 139.273 199.104 139.849 198.612C140.437 198.108 141.229 197.856 142.225 197.856C143.173 197.856 143.947 198.096 144.547 198.576C145.159 199.044 145.513 199.716 145.609 200.592H144.115C144.055 200.136 143.857 199.782 143.521 199.53C143.197 199.266 142.759 199.134 142.207 199.134C141.667 199.134 141.247 199.248 140.947 199.476C140.659 199.704 140.515 200.004 140.515 200.376C140.515 200.736 140.701 201.018 141.073 201.222C141.457 201.426 141.973 201.6 142.621 201.744C143.173 201.864 143.695 202.014 144.187 202.194C144.691 202.362 145.099 202.62 145.411 202.968C145.735 203.304 145.897 203.796 145.897 204.444C145.909 205.248 145.603 205.914 144.979 206.442C144.367 206.958 143.533 207.216 142.477 207.216ZM155.791 207.216C155.047 207.216 154.429 207.09 153.937 206.838C153.445 206.586 153.079 206.25 152.839 205.83C152.599 205.41 152.479 204.954 152.479 204.462C152.479 203.55 152.827 202.848 153.523 202.356C154.219 201.864 155.167 201.618 156.367 201.618H158.779V201.51C158.779 200.73 158.575 200.142 158.167 199.746C157.759 199.338 157.213 199.134 156.529 199.134C155.941 199.134 155.431 199.284 154.999 199.584C154.579 199.872 154.315 200.298 154.207 200.862H152.659C152.719 200.214 152.935 199.668 153.307 199.224C153.691 198.78 154.165 198.444 154.729 198.216C155.293 197.976 155.893 197.856 156.529 197.856C157.777 197.856 158.713 198.192 159.337 198.864C159.973 199.524 160.291 200.406 160.291 201.51V207H158.941L158.851 205.398C158.599 205.902 158.227 206.334 157.735 206.694C157.255 207.042 156.607 207.216 155.791 207.216ZM156.025 205.938C156.601 205.938 157.093 205.788 157.501 205.488C157.921 205.188 158.239 204.798 158.455 204.318C158.671 203.838 158.779 203.334 158.779 202.806V202.788H156.493C155.605 202.788 154.975 202.944 154.603 203.256C154.243 203.556 154.063 203.934 154.063 204.39C154.063 204.858 154.231 205.236 154.567 205.524C154.915 205.8 155.401 205.938 156.025 205.938ZM162.559 207V198.072H163.927L164.017 199.674C164.305 199.11 164.719 198.666 165.259 198.342C165.799 198.018 166.411 197.856 167.095 197.856C168.151 197.856 168.991 198.18 169.615 198.828C170.251 199.464 170.569 200.448 170.569 201.78V207H169.057V201.942C169.057 200.082 168.289 199.152 166.753 199.152C165.985 199.152 165.343 199.434 164.827 199.998C164.323 200.55 164.071 201.342 164.071 202.374V207H162.559ZM176.388 207C175.572 207 174.93 206.802 174.462 206.406C173.994 206.01 173.76 205.296 173.76 204.264V199.35H172.212V198.072H173.76L173.958 195.93H175.272V198.072H177.9V199.35H175.272V204.264C175.272 204.828 175.386 205.212 175.614 205.416C175.842 205.608 176.244 205.704 176.82 205.704H177.756V207H176.388ZM183.589 207.216C182.737 207.216 181.981 207.024 181.321 206.64C180.661 206.244 180.139 205.698 179.755 205.002C179.383 204.306 179.197 203.484 179.197 202.536C179.197 201.6 179.383 200.784 179.755 200.088C180.127 199.38 180.643 198.834 181.303 198.45C181.975 198.054 182.749 197.856 183.625 197.856C184.489 197.856 185.233 198.054 185.857 198.45C186.493 198.834 186.979 199.344 187.315 199.98C187.651 200.616 187.819 201.3 187.819 202.032C187.819 202.164 187.813 202.296 187.801 202.428C187.801 202.56 187.801 202.71 187.801 202.878H180.691C180.727 203.562 180.883 204.132 181.159 204.588C181.447 205.032 181.801 205.368 182.221 205.596C182.653 205.824 183.109 205.938 183.589 205.938C184.213 205.938 184.735 205.794 185.155 205.506C185.575 205.218 185.881 204.828 186.073 204.336H187.567C187.327 205.164 186.865 205.854 186.181 206.406C185.509 206.946 184.645 207.216 183.589 207.216ZM183.589 199.134C182.869 199.134 182.227 199.356 181.663 199.8C181.111 200.232 180.793 200.868 180.709 201.708H186.325C186.289 200.904 186.013 200.274 185.497 199.818C184.981 199.362 184.345 199.134 183.589 199.134ZM198.007 207.216C196.939 207.216 196.051 206.946 195.343 206.406C194.635 205.866 194.221 205.134 194.101 204.21H195.649C195.745 204.678 195.991 205.086 196.387 205.434C196.795 205.77 197.341 205.938 198.025 205.938C198.661 205.938 199.129 205.806 199.429 205.542C199.729 205.266 199.879 204.942 199.879 204.57C199.879 204.03 199.681 203.67 199.285 203.49C198.901 203.31 198.355 203.148 197.647 203.004C197.167 202.908 196.687 202.77 196.207 202.59C195.727 202.41 195.325 202.158 195.001 201.834C194.677 201.498 194.515 201.06 194.515 200.52C194.515 199.74 194.803 199.104 195.379 198.612C195.967 198.108 196.759 197.856 197.755 197.856C198.703 197.856 199.477 198.096 200.077 198.576C200.689 199.044 201.043 199.716 201.139 200.592H199.645C199.585 200.136 199.387 199.782 199.051 199.53C198.727 199.266 198.289 199.134 197.737 199.134C197.197 199.134 196.777 199.248 196.477 199.476C196.189 199.704 196.045 200.004 196.045 200.376C196.045 200.736 196.231 201.018 196.603 201.222C196.987 201.426 197.503 201.6 198.151 201.744C198.703 201.864 199.225 202.014 199.717 202.194C200.221 202.362 200.629 202.62 200.941 202.968C201.265 203.304 201.427 203.796 201.427 204.444C201.439 205.248 201.133 205.914 200.509 206.442C199.897 206.958 199.063 207.216 198.007 207.216ZM204.505 196.092C204.205 196.092 203.953 195.996 203.749 195.804C203.557 195.6 203.461 195.348 203.461 195.048C203.461 194.76 203.557 194.52 203.749 194.328C203.953 194.136 204.205 194.04 204.505 194.04C204.793 194.04 205.039 194.136 205.243 194.328C205.447 194.52 205.549 194.76 205.549 195.048C205.549 195.348 205.447 195.6 205.243 195.804C205.039 195.996 204.793 196.092 204.505 196.092ZM203.749 207V198.072H205.261V207H203.749ZM211.421 207C210.605 207 209.963 206.802 209.495 206.406C209.027 206.01 208.793 205.296 208.793 204.264V199.35H207.245V198.072H208.793L208.991 195.93H210.305V198.072H212.933V199.35H210.305V204.264C210.305 204.828 210.419 205.212 210.647 205.416C210.875 205.608 211.277 205.704 211.853 205.704H212.789V207H211.421ZM222.588 207.216C221.844 207.216 221.226 207.09 220.734 206.838C220.242 206.586 219.876 206.25 219.636 205.83C219.396 205.41 219.276 204.954 219.276 204.462C219.276 203.55 219.624 202.848 220.32 202.356C221.016 201.864 221.964 201.618 223.164 201.618H225.576V201.51C225.576 200.73 225.372 200.142 224.964 199.746C224.556 199.338 224.01 199.134 223.326 199.134C222.738 199.134 222.228 199.284 221.796 199.584C221.376 199.872 221.112 200.298 221.004 200.862H219.456C219.516 200.214 219.732 199.668 220.104 199.224C220.488 198.78 220.962 198.444 221.526 198.216C222.09 197.976 222.69 197.856 223.326 197.856C224.574 197.856 225.51 198.192 226.134 198.864C226.77 199.524 227.088 200.406 227.088 201.51V207H225.738L225.648 205.398C225.396 205.902 225.024 206.334 224.532 206.694C224.052 207.042 223.404 207.216 222.588 207.216ZM222.822 205.938C223.398 205.938 223.89 205.788 224.298 205.488C224.718 205.188 225.036 204.798 225.252 204.318C225.468 203.838 225.576 203.334 225.576 202.806V202.788H223.29C222.402 202.788 221.772 202.944 221.4 203.256C221.04 203.556 220.86 203.934 220.86 204.39C220.86 204.858 221.028 205.236 221.364 205.524C221.712 205.8 222.198 205.938 222.822 205.938ZM229.356 207V198.072H230.724L230.832 199.368C231.12 198.888 231.504 198.516 231.984 198.252C232.464 197.988 233.004 197.856 233.604 197.856C234.312 197.856 234.918 198 235.422 198.288C235.938 198.576 236.334 199.014 236.61 199.602C236.922 199.062 237.348 198.636 237.888 198.324C238.44 198.012 239.034 197.856 239.67 197.856C240.738 197.856 241.59 198.18 242.226 198.828C242.862 199.464 243.18 200.448 243.18 201.78V207H241.686V201.942C241.686 201.018 241.5 200.322 241.128 199.854C240.756 199.386 240.222 199.152 239.526 199.152C238.806 199.152 238.206 199.434 237.726 199.998C237.258 200.55 237.024 201.342 237.024 202.374V207H235.512V201.942C235.512 201.018 235.326 200.322 234.954 199.854C234.582 199.386 234.048 199.152 233.352 199.152C232.644 199.152 232.05 199.434 231.57 199.998C231.102 200.55 230.868 201.342 230.868 202.374V207H229.356ZM249.472 207.216C248.62 207.216 247.864 207.024 247.204 206.64C246.544 206.244 246.022 205.698 245.638 205.002C245.266 204.306 245.08 203.484 245.08 202.536C245.08 201.6 245.266 200.784 245.638 200.088C246.01 199.38 246.526 198.834 247.186 198.45C247.858 198.054 248.632 197.856 249.508 197.856C250.372 197.856 251.116 198.054 251.74 198.45C252.376 198.834 252.862 199.344 253.198 199.98C253.534 200.616 253.702 201.3 253.702 202.032C253.702 202.164 253.696 202.296 253.684 202.428C253.684 202.56 253.684 202.71 253.684 202.878H246.574C246.61 203.562 246.766 204.132 247.042 204.588C247.33 205.032 247.684 205.368 248.104 205.596C248.536 205.824 248.992 205.938 249.472 205.938C250.096 205.938 250.618 205.794 251.038 205.506C251.458 205.218 251.764 204.828 251.956 204.336H253.45C253.21 205.164 252.748 205.854 252.064 206.406C251.392 206.946 250.528 207.216 249.472 207.216ZM249.472 199.134C248.752 199.134 248.11 199.356 247.546 199.8C246.994 200.232 246.676 200.868 246.592 201.708H252.208C252.172 200.904 251.896 200.274 251.38 199.818C250.864 199.362 250.228 199.134 249.472 199.134ZM258.935 207C258.119 207 257.477 206.802 257.009 206.406C256.541 206.01 256.307 205.296 256.307 204.264V199.35H254.759V198.072H256.307L256.505 195.93H257.819V198.072H260.447V199.35H257.819V204.264C257.819 204.828 257.933 205.212 258.161 205.416C258.389 205.608 258.791 205.704 259.367 205.704H260.303V207H258.935ZM65.8885 232V223.072H67.2565L67.3465 224.674C67.6345 224.11 68.0485 223.666 68.5885 223.342C69.1285 223.018 69.7405 222.856 70.4245 222.856C71.4805 222.856 72.3205 223.18 72.9445 223.828C73.5805 224.464 73.8985 225.448 73.8985 226.78V232H72.3865V226.942C72.3865 225.082 71.6185 224.152 70.0825 224.152C69.3145 224.152 68.6725 224.434 68.1565 224.998C67.6525 225.55 67.4005 226.342 67.4005 227.374V232H65.8885ZM80.2033 232.216C79.3513 232.216 78.5953 232.024 77.9353 231.64C77.2753 231.244 76.7533 230.698 76.3693 230.002C75.9973 229.306 75.8113 228.484 75.8113 227.536C75.8113 226.6 75.9973 225.784 76.3693 225.088C76.7413 224.38 77.2573 223.834 77.9173 223.45C78.5893 223.054 79.3633 222.856 80.2393 222.856C81.1033 222.856 81.8473 223.054 82.4713 223.45C83.1073 223.834 83.5933 224.344 83.9293 224.98C84.2653 225.616 84.4333 226.3 84.4333 227.032C84.4333 227.164 84.4273 227.296 84.4153 227.428C84.4153 227.56 84.4153 227.71 84.4153 227.878H77.3053C77.3413 228.562 77.4973 229.132 77.7733 229.588C78.0613 230.032 78.4153 230.368 78.8353 230.596C79.2673 230.824 79.7233 230.938 80.2033 230.938C80.8273 230.938 81.3493 230.794 81.7693 230.506C82.1893 230.218 82.4953 229.828 82.6873 229.336H84.1813C83.9413 230.164 83.4793 230.854 82.7953 231.406C82.1233 231.946 81.2593 232.216 80.2033 232.216ZM80.2033 224.134C79.4833 224.134 78.8413 224.356 78.2773 224.8C77.7253 225.232 77.4073 225.868 77.3233 226.708H82.9393C82.9033 225.904 82.6273 225.274 82.1113 224.818C81.5953 224.362 80.9593 224.134 80.2033 224.134ZM93.7633 235.96V230.524C93.4753 230.956 93.0613 231.346 92.5213 231.694C91.9813 232.042 91.3033 232.216 90.4873 232.216C89.5993 232.216 88.8193 232.012 88.1473 231.604C87.4873 231.196 86.9713 230.638 86.5993 229.93C86.2393 229.222 86.0593 228.418 86.0593 227.518C86.0593 226.618 86.2453 225.82 86.6173 225.124C86.9893 224.416 87.5053 223.864 88.1653 223.468C88.8253 223.06 89.6053 222.856 90.5053 222.856C91.2373 222.856 91.8853 223.006 92.4493 223.306C93.0133 223.606 93.4513 224.026 93.7633 224.566L93.9073 223.072H95.2753V235.96H93.7633ZM90.6493 230.902C91.2493 230.902 91.7773 230.764 92.2333 230.488C92.7013 230.2 93.0613 229.804 93.3133 229.3C93.5773 228.796 93.7093 228.208 93.7093 227.536C93.7093 226.864 93.5773 226.276 93.3133 225.772C93.0613 225.268 92.7013 224.878 92.2333 224.602C91.7773 224.314 91.2493 224.17 90.6493 224.17C90.0613 224.17 89.5333 224.314 89.0653 224.602C88.6093 224.878 88.2493 225.268 87.9853 225.772C87.7333 226.276 87.6073 226.864 87.6073 227.536C87.6073 228.208 87.7333 228.796 87.9853 229.3C88.2493 229.804 88.6093 230.2 89.0653 230.488C89.5333 230.764 90.0613 230.902 90.6493 230.902ZM100.998 232.216C99.942 232.216 99.102 231.898 98.478 231.262C97.854 230.614 97.542 229.624 97.542 228.292V223.072H99.054V228.13C99.054 229.99 99.816 230.92 101.34 230.92C102.12 230.92 102.762 230.644 103.266 230.092C103.782 229.528 104.04 228.73 104.04 227.698V223.072H105.552V232H104.184L104.076 230.398C103.8 230.962 103.386 231.406 102.834 231.73C102.294 232.054 101.682 232.216 100.998 232.216ZM112.055 232.216C111.203 232.216 110.447 232.024 109.787 231.64C109.127 231.244 108.605 230.698 108.221 230.002C107.849 229.306 107.663 228.484 107.663 227.536C107.663 226.6 107.849 225.784 108.221 225.088C108.593 224.38 109.109 223.834 109.769 223.45C110.441 223.054 111.215 222.856 112.091 222.856C112.955 222.856 113.699 223.054 114.323 223.45C114.959 223.834 115.445 224.344 115.781 224.98C116.117 225.616 116.285 226.3 116.285 227.032C116.285 227.164 116.279 227.296 116.267 227.428C116.267 227.56 116.267 227.71 116.267 227.878H109.157C109.193 228.562 109.349 229.132 109.625 229.588C109.913 230.032 110.267 230.368 110.687 230.596C111.119 230.824 111.575 230.938 112.055 230.938C112.679 230.938 113.201 230.794 113.621 230.506C114.041 230.218 114.347 229.828 114.539 229.336H116.033C115.793 230.164 115.331 230.854 114.647 231.406C113.975 231.946 113.111 232.216 112.055 232.216ZM112.055 224.134C111.335 224.134 110.693 224.356 110.129 224.8C109.577 225.232 109.259 225.868 109.175 226.708H114.791C114.755 225.904 114.479 225.274 113.963 224.818C113.447 224.362 112.811 224.134 112.055 224.134ZM126.581 232C125.765 232 125.123 231.802 124.655 231.406C124.187 231.01 123.953 230.296 123.953 229.264V224.35H122.405V223.072H123.953L124.151 220.93H125.465V223.072H128.093V224.35H125.465V229.264C125.465 229.828 125.579 230.212 125.807 230.416C126.035 230.608 126.437 230.704 127.013 230.704H127.949V232H126.581ZM130.013 232V223.072H131.381L131.507 224.782C131.783 224.194 132.203 223.726 132.767 223.378C133.331 223.03 134.027 222.856 134.855 222.856V224.44H134.441C133.913 224.44 133.427 224.536 132.983 224.728C132.539 224.908 132.185 225.22 131.921 225.664C131.657 226.108 131.525 226.72 131.525 227.5V232H130.013ZM137.471 221.092C137.171 221.092 136.919 220.996 136.715 220.804C136.523 220.6 136.427 220.348 136.427 220.048C136.427 219.76 136.523 219.52 136.715 219.328C136.919 219.136 137.171 219.04 137.471 219.04C137.759 219.04 138.005 219.136 138.209 219.328C138.413 219.52 138.515 219.76 138.515 220.048C138.515 220.348 138.413 220.6 138.209 220.804C138.005 220.996 137.759 221.092 137.471 221.092ZM136.715 232V223.072H138.227V232H136.715ZM144.279 232.216C143.211 232.216 142.323 231.946 141.615 231.406C140.907 230.866 140.493 230.134 140.373 229.21H141.921C142.017 229.678 142.263 230.086 142.659 230.434C143.067 230.77 143.613 230.938 144.297 230.938C144.933 230.938 145.401 230.806 145.701 230.542C146.001 230.266 146.151 229.942 146.151 229.57C146.151 229.03 145.953 228.67 145.557 228.49C145.173 228.31 144.627 228.148 143.919 228.004C143.439 227.908 142.959 227.77 142.479 227.59C141.999 227.41 141.597 227.158 141.273 226.834C140.949 226.498 140.787 226.06 140.787 225.52C140.787 224.74 141.075 224.104 141.651 223.612C142.239 223.108 143.031 222.856 144.027 222.856C144.975 222.856 145.749 223.096 146.349 223.576C146.961 224.044 147.315 224.716 147.411 225.592H145.917C145.857 225.136 145.659 224.782 145.323 224.53C144.999 224.266 144.561 224.134 144.009 224.134C143.469 224.134 143.049 224.248 142.749 224.476C142.461 224.704 142.317 225.004 142.317 225.376C142.317 225.736 142.503 226.018 142.875 226.222C143.259 226.426 143.775 226.6 144.423 226.744C144.975 226.864 145.497 227.014 145.989 227.194C146.493 227.362 146.901 227.62 147.213 227.968C147.537 228.304 147.699 228.796 147.699 229.444C147.711 230.248 147.405 230.914 146.781 231.442C146.169 231.958 145.335 232.216 144.279 232.216ZM152.983 232C152.167 232 151.525 231.802 151.057 231.406C150.589 231.01 150.355 230.296 150.355 229.264V224.35H148.807V223.072H150.355L150.553 220.93H151.867V223.072H154.495V224.35H151.867V229.264C151.867 229.828 151.981 230.212 152.209 230.416C152.437 230.608 152.839 230.704 153.415 230.704H154.351V232H152.983ZM157.334 221.092C157.034 221.092 156.782 220.996 156.578 220.804C156.386 220.6 156.29 220.348 156.29 220.048C156.29 219.76 156.386 219.52 156.578 219.328C156.782 219.136 157.034 219.04 157.334 219.04C157.622 219.04 157.868 219.136 158.072 219.328C158.276 219.52 158.378 219.76 158.378 220.048C158.378 220.348 158.276 220.6 158.072 220.804C157.868 220.996 157.622 221.092 157.334 221.092ZM156.578 232V223.072H158.09V232H156.578ZM168.048 235.96V230.524C167.76 230.956 167.346 231.346 166.806 231.694C166.266 232.042 165.588 232.216 164.772 232.216C163.884 232.216 163.104 232.012 162.432 231.604C161.772 231.196 161.256 230.638 160.884 229.93C160.524 229.222 160.344 228.418 160.344 227.518C160.344 226.618 160.53 225.82 160.902 225.124C161.274 224.416 161.79 223.864 162.45 223.468C163.11 223.06 163.89 222.856 164.79 222.856C165.522 222.856 166.17 223.006 166.734 223.306C167.298 223.606 167.736 224.026 168.048 224.566L168.192 223.072H169.56V235.96H168.048ZM164.934 230.902C165.534 230.902 166.062 230.764 166.518 230.488C166.986 230.2 167.346 229.804 167.598 229.3C167.862 228.796 167.994 228.208 167.994 227.536C167.994 226.864 167.862 226.276 167.598 225.772C167.346 225.268 166.986 224.878 166.518 224.602C166.062 224.314 165.534 224.17 164.934 224.17C164.346 224.17 163.818 224.314 163.35 224.602C162.894 224.878 162.534 225.268 162.27 225.772C162.018 226.276 161.892 226.864 161.892 227.536C161.892 228.208 162.018 228.796 162.27 229.3C162.534 229.804 162.894 230.2 163.35 230.488C163.818 230.764 164.346 230.902 164.934 230.902ZM175.283 232.216C174.227 232.216 173.387 231.898 172.763 231.262C172.139 230.614 171.827 229.624 171.827 228.292V223.072H173.339V228.13C173.339 229.99 174.101 230.92 175.625 230.92C176.405 230.92 177.047 230.644 177.551 230.092C178.067 229.528 178.325 228.73 178.325 227.698V223.072H179.837V232H178.469L178.361 230.398C178.085 230.962 177.671 231.406 177.119 231.73C176.579 232.054 175.967 232.216 175.283 232.216ZM186.34 232.216C185.488 232.216 184.732 232.024 184.072 231.64C183.412 231.244 182.89 230.698 182.506 230.002C182.134 229.306 181.948 228.484 181.948 227.536C181.948 226.6 182.134 225.784 182.506 225.088C182.878 224.38 183.394 223.834 184.054 223.45C184.726 223.054 185.5 222.856 186.376 222.856C187.24 222.856 187.984 223.054 188.608 223.45C189.244 223.834 189.73 224.344 190.066 224.98C190.402 225.616 190.57 226.3 190.57 227.032C190.57 227.164 190.564 227.296 190.552 227.428C190.552 227.56 190.552 227.71 190.552 227.878H183.442C183.478 228.562 183.634 229.132 183.91 229.588C184.198 230.032 184.552 230.368 184.972 230.596C185.404 230.824 185.86 230.938 186.34 230.938C186.964 230.938 187.486 230.794 187.906 230.506C188.326 230.218 188.632 229.828 188.824 229.336H190.318C190.078 230.164 189.616 230.854 188.932 231.406C188.26 231.946 187.396 232.216 186.34 232.216ZM186.34 224.134C185.62 224.134 184.978 224.356 184.414 224.8C183.862 225.232 183.544 225.868 183.46 226.708H189.076C189.04 225.904 188.764 225.274 188.248 224.818C187.732 224.362 187.096 224.134 186.34 224.134ZM197.338 232V223.072H198.706L198.832 224.782C199.108 224.194 199.528 223.726 200.092 223.378C200.656 223.03 201.352 222.856 202.18 222.856V224.44H201.766C201.238 224.44 200.752 224.536 200.308 224.728C199.864 224.908 199.51 225.22 199.246 225.664C198.982 226.108 198.85 226.72 198.85 227.5V232H197.338ZM207.135 232.216C206.079 232.216 205.239 231.898 204.615 231.262C203.991 230.614 203.679 229.624 203.679 228.292V223.072H205.191V228.13C205.191 229.99 205.953 230.92 207.477 230.92C208.257 230.92 208.899 230.644 209.403 230.092C209.919 229.528 210.177 228.73 210.177 227.698V223.072H211.689V232H210.321L210.213 230.398C209.937 230.962 209.523 231.406 208.971 231.73C208.431 232.054 207.819 232.216 207.135 232.216ZM217.706 232C216.89 232 216.248 231.802 215.78 231.406C215.312 231.01 215.078 230.296 215.078 229.264V224.35H213.53V223.072H215.078L215.276 220.93H216.59V223.072H219.218V224.35H216.59V229.264C216.59 229.828 216.704 230.212 216.932 230.416C217.16 230.608 217.562 230.704 218.138 230.704H219.074V232H217.706ZM221.138 232V223.072H222.506L222.632 224.782C222.908 224.194 223.328 223.726 223.892 223.378C224.456 223.03 225.152 222.856 225.98 222.856V224.44H225.566C225.038 224.44 224.552 224.536 224.108 224.728C223.664 224.908 223.31 225.22 223.046 225.664C222.782 226.108 222.65 226.72 222.65 227.5V232H221.138ZM230.936 232.216C229.88 232.216 229.04 231.898 228.416 231.262C227.792 230.614 227.48 229.624 227.48 228.292V223.072H228.992V228.13C228.992 229.99 229.754 230.92 231.278 230.92C232.058 230.92 232.7 230.644 233.204 230.092C233.72 229.528 233.978 228.73 233.978 227.698V223.072H235.49V232H234.122L234.014 230.398C233.738 230.962 233.324 231.406 232.772 231.73C232.232 232.054 231.62 232.216 230.936 232.216ZM237.978 232V223.072H239.346L239.454 224.368C239.742 223.888 240.126 223.516 240.606 223.252C241.086 222.988 241.626 222.856 242.226 222.856C242.934 222.856 243.54 223 244.044 223.288C244.56 223.576 244.956 224.014 245.232 224.602C245.544 224.062 245.97 223.636 246.51 223.324C247.062 223.012 247.656 222.856 248.292 222.856C249.36 222.856 250.212 223.18 250.848 223.828C251.484 224.464 251.802 225.448 251.802 226.78V232H250.308V226.942C250.308 226.018 250.122 225.322 249.75 224.854C249.378 224.386 248.844 224.152 248.148 224.152C247.428 224.152 246.828 224.434 246.348 224.998C245.88 225.55 245.646 226.342 245.646 227.374V232H244.134V226.942C244.134 226.018 243.948 225.322 243.576 224.854C243.204 224.386 242.67 224.152 241.974 224.152C241.266 224.152 240.672 224.434 240.192 224.998C239.724 225.55 239.49 226.342 239.49 227.374V232H237.978ZM254.602 232.09C254.302 232.09 254.05 231.994 253.846 231.802C253.654 231.598 253.558 231.352 253.558 231.064C253.558 230.776 253.654 230.536 253.846 230.344C254.05 230.14 254.302 230.038 254.602 230.038C254.89 230.038 255.13 230.14 255.322 230.344C255.526 230.536 255.628 230.776 255.628 231.064C255.628 231.352 255.526 231.598 255.322 231.802C255.13 231.994 254.89 232.09 254.602 232.09Z" fill="#111010"/>
<defs>
<clipPath id="clip0_1_257">
<rect width="56" height="56" fill="white" transform="translate(132 16)"/>
</clipPath>
</defs>
</svg>
